<?xml version="1.0" encoding="UTF-8"?>
<svg id="Layer_1" data-name="Layer 1" xmlns="http://www.w3.org/2000/svg" xmlns:xlink="http://www.w3.org/1999/xlink" viewBox="0 0 2088.19 1000">
  <defs>
    <style>
      .cls-1 {
        fill: url(#linear-gradient-15);
      }

      .cls-2 {
        fill: url(#linear-gradient-13);
      }

      .cls-3 {
        fill: url(#linear-gradient-2);
      }

      .cls-4 {
        fill: url(#linear-gradient-10);
      }

      .cls-5 {
        fill: url(#linear-gradient-12);
      }

      .cls-6 {
        fill: #fff;
      }

      .cls-7 {
        fill: url(#linear-gradient-4);
      }

      .cls-8 {
        fill: url(#linear-gradient-3);
      }

      .cls-9 {
        fill: url(#linear-gradient-5);
      }

      .cls-10 {
        fill: url(#linear-gradient-8);
      }

      .cls-11 {
        fill: url(#linear-gradient-14);
      }

      .cls-12 {
        fill: url(#linear-gradient-17);
      }

      .cls-13 {
        fill: url(#linear-gradient-7);
      }

      .cls-14 {
        fill: url(#linear-gradient-9);
      }

      .cls-15 {
        fill: url(#linear-gradient-11);
      }

      .cls-16 {
        fill: url(#linear-gradient-6);
      }

      .cls-17 {
        fill: url(#linear-gradient-16);
      }

      .cls-18 {
        fill: url(#linear-gradient);
      }

      .cls-19 {
        fill: url(#linear-gradient-18);
      }
    </style>
    <linearGradient id="linear-gradient" x1="499.71" y1="600.41" x2="616.07" y2="600.41" gradientUnits="userSpaceOnUse">
      <stop offset="0" stop-color="#e8bb4d"/>
      <stop offset=".38" stop-color="#f5d768"/>
      <stop offset=".7" stop-color="#f3dc77"/>
      <stop offset="1" stop-color="#e0b54b"/>
    </linearGradient>
    <linearGradient id="linear-gradient-2" x1="72.84" y1="664.15" x2="440.04" y2="664.15" xlink:href="#linear-gradient"/>
    <linearGradient id="linear-gradient-3" x1="203.87" y1="744.45" x2="544.16" y2="744.45" xlink:href="#linear-gradient"/>
    <linearGradient id="linear-gradient-4" x1="203.87" y1="283.21" x2="484.92" y2="283.21" xlink:href="#linear-gradient"/>
    <linearGradient id="linear-gradient-5" x1="0" y1="567.44" x2="688.89" y2="567.44" xlink:href="#linear-gradient"/>
    <linearGradient id="linear-gradient-6" x1="741.83" y1="496.94" x2="809.35" y2="496.94" xlink:href="#linear-gradient"/>
    <linearGradient id="linear-gradient-7" x1="815.5" y1="496.92" x2="930.13" y2="496.92" xlink:href="#linear-gradient"/>
    <linearGradient id="linear-gradient-8" x1="938.26" y1="497.59" x2="985.77" y2="497.59" xlink:href="#linear-gradient"/>
    <linearGradient id="linear-gradient-9" x1="994.74" y1="494" x2="1106.57" y2="494" xlink:href="#linear-gradient"/>
    <linearGradient id="linear-gradient-10" x1="1115.38" y1="497.51" x2="1227.2" y2="497.51" xlink:href="#linear-gradient"/>
    <linearGradient id="linear-gradient-11" x1="1236.2" y1="498.1" x2="1346.54" y2="498.1" xlink:href="#linear-gradient"/>
    <linearGradient id="linear-gradient-12" x1="1390.62" y1="497.43" x2="1506.7" y2="497.43" xlink:href="#linear-gradient"/>
    <linearGradient id="linear-gradient-13" x1="1514.69" y1="497.59" x2="1562.21" y2="497.59" xlink:href="#linear-gradient"/>
    <linearGradient id="linear-gradient-14" x1="1572.97" y1="498.92" x2="1664.56" y2="498.92" xlink:href="#linear-gradient"/>
    <linearGradient id="linear-gradient-15" x1="1672.71" y1="498.92" x2="1764.3" y2="498.92" xlink:href="#linear-gradient"/>
    <linearGradient id="linear-gradient-16" x1="1769.7" y1="496.92" x2="1884.32" y2="496.92" xlink:href="#linear-gradient"/>
    <linearGradient id="linear-gradient-17" x1="1884.3" y1="494" x2="1996.13" y2="494" xlink:href="#linear-gradient"/>
    <linearGradient id="linear-gradient-18" x1="2006.74" y1="495.51" x2="2088.19" y2="495.51" xlink:href="#linear-gradient"/>
  </defs>
  <g>
    <path class="cls-18" d="M605.33,586.89l10.74-10.71h-94.64l-19.38,19.35c-1.5,1.5-2.33,3.49-2.33,5.63s.83,4.13,2.33,5.63l17.9,17.87h.02c3.77-.23,7.54-.34,11.37-.34h21.33c9.74,0,19.07-3.86,25.96-10.74h-44.11v-5.22h49.33l5.52-5.5h-54.85v-5.22h60.07l5.52-5.5h-65.59v-5.22h70.81ZM511.25,607.61c-3.74,0-6.75-3.01-6.75-6.75s3.01-6.75,6.75-6.75,6.75,3.03,6.75,6.75-3.03,6.75-6.75,6.75Z"/>
    <path class="cls-3" d="M438.57,646.08l-35.58-35.58c-.45-.45-.87-.93-1.22-1.44-21.95,13.55-41.34,30.82-57.32,50.94-40.55-51.08-103.17-83.83-173.48-83.83h-98.14l10.74,10.71h70.83v5.22h-65.6l5.52,5.5h60.09v5.22h-54.86l5.52,5.5h49.35v5.22h-44.12c6.89,6.88,16.23,10.74,25.96,10.74h21.33c76.98,0,143.09,46.61,171.65,113.14l13.55,13.58,1.08,1.1h.02l.02-.02,1.07-1.08,15.59-15.61c16.4-36.97,44.43-67.63,79.48-87.3-.37-.74-.87-1.42-1.47-2.04ZM177.65,607.61c-3.72,0-6.75-3.01-6.75-6.75s3.03-6.75,6.75-6.75,6.77,3.03,6.77,6.75-3.03,6.75-6.77,6.75ZM198.96,610.21c-3.74,0-6.75-3.03-6.75-6.77s3.01-6.75,6.75-6.75,6.75,3.03,6.75,6.75-3.03,6.77-6.75,6.77ZM220.26,614.95c-3.72,0-6.75-3.03-6.75-6.75s3.03-6.75,6.75-6.75,6.77,3.01,6.77,6.75-3.03,6.75-6.77,6.75ZM241.57,622.04c-3.74,0-6.75-3.03-6.75-6.75s3.01-6.77,6.75-6.77,6.75,3.03,6.75,6.77-3.03,6.75-6.75,6.75Z"/>
    <path class="cls-8" d="M544.16,656.94v90.72c0,2.81-1.11,5.5-3.11,7.5l-182.19,182.1c-.53.53-1.05,1-1.61,1.45-.56.45-1.13.88-1.72,1.27-1.17.76-2.4,1.41-3.68,1.93-.63.26-1.28.48-1.95.68-1.96.57-4,.87-6.03.87s-4.06-.29-6.03-.87c-.66-.2-1.31-.42-1.95-.68-1.28-.53-2.52-1.17-3.69-1.93-.59-.39-1.16-.82-1.72-1.27-.56-.45-1.1-.93-1.61-1.45l-118.81-118.81c-8.27-8.28-8.27-21.7,0-29.98l75.74-75.74c2.07-2.07,4.79-3.11,7.5-3.11s5.44,1.04,7.51,3.11l26.16,26.23,4.82,4.82v.02l4.33,4.34.02.02h.02l4.74,4.76-.45.45-50.1,50.1,53.52,53.52,53.5-53.52-50.03-50.04-.51-.51,4.06-4.06,6.92-6.94,4.95-4.95,77.67-77.75c.26-.26.49-.53.73-.8.45-.56.83-1.14,1.16-1.76.15-.31.31-.62.43-.94.14-.31.25-.65.34-.97.09-.32.17-.65.23-.99.06-.29.11-.6.14-.9.05-.4.06-.79.06-1.19,0-.28-.02-.57-.05-.85-.02-.2-.03-.42-.08-.63-.02-.05-.02-.11-.03-.15-.03-.2-.06-.4-.11-.6,0-.02-.02-.05-.02-.06-.09-.43-.22-.87-.37-1.27-.06-.17-.12-.34-.19-.49,0-.02-.02-.02-.02-.03-.11-.23-.22-.48-.34-.71-.03-.06-.06-.11-.09-.17-.12-.23-.26-.46-.4-.7-.4-.63-.88-1.22-1.42-1.76l-35.56-35.58c-.2-.2-.39-.4-.56-.62-.11-.11-.19-.22-.28-.34-.22-.26-.42-.54-.6-.83-.12-.19-.25-.39-.34-.59l-.05-.09c-.05-.08-.09-.14-.12-.22-.11-.2-.2-.4-.29-.62,0-.02-.02-.02-.02-.03-.14-.32-.26-.65-.36-.99-.05-.12-.08-.25-.11-.37l-.09-.37c-.05-.12-.08-.26-.09-.4-.06-.32-.11-.63-.14-.96-.02-.11-.03-.22-.03-.31-.02-.25-.03-.51-.03-.76,0-2.7,1.04-5.41,3.09-7.48l34.82-34.9c6.78-2.74,13.74-5.07,20.83-6.97-.31,6.63-2.98,13.15-8.02,18.21l-20.49,20.54-5.22,5.22-5.36,5.38,31.05,31.05c2.16,2.16,3.89,4.62,5.19,7.23.4.79.74,1.59,1.05,2.41,3.77,9.84,1.68,21.45-6.23,29.38l-81.6,81.69,38.53,38.53c3.18,3.18,4.98,7.51,4.98,12.02s-1.79,8.82-4.98,12.02l-53.52,53.5c-3.31,3.32-7.67,4.99-12.01,4.99s-8.7-1.67-12.02-4.99l-53.52-53.5c-3.18-3.2-4.98-7.51-4.98-12.02s1.79-8.84,4.98-12.02l38.54-38.54-23.57-23.61-71.21,71.21c-1.02,1.02-1.24,2.18-1.24,2.97s.22,1.95,1.24,2.97l118.81,118.81c1.02,1,2.18,1.22,2.97,1.22s1.95-.22,2.97-1.22l180.31-180.23v-85.4l-29.63-29.56-2.26-2.26-7.11-7.09c-5.22-5.22-8.1-12.15-8.1-19.53s2.87-14.33,8.1-19.53l3.94-3.94,3.01-3.01,21.16-21.11c1.02-1,1.24-2.16,1.24-2.97s-.22-1.95-1.24-2.97l-2.18-2.18h19.78c1.75,7-.12,14.7-5.59,20.15l-7.94,7.93-2.66,2.66-17.51,17.48c-4.14,4.13-4.14,10.85,0,14.99l16.27,16.24,2.47,2.47,22.13,22.08c1.99,1.98,3.11,4.68,3.11,7.5Z"/>
    <path class="cls-7" d="M465.65,199.52c1.02-1.02,1.24-2.18,1.24-2.97s-.22-1.95-1.24-2.97l-118.81-118.81c-1-1-2.16-1.22-2.95-1.22s-1.96.22-2.97,1.22l-118.81,118.81c-1.64,1.64-1.64,4.3,0,5.93l71.21,71.21,23.57-23.61-38.54-38.54c-3.18-3.18-4.98-7.51-4.98-12.02s1.79-8.82,4.98-12.02l53.52-53.52c3.32-3.31,7.67-4.98,12.02-4.98s8.7,1.67,12.01,4.98l53.52,53.52c3.18,3.2,4.98,7.51,4.98,12.02s-1.79,8.84-4.98,12.02l-136.76,136.76c-1.02,1.02-1.24,2.18-1.24,2.97s.22,1.95,1.24,2.97l152.09,152.01c-5.9,1.95-11.73,4.14-17.45,6.6l-146.66-146.59c-8.27-8.28-8.28-21.7,0-29.98l136.76-136.76-53.5-53.52-53.52,53.52,43.06,43.06c4.14,4.14,4.14,10.85.02,14.99l-40.1,40.18-83.25-83.24c-8.27-8.28-8.27-21.7,0-29.98l118.81-118.8c4.14-4.14,9.57-6.21,14.99-6.21s10.85,2.07,14.98,6.21l118.81,118.8c8.28,8.28,8.28,21.7,0,29.98l-129.26,129.26c-4.14,4.14-4.14,10.85,0,14.99l136.51,136.43c-7.4.32-14.73,1.02-21.99,2.07l-126.54-126.48c-5.21-5.21-8.08-12.15-8.08-19.52s2.86-14.3,8.08-19.52l129.26-129.26Z"/>
    <path class="cls-9" d="M576.84,505.33v5.22h96.13l-5.52,5.5h-80.64v5.22h75.42l-5.52,5.5h-61.35v5.22h56.13c-6.92,6.89-16.29,10.77-26.06,10.77h-116.96c-70.77,0-132.35,39.39-164.02,97.44-31.68-58.05-93.27-97.44-164.03-97.44H63.46c-9.77,0-19.13-3.88-26.04-10.77h58.46v-5.22h-63.69l-5.52-5.5h76.52v-5.22H21.45l-5.52-5.5h96.11v-5.22H10.69l-10.69-10.68h193.82c58.19,0,111.12,22.44,150.64,59.14,19.75-18.36,42.87-33.13,68.31-43.33,25.45-10.2,53.23-15.81,82.33-15.81h193.8l-10.69,10.68h-101.35Z"/>
  </g>
  <g>
    <g>
      <path class="cls-16" d="M782.2,446.91c2.72,0,5.05.37,7.01,1.14,2.17.87,4.02,1.9,5.56,3.1,1.53,1.19,2.78,2.62,3.76,4.23.98,1.43,1.64,2.96,1.96,4.58.21.98.42,1.64.66,1.96.42.66.79,1.03,1.14,1.14.32.24.71.19,1.14-.16.21-.11.56-.63.98-1.61l4.74-14.55c.56-1.72.05-2.88-1.48-3.41-1.08-.45-3.04-.87-5.87-1.32-1.51-.21-3.23-.37-5.13-.48-1.9-.11-4.05-.16-6.45-.16-6.85,0-12.88.77-18.12,2.28-2.49.77-4.89,1.69-7.17,2.78-2.3,1.11-4.47,2.46-6.53,4.1-3.6,2.83-6.53,6.59-8.81,11.27-2.2,4.92-3.28,9.34-3.28,13.25,0,4.13.61,7.91,1.8,11.27,1.08,3.07,2.67,5.95,4.74,8.68,1.85,2.28,4.07,4.58,6.69,6.85,1.19,1.11,2.46,2.14,3.76,3.12,1.3.98,2.62,2.01,3.92,3.1,1.53,1.22,3.02,2.38,4.5,3.52,1.46,1.16,2.86,2.28,4.15,3.36,1.19.98,2.38,1.96,3.52,2.94,1.14.98,2.14,2.01,3.02,3.12,1.85,2.06,3.25,4.18,4.23,6.38.98,2.28,1.48,4.89,1.48,7.83,0,2.2-.45,4.15-1.3,5.9-.87,1.64-1.9,2.88-3.12,3.76-.98.87-2.38,1.59-4.23,2.12-1.3.45-2.88.66-4.74.66-2.62,0-5.34-.42-8.17-1.3-2.38-.77-4.74-1.96-7.01-3.6-2.17-1.53-3.97-3.2-5.4-5.05-1.51-2.06-2.65-4.1-3.41-6.06-.87-2.28-1.32-3.86-1.32-4.74-.21-1.08-.37-1.85-.48-2.28-.32-1.4-.98-2.12-1.96-2.12-.56,0-1.14.42-1.8,1.3-.32.45-.63.87-.9,1.3-.26.45-.53.87-.74,1.32-.32.66-.63,1.85-.98,3.6-.32,1.51-.48,2.83-.48,3.92,0,1.51.21,2.94.63,4.23.45,1.53.6,6.81-.32,8.81-1.93,4.23,1.96,5.9,4.26,5.24,2.49-.56,4.6-.82,6.35-.82h1.8c.66,0,1.43.05,2.28.16.87.11,1.75.16,2.62.16s1.8.11,2.78.34c.87,0,1.8.03,2.78.08s1.91.13,2.78.24c.87.11,1.69.16,2.43.16h1.98c3.25,0,6.14-.32,8.65-.98,2.38-.42,4.55-1.24,6.51-2.43.87-.56,1.75-1.16,2.62-1.8.87-.66,1.69-1.38,2.46-2.14.74-.74,1.48-1.53,2.2-2.35.71-.82,1.51-1.67,2.38-2.54.85-.87,1.61-1.8,2.28-2.86.66-1.03,1.24-2.09,1.8-3.17,1.08-2.06,1.96-4.13,2.62-6.19.63-2.2,1.14-4.21,1.46-6.06.32-1.96.5-3.76.5-5.37,0-2.51-.19-5.19-.5-8.02-.21-2.72-.87-5.42-1.96-8.15-.56-1.43-1.22-2.83-2.04-4.26-.82-1.4-1.77-2.88-2.86-4.39-1.08-1.53-2.41-3.1-3.92-4.66-1.53-1.59-3.23-3.25-5.08-5-3.15-2.8-6.03-5.21-8.65-7.17-1.3-.98-2.51-1.93-3.65-2.86-1.16-.93-2.22-1.83-3.2-2.7-1.85-1.75-3.31-3.52-4.39-5.37-1.11-1.75-1.64-3.99-1.64-6.69,0-3.07,1.08-5.56,3.25-7.51,2.06-1.96,5.71-2.94,10.95-2.94ZM770.74,500.11c3.52,2.49,6.53,5.05,9.05,7.65,2.51,2.62,4.66,5.32,6.4,8.15,3.52,5.53,5,11.43,4.44,17.75-.5-6.46-3.04-12.46-7.59-18.02-4.31-5.37-9.92-10.24-16.8-14.6-1.64-1.16-3.44-2.46-5.42-3.89-.87-.79-1.77-1.56-2.67-2.35-.87-.77-1.72-1.67-2.51-2.65-.79-.9-1.51-1.85-2.14-2.86-.63-1.01-1.22-2.06-1.69-3.17-1.01-2.35-1.35-4.74-1.08-7.14.37,2.59,1.24,4.79,2.62,6.56.69,1.01,1.46,1.96,2.3,2.83.85.9,1.69,1.77,2.59,2.67,1.67,1.46,3.76,3.04,6.27,4.76,1.11.77,2.17,1.48,3.2,2.14,1.03.69,2.06,1.4,3.04,2.17Z"/>
      <path class="cls-13" d="M929.29,547.63c-.24-.42-.53-.87-.9-1.3-.4-.45-.79-.93-1.22-1.48-1.75-2.28-3.84-5.5-6.22-9.63-1.19-2.06-2.46-4.21-3.76-6.46-1.3-2.22-2.67-4.52-4.07-6.93-1.32-2.38-2.62-4.76-3.92-7.09-1.32-2.35-2.57-4.71-3.76-7.12-1.22-2.28-2.35-4.39-3.44-6.38-1.08-1.96-2.06-3.68-2.94-5.21-.53-1.08-1.16-2.28-1.88-3.6-.71-1.3-1.48-2.7-2.35-4.23-.87-1.53-1.77-3.12-2.7-4.81-.93-1.69-1.88-3.47-2.86-5.32-.87-1.85-1.8-3.68-2.78-5.45-.98-1.8-2.01-3.62-3.1-5.48-1.96-3.7-3.76-7.14-5.4-10.29-.87-1.53-1.67-2.96-2.35-4.34-.71-1.35-1.35-2.62-1.88-3.81-.56-1.11-1.01-2.01-1.4-2.7-.37-.71-.69-1.3-.9-1.72-.77-1.75-1.56-2.62-2.43-2.62-.87-.21-1.64.5-2.3,2.12-.21.34-.5.9-.9,1.72-.37.82-.85,1.88-1.38,3.2-.56,1.3-1.19,2.75-1.96,4.39-.77,1.64-1.59,3.39-2.46,5.24-.87,1.85-1.77,3.81-2.7,5.87-.93,2.06-1.93,4.23-3.02,6.53-1.08,2.17-2.12,4.39-3.1,6.69-.98,2.28-2.01,4.55-3.1,6.85-1.08,2.28-2.12,4.5-3.1,6.69-.98,2.17-1.96,4.34-2.94,6.53-.87,2.17-1.72,4.15-2.54,5.95-.82,1.8-1.61,3.44-2.38,4.97l-6.35,13.7c-1.08,2.3-2.17,4.47-3.2,6.53-1.03,2.06-2.04,4.02-3.02,5.87-.87,1.85-1.72,3.52-2.51,5-.82,1.46-1.56,2.8-2.22,3.99-1.3,2.49-2.12,3.81-2.43,3.92-1.32.87-1.96,1.85-1.96,2.94,0,1.19.58,1.8,1.8,1.8.74,0,2.12-.16,4.07-.5.98-.11,1.83-.19,2.51-.24.71-.05,1.3-.08,1.72-.08.45,0,.93.03,1.48.08.53.05,1.24.13,2.12.24.87.11,1.59.19,2.12.26.56.05,1.03.08,1.48.08.77,0,1.4-.34,1.96-.98.42-.56.66-1.03.66-1.48,0-.42-.71-.87-2.14-1.3-1.51-.56-2.06-1.75-1.61-3.6.11-.42.29-1.08.56-1.96.26-.87.63-1.96,1.06-3.28.45-1.3.93-2.67,1.48-4.15.53-1.46,1.14-3.02,1.8-4.66.53-1.61,1.14-3.28,1.8-4.97.63-1.69,1.3-3.39,1.96-5.13.63-1.75,1.3-3.36,1.96-4.81.63-1.48,1.24-2.8,1.8-4.02.63-.42,2.12-.79,4.39-1.14,1.08-.11,2.2-.21,3.36-.32,1.14-.11,2.41-.16,3.84-.16,1.4-.21,2.83-.34,4.23-.34h4.58c3.15-.21,6.38-.21,9.63,0,1.53,2.94,2.99,5.9,4.42,8.84,1.4,2.94,2.83,5.87,4.23,8.81,1.3,2.83,2.59,5.58,3.84,8.23,1.24,2.67,2.43,5.26,3.52,7.78.42,1.08.63,1.85.63,2.28.24.66.24,1.24,0,1.8-.32.53-.79.82-1.46.82-.77,0-1.3.05-1.64.16-.21.11-.45.21-.74.32-.26.11-.5.16-.71.16-.45.34-.66.77-.66,1.32,0,.77.42,1.3,1.3,1.61.45.13.87.21,1.32.26.42.05.93.08,1.45.08h1.32c.63,0,1.45-.05,2.43-.16.87-.13,1.8-.19,2.78-.19,1.08,0,2.22-.11,3.44-.32,1.19,0,2.3-.03,3.33-.08,1.03-.05,2.09-.13,3.17-.24.98-.11,1.8-.16,2.46-.16h5.4c.87.11,1.8.16,2.78.16s2.01.05,3.1.16c.98.11,1.9.16,2.78.16h2.78c.87.11,1.51.16,1.96.16h.98c1.19,0,1.8-.69,1.8-2.12.11-.42-.19-1.08-.82-1.96ZM862.99,497.52c-.87-.11-1.72-.19-2.59-.19-.77,0-1.59-.05-2.46-.16-.87-.11-1.69-.16-2.43-.16-.66,0-1.38-.11-2.14-.32-.63,0-1.22-.05-1.69-.16-.5-.13-.98-.24-1.4-.34.21-.98.61-2.17,1.14-3.6.45-1.61,1.09-3.41,1.96-5.37.34-.87.66-1.75.98-2.62.34-.87.71-1.75,1.16-2.62.63-1.72,1.19-2.94,1.61-3.57.66,1.08,1.4,2.3,2.22,3.65.79,1.38,1.64,2.86,2.51,4.5.87,1.64,1.8,3.36,2.78,5.16.98,1.77,2.01,3.7,3.1,5.79h-4.74ZM875.24,497.02c-.42-.11-1.19-.16-2.27-.16-2.51-3.81-4.79-7.83-6.85-12.09-.87-2.06-1.83-4.1-2.86-6.11-1.03-2.01-2.12-4.05-3.2-6.14-.32-.74-.16-1.3.5-1.61.63-.45,1.19-.29,1.64.48l14.52,25.64h-1.48ZM903.81,545.83c-.21.45-.37.71-.48.82-.87.56-1.48.4-1.8-.5l-11.27-17.62c-3.7-5.66-6.96-11.8-9.79-18.44.32.11.93.16,1.8.16.42-.11,1.03-.16,1.77-.16l19.6,34.92c.21.24.26.5.16.82Z"/>
      <path class="cls-10" d="M985.11,550.25c-.21-.11-.48-.21-.82-.34-.32-.11-.71-.21-1.14-.32-.42-.11-.87-.16-1.3-.16h-.98c-.56.21-1.38.16-2.46-.16-1.85-.87-2.99-2.88-3.44-6.06-.11-.42-.16-1.08-.16-1.96s-.05-2.01-.16-3.41c-.11-1.43-.16-2.99-.16-4.74v-5.87c-.11-2.06-.16-4.26-.16-6.53v-32.17c0-2.83.05-5.61.16-8.33.11-2.7.16-5.26.16-7.67s.11-4.84.32-7.01c0-2.17.08-4.13.19-5.87.11-1.75.26-3.39.48-4.89.11-2.72.4-4.47.82-5.24.77-1.3,1.69-2.01,2.78-2.12.98-.11,1.96-.37,2.94-.82,1.53-.87,2.28-1.51,2.28-1.96,0-1.19-1.08-1.8-3.25-1.8h-2.28c-.56.11-1.11.19-1.64.19h-1.8c-.56.11-1.14.16-1.8.16h-1.96c-.66.11-1.3.16-1.96.16h-3.76c-.77,0-1.69-.05-2.78-.16-1.08-.11-2.22-.16-3.41-.16-1.11,0-2.25-.13-3.44-.34-1.19,0-2.43-.05-3.68-.16-1.24-.11-2.46-.16-3.68-.16-1.19-.21-2.28-.34-3.25-.34h-2.78c-.56,0-1.08.03-1.64.11-.53.05-1.08.13-1.61.24-.98.21-1.48.58-1.48,1.14,0,.87.66,1.51,1.96,1.96.21.11.58.21,1.06.32.5.11,1.01.16,1.56.16,1.08.32,1.9.98,2.43,1.96.34.42.66,2.12.98,5.05.24,1.4.4,2.96.5,4.71.11,1.75.26,3.62.48,5.69.11,2.06.24,4.21.34,6.43.11,2.22.21,4.6.32,7.09.11,2.49.19,4.92.24,7.25.05,2.33.08,4.63.08,6.9s-.03,4.76-.08,7.41c-.05,2.67-.08,5.5-.08,8.55-.21,3.04-.34,6.03-.4,8.97-.05,2.91-.13,5.79-.24,8.6-.13,2.83-.24,5.42-.34,7.75-.11,2.33-.21,4.52-.32,6.59-.11,2.06-.21,3.62-.32,4.71-.13,1.08-.24,1.75-.34,1.96-.42.98-1.14,1.46-2.12,1.46-.56.24-1.08.34-1.64.34h-1.61c-1.11,0-1.8.29-2.14.87-.21.69-.32,1.22-.32,1.56,0,1.64.61,2.46,1.8,2.46.77,0,2.43-.16,5.05-.5,1.19-.11,2.54-.19,3.99-.24,1.48-.05,2.96-.08,4.5-.08h2.94c1.09,0,2.35.11,3.76.32,1.43,0,2.8.05,4.15.16,1.38.13,2.8.29,4.34.5,1.53.11,2.96.21,4.34.32,1.35.11,2.62.19,3.84.19,1.19.21,2.22.32,3.1.32h2.27c.98,0,1.8-.16,2.46-.5.64-.32.98-.77.98-1.3,0-.77-.24-1.14-.66-1.14ZM955.08,545.83c0,.77-.45,1.14-1.32,1.14s-1.3-.37-1.3-1.14v-95.35c0-.74.42-1.14,1.3-1.14s1.32.4,1.32,1.14v95.35Z"/>
      <path class="cls-14" d="M1098.89,516.94c.11-1.08.16-2.12.16-3.1v-11.43c0-2.2.34-3.76.98-4.74.45-.98,1.8-1.8,4.1-2.46.53-.11,1.14-.48,1.77-1.14.45-.42.66-.98.66-1.64,0-.53-.21-1.03-.66-1.46-.53-.34-1.24-.5-2.12-.5h-34.76c-2.62,0-3.92.56-3.92,1.64-.34,1.08.42,1.96,2.28,2.62.98.32,2.17.42,3.6.32,1.4-.11,2.78.26,4.07,1.14.87.77,1.48,1.59,1.8,2.46.32.98.5,1.9.5,2.78l-.5,32.14c0,2.3-.37,4.05-1.14,5.24-.87,1.3-2.83,1.96-5.87,1.96-8.07,0-15.13-1.59-21.22-4.74-5.9-3.04-10.95-7.2-15.19-12.41-4.15-5-7.25-10.87-9.31-17.65-2.06-6.51-3.1-13.31-3.1-20.4,0-5.21.82-10.11,2.43-14.68,1.64-4.68,3.92-8.7,6.85-12.09,2.83-3.25,6.38-5.93,10.61-7.99,4.05-1.96,8.55-2.94,13.57-2.94,3.25,0,6.96.98,11.08,2.94,3.92,1.96,7.67,4.23,11.27,6.85,1.85,1.3,3.54,2.62,5.05,3.92,1.53,1.3,2.99,2.57,4.42,3.76,2.62,2.51,4.34,4.23,5.21,5.21.87.98,1.75,1.59,2.62,1.8.98.24,1.75.11,2.3-.32.42-.32.74-.93.98-1.8.11-.77-.19-1.64-.82-2.62-.24-.32-.53-.74-.9-1.3-.4-.56-.79-1.24-1.22-2.12-.45-.87-.9-1.75-1.4-2.62-.48-.87-1.01-1.85-1.56-2.94-.53-1.08-1.08-2.14-1.61-3.17-.56-1.03-1.09-2.17-1.64-3.36-.56-1.19-1.06-2.3-1.56-3.33-.48-1.06-1.01-2.12-1.53-3.2-.56-1.08-1.01-2.06-1.4-2.94-.37-.87-.79-1.75-1.22-2.62-.42-.85-.77-1.56-.98-2.12-.21-.53-.42-.98-.66-1.3-.42-.87-1.03-1.64-1.8-2.3-.63-.32-1.3-.48-1.96-.48-.53.21-.98.61-1.3,1.14-.32.56-.32,1.27,0,2.12.11.87.37,1.8.82,2.78.32.77.37,1.43.16,1.96-.56.87-1.8,1.08-3.76.66-.42-.11-.9-.21-1.38-.32-.5-.11-1-.24-1.56-.34-.56-.11-1.3-.19-2.28-.24-.98-.05-2.25-.08-3.76-.08-7.51,0-15.5,1.08-24,3.25-8.07,2.09-15.53,5.56-22.38,10.45-6.75,4.79-12.3,11.01-16.64,18.62-4.26,7.72-6.38,16.93-6.38,27.59,0,7.17,1.14,13.92,3.44,20.24,2.28,6.43,5.56,11.96,9.79,16.64,4.13,4.79,9.26,8.65,15.34,11.59,6.22,2.83,12.96,4.26,20.24,4.26,1.64,0,3.31-.08,4.97-.24,1.69-.19,3.41-.48,5.16-.9,1.75-.34,3.39-.69,4.97-1.06,1.59-.4,3.12-.79,4.66-1.24,1.51-.42,2.91-.87,4.15-1.3,1.27-.42,2.49-.93,3.68-1.48,1.08-.42,2.01-.79,2.78-1.14.77-.32,1.35-.58,1.8-.82,2.06-1.08,4.18-2.06,6.38-2.94,1.08-.42,2.14-.82,3.17-1.14,1.03-.32,2.04-.66,3.02-.98.87-.21,1.75-.42,2.62-.66.87-.21,1.69-.42,2.43-.63,1.43-.34,2.62-.5,3.6-.5h3.28c.21.11.48.19.79.24.34.08.61.16.82.26,1.19.32,2.22.16,3.1-.5.77-.42.45-1.24-.98-2.43-.74-.56-1.56-.98-2.43-1.32-.87-.32-1.59-.77-2.12-1.3-.34-.45-.5-.93-.5-1.48v-15.66ZM1033.6,533.1c-4.79-4.02-8.7-8.6-11.75-13.73-1.53-2.49-2.86-5.08-3.94-7.75-1.08-2.65-2.01-5.34-2.78-8.07-1.3-5.34-1.96-10.24-1.96-14.68,0-2.3.4-5.29,1.16-8.99.87-4.02,2.33-7.72,4.39-11.11-1.19,3.17-1.96,6.38-2.27,9.66-.11,1.72-.19,3.28-.24,4.63-.08,1.38-.08,2.59-.08,3.68,0,5.77.69,11.27,2.12,16.51,1.3,5.32,3.36,10.5,6.19,15.5,1.43,2.38,3.04,4.68,4.89,6.85,1.85,2.17,3.86,4.31,6.06,6.38,4.23,3.81,9.58,7.12,15.98,9.95-6.96-1.75-12.88-4.68-17.78-8.81Z"/>
      <path class="cls-4" d="M1223.63,474.98c-2.3-6.43-5.61-12.14-9.97-17.14-4.34-5-9.68-8.97-15.98-11.9-6.22-2.94-13.28-4.42-21.24-4.42-6.3,0-13.17,1.08-20.56,3.25-7.3,2.2-13.89,5.56-19.76,10.13-5.98,4.58-10.93,10.5-14.84,17.8-3.94,7.38-5.9,16.16-5.9,26.27,0,7.2,1.38,14.05,4.1,20.58,2.59,6.64,6.35,12.46,11.24,17.46,2.41,2.51,5.05,4.76,7.94,6.77,2.88,2.01,6.06,3.78,9.55,5.32,6.64,2.94,14.13,4.39,22.51,4.39,5.13,0,10.13-.82,15.03-2.43,4.79-1.64,9.31-3.92,13.54-6.88,4.15-2.8,7.94-6.14,11.43-9.95,3.39-3.7,6.32-7.78,8.81-12.25,1.22-2.17,2.27-4.34,3.2-6.53.93-2.17,1.77-4.44,2.51-6.85,1.32-4.58,1.96-9.02,1.96-13.39,0-7.06-1.19-13.81-3.57-20.24ZM1164.37,535.06c-6.98-3.7-12.91-8.44-17.8-14.21-2.41-2.83-4.52-5.82-6.38-8.97-1.85-3.17-3.36-6.48-4.55-9.97-2.51-7.17-3.76-13.97-3.76-20.4,0-5.11.58-9.47,1.77-13.07,1.11-3.36,3.02-6.48,5.71-9.31-1.3,1.96-2.59,4.92-3.92,8.84-1.3,3.92-1.96,7.94-1.96,12.06,0,7.83,1.53,15.13,4.58,21.88,2.94,6.75,6.96,12.86,12.09,18.28,5.11,5.45,10.93,9.92,17.46,13.39,6.32,3.49,13.12,5.82,20.4,7.04-8.81,0-16.69-1.85-23.65-5.56ZM1205.83,530.01c-4.13,3.25-9.63,4.89-16.48,4.89-3.6,0-7.51-.77-11.77-2.3-1.96-.63-3.92-1.48-5.87-2.51-1.96-1.03-3.86-2.22-5.71-3.52-3.81-2.38-7.46-5.4-10.93-8.97-3.39-3.39-6.38-7.04-8.99-10.95-1.19-1.96-2.3-3.94-3.33-5.95-1.03-2.01-1.93-4.1-2.7-6.3-1.4-3.92-2.12-8.04-2.12-12.41s.37-8.04,1.14-11.43c.45-1.85.95-3.52,1.56-5.05.58-1.53,1.32-2.99,2.2-4.42.87-1.3,1.85-2.46,2.94-3.49,1.08-1.03,2.35-1.93,3.76-2.7,2.83-1.53,6.14-2.28,9.97-2.28,4.89,0,9.68,1.08,14.37,3.25,4.55,2.17,8.76,4.95,12.57,8.33,4.02,3.6,7.57,7.51,10.61,11.75,1.51,2.17,2.96,4.42,4.31,6.69,1.38,2.28,2.65,4.63,3.84,7.01,1.08,2.41,2.06,4.74,2.94,7.04.87,2.28,1.59,4.55,2.14,6.85,1.19,4.79,1.8,8.86,1.8,12.25,0,6.19-2.09,10.93-6.22,14.21Z"/>
      <path class="cls-15" d="M1345.56,443.47c-.87-.21-1.69-.32-2.43-.32h-1.48c-.42,0-.93.05-1.46.16-.45.11-.93.16-1.48.16h-4.07c-.56-.11-1.14-.16-1.8-.16h-1.64c-.53-.11-1.14-.16-1.8-.16h-1.61c-.56-.11-1.06-.16-1.48-.16h-.98c-1.64,0-2.99.13-4.07.45-1.08.08-1.64.58-1.64,1.48,0,.82.42,1.32,1.3,1.51,1.11.21,2.14.29,3.12.29,1.61,0,3.04.19,4.23.5,1.32.32,2.01,1.19,2.12,2.62.11.74.24,1.67.34,2.78.11,1.08.26,2.38.48,3.92.34,3.15.66,6.48.98,9.95.11,1.85.21,3.73.34,5.64.11,1.9.26,3.89.48,5.95.11,2.06.21,4.02.32,5.87.11,1.85.19,3.7.19,5.56.21,1.85.32,3.54.32,5.08v4.39c.11,2.72.11,4.63,0,5.71-2.17-1.51-4.5-3.28-6.93-5.29-2.46-2.04-5.11-4.29-7.94-6.8-5.53-4.89-11.19-10.21-16.96-15.98-2.94-2.94-5.79-5.87-8.57-8.81-2.78-2.96-5.48-5.85-8.1-8.68-2.49-2.83-4.81-5.45-6.93-7.91-2.12-2.43-3.99-4.63-5.64-6.59-.87-1.11-1.96-1.64-3.25-1.64h-28.1c-1.85,0-2.78.42-2.78,1.3,0,.56.29,1.08.82,1.64.45.42,1.03.64,1.8.64h2.62c.98-.11,1.75.11,2.28.66.66.56,1.08,1.3,1.32,2.28.11.45.21.93.32,1.48.11.53.16,1.19.16,1.96.21,2.38.32,5.11.32,8.15v10.29c.11,7.62-.05,15.69-.48,24.15-.21,4.58-.48,8.97-.74,13.15-.26,4.21-.56,8.2-.9,12.01-.21,3.81-.56,7.62-1.06,11.43-.48,3.81-1.06,7.62-1.72,11.43-.11.42-.26.85-.48,1.22-.24.37-.45.79-.66,1.22-.42.77-1.03,1.16-1.8,1.16-.53,0-1.46.26-2.78.79-.98.56-1.45,1.27-1.45,2.14,0,.53.21.98.63,1.3.45.21.82.32,1.16.32h1.3c.66,0,1.4-.05,2.28-.16.87-.11,1.75-.16,2.62-.16h6.85c.87.11,1.69.16,2.46.16.87,0,1.75.05,2.62.16.85.11,1.61.16,2.28.16h2.28c.77.13,1.38.19,1.8.19h.98c.56,0,1.27-.13,2.14-.34.63-.11.98-.69.98-1.69,0-1.46-1.06-2.35-3.12-2.7-.32-.11-.93-.16-1.8-.16-.42.11-1.14.16-2.12.16h-1.96c-.66-.24-1.03-.45-1.14-.66-.45-.53-.66-1.3-.66-2.28.11-.45.13-.98.08-1.64-.05-.63-.13-1.4-.24-2.28-.21-1.85-.4-3.89-.58-6.11-.16-2.22-.34-4.76-.56-7.59-.21-2.8-.4-5.66-.5-8.55-.11-2.88-.16-5.85-.16-8.89-.21-3.04-.32-6.03-.32-8.97s.05-6.03.16-8.97c.11-2.8.21-5.45.32-7.88.11-2.46.29-4.71.5-6.77,2.62,1.51,6.69,4.79,12.25,9.79,2.83,2.49,6.01,5.32,9.55,8.47,3.52,3.15,7.54,6.64,11.98,10.42,7.2,6.19,14.15,12.67,20.9,19.39,3.39,3.28,6.51,6.32,9.39,9.15,2.88,2.8,5.48,5.48,7.75,7.96,1.4,1.53,2.65,2.83,3.68,3.92,1.03,1.08,1.93,2.01,2.7,2.78.74.77,1.38,1.43,1.88,1.96.48.56.9.93,1.22,1.14,1.08.87,2.06,1.38,2.94,1.48.66.11.93-.56.82-1.96-.21-2.17-.34-4.81-.4-7.91-.08-3.1-.05-6.72.08-10.85.11-4.13.19-8.68.24-13.68.05-5,.19-10.5.4-16.48.11-2.83.16-5.58.16-8.31s.11-5.61.34-8.31c0-2.72.03-5.32.08-7.75.05-2.43.13-4.76.24-6.93.11-2.17.16-4.13.16-5.87v-5.05c.11-1.4.16-2.54.16-3.41v-1.64c0-1.93.24-3.57.66-4.87.45-1.43,1.08-2.41,1.96-2.94.45-.21.85-.45,1.24-.66.37-.21.66-.42.87-.66.56-.32.82-.74.82-1.3s-.32-.93-.98-1.14ZM1334.64,515.3c-.56.56-1.09.61-1.64.16l-72.49-65.13c-.63-.53-.63-1.14,0-1.8.56-.53,1.08-.58,1.64-.16l72.49,65.32c.66.42.66.98,0,1.61Z"/>
      <path class="cls-5" d="M1505.73,443.63c-.87-.21-1.64-.32-2.3-.32h-13.86c-1.19,0-2.35.16-3.44.48-1.08.13-1.61.66-1.61,1.64,0,.87.16,1.38.48,1.48.11.11.26.19.5.24.21.05.42.19.63.4.21.24.5.42.82.58s.61.34.82.58c.42.42.48,1.14.16,2.12l-17.3,57.46c-.21.56-.37,1.01-.48,1.38-.13.4-.29.79-.5,1.24-.32.64-.87.98-1.64.98-.63,0-1.19-.34-1.61-.98-.45-.45-.93-1.22-1.48-2.3l-32.49-56.48c-.21-.32-.42-.69-.66-1.06-.21-.37-.42-.79-.63-1.22-.34-.77-.11-1.38.63-1.8.45-.21.9-.45,1.4-.66.48-.21,1-.42,1.53-.66,1.11-.42,1.64-1.03,1.64-1.77s-.32-1.48-.98-2.14c-.56-.63-1.24-.98-2.12-.98-1.75,0-3.7.29-5.87.82-1.08.21-2.83.34-5.24.34h-19.92c-.74,0-1.51-.08-2.28-.19-.87-.11-1.64-.16-2.28-.16-.56,0-1.11-.05-1.64-.16-.77-.11-1.53-.05-2.28.16-.34.11-.66.21-.98.34-.34.11-.71.26-1.16.48-.63.21-.98.71-.98,1.48,0,.63.34,1.35.98,2.12.45.87,1.08,1.69,1.96,2.43.87.98,1.83,2.2,2.86,3.6,1.03,1.43,2.17,3.04,3.36,4.89,1.19,1.85,2.43,3.81,3.76,5.87,1.3,2.09,2.72,4.37,4.23,6.88,1.43,2.38,2.88,4.89,4.42,7.49,1.51,2.62,3.1,5.34,4.74,8.17,1.64,2.83,3.28,5.64,4.97,8.41,1.69,2.78,3.41,5.58,5.13,8.41,1.53,2.59,3.04,5.08,4.5,7.41,1.48,2.35,2.8,4.55,3.99,6.61,2.41,4.15,4.68,7.91,6.85,11.27,1,1.64,1.9,3.2,2.78,4.74.87,1.53,1.75,2.99,2.62,4.42.87,1.4,1.67,2.78,2.38,4.07.69,1.3,1.38,2.62,2.04,3.92.42.87.85,1.75,1.22,2.62.37.87.69,1.69.9,2.43.53,1.53,1.35,2.3,2.46,2.3,1.51,0,2.38-.66,2.59-1.96.11-.66.26-1.4.5-2.22.21-.82.42-1.64.64-2.51.45-1.85,1.43-4.68,2.96-8.49.74-1.85,1.51-3.73,2.28-5.64.77-1.9,1.59-3.84,2.43-5.79.87-1.96,1.72-3.86,2.54-5.71.82-1.85,1.61-3.65,2.38-5.4.74-1.75,1.4-3.23,1.96-4.47.53-1.27.98-2.28,1.3-3.04.21-.42.45-1.01.74-1.69.26-.71.61-1.61,1.06-2.7.42-1.08.87-2.22,1.3-3.36.45-1.14.93-2.41,1.48-3.84.53-1.3,1.08-2.7,1.64-4.15.53-1.48,1.08-2.96,1.61-4.5.56-1.51,1.14-3.04,1.8-4.58.66-1.51,1.24-3.04,1.8-4.55,1.08-2.62,2.04-5,2.86-7.12.82-2.12,1.61-4.05,2.35-5.79.66-1.75,1.27-3.25,1.8-4.58.56-1.3.98-2.38,1.32-3.25,1.08-2.72,1.91-4.63,2.43-5.71.56-1.19,1.32-2.12,2.3-2.78.53-.32,1.01-.63,1.38-.9.37-.26.74-.45,1.06-.58.34-.11.66-.21.98-.32.34-.11.61-.21.82-.32.77-.21,1.19-.56,1.3-.98.24-.45.34-.87.34-1.32,0-.53-.34-.93-.98-1.14ZM1464.59,518.58c-.77.32-1.32.21-1.64-.34l-41.3-67.41c-.45-.56-.34-1.08.32-1.64.66-.32,1.24-.21,1.8.32l41.14,67.43c.42.56.32,1.08-.32,1.64Z"/>
      <path class="cls-2" d="M1561.55,550.25c-.21-.11-.48-.21-.82-.34-.32-.11-.71-.21-1.14-.32-.42-.11-.87-.16-1.3-.16h-.98c-.56.21-1.38.16-2.46-.16-1.85-.87-2.99-2.88-3.41-6.06-.13-.42-.19-1.08-.19-1.96s-.05-2.01-.16-3.41c-.11-1.43-.16-2.99-.16-4.74v-5.87c-.11-2.06-.16-4.26-.16-6.53v-32.17c0-2.83.05-5.61.16-8.33.11-2.7.16-5.26.16-7.67s.11-4.84.34-7.01c0-2.17.05-4.13.16-5.87.11-1.75.26-3.39.48-4.89.11-2.72.4-4.47.82-5.24.77-1.3,1.69-2.01,2.78-2.12.98-.11,1.96-.37,2.94-.82,1.53-.87,2.3-1.51,2.3-1.96,0-1.19-1.11-1.8-3.28-1.8h-2.28c-.56.11-1.08.19-1.64.19h-1.8c-.56.11-1.14.16-1.8.16h-1.96c-.66.11-1.3.16-1.96.16h-3.76c-.77,0-1.69-.05-2.78-.16-1.09-.11-2.22-.16-3.41-.16-1.11,0-2.25-.13-3.44-.34-1.19,0-2.43-.05-3.68-.16-1.24-.11-2.46-.16-3.68-.16-1.19-.21-2.28-.34-3.25-.34h-2.78c-.56,0-1.08.03-1.64.11-.53.05-1.08.13-1.61.24-.98.21-1.48.58-1.48,1.14,0,.87.66,1.51,1.96,1.96.21.11.58.21,1.06.32.5.11,1,.16,1.56.16,1.08.32,1.9.98,2.43,1.96.34.42.66,2.12.98,5.05.24,1.4.4,2.96.5,4.71.11,1.75.26,3.62.5,5.69.11,2.06.21,4.21.32,6.43.11,2.22.21,4.6.32,7.09.11,2.49.19,4.92.24,7.25.05,2.33.11,4.63.11,6.9s-.05,4.76-.11,7.41c-.05,2.67-.08,5.5-.08,8.55-.21,3.04-.34,6.03-.4,8.97-.05,2.91-.13,5.79-.24,8.6-.11,2.83-.24,5.42-.34,7.75s-.21,4.52-.32,6.59c-.11,2.06-.21,3.62-.32,4.71-.11,1.08-.24,1.75-.34,1.96-.42.98-1.14,1.46-2.12,1.46-.56.24-1.08.34-1.64.34h-1.61c-1.09,0-1.8.29-2.14.87-.21.69-.32,1.22-.32,1.56,0,1.64.61,2.46,1.8,2.46.77,0,2.46-.16,5.05-.5,1.22-.11,2.54-.19,3.99-.24,1.48-.05,2.99-.08,4.5-.08h2.94c1.08,0,2.35.11,3.76.32,1.43,0,2.8.05,4.18.16,1.35.13,2.78.29,4.31.5,1.53.11,2.96.21,4.34.32,1.35.11,2.62.19,3.84.19,1.19.21,2.22.32,3.1.32h2.28c.98,0,1.8-.16,2.46-.5.66-.32.98-.77.98-1.3,0-.77-.21-1.14-.66-1.14ZM1531.52,545.83c0,.77-.45,1.14-1.32,1.14s-1.3-.37-1.3-1.14v-95.35c0-.74.42-1.14,1.3-1.14s1.32.4,1.32,1.14v95.35Z"/>
      <path class="cls-11" d="M1664.25,530.8c-.24-.32-.56-.48-.98-.48-.34-.11-.93.11-1.8.66-.77.53-1.53,1.11-2.3,1.69-.77.61-1.51,1.19-2.28,1.72-.77.56-1.48,1.03-2.12,1.48-.66.42-1.43.93-2.3,1.46-.53.34-1.24.71-2.12,1.14-.87.45-1.85.93-2.94,1.48-1.08.56-2.28,1.06-3.6,1.56-1.3.48-2.72,1.01-4.23,1.53-1.53.56-3.07,1.01-4.66,1.4-1.59.37-3.31.79-5.13,1.22-3.6.66-7.35.98-11.27.98-1.53,0-2.67-.16-3.44-.5-.77-.11-1.3-.74-1.64-1.96-.21-.85-.42-1.83-.63-2.94-.21-1.08-.4-2.38-.5-3.92-.21-3.15-.37-6.46-.48-9.95-.11-1.85-.16-3.7-.16-5.56v-17.62c0-2.83-.03-5.71-.08-8.68-.08-2.94-.11-5.79-.11-8.65.11-2.8.19-5.53.19-8.15v-7.51c.11-2.38.16-4.58.16-6.53s.05-3.7.16-5.21c.11-1.53.16-2.78.16-3.76v-1.96c0-.66.05-1.35.16-2.04.11-.71.29-1.46.5-2.22.32-1.51,1.3-2.43,2.94-2.78,1.08-.21,2.22-.42,3.41-.64,1.22-.21,2.41-.45,3.6-.66,2.62-.32,4.63-.98,6.06-1.96,1.51-.98,2.06-1.9,1.61-2.78-.53-.87-1.4-1.3-2.62-1.3-.64,0-1.19.16-1.61.48-.21.11-.53.24-.9.34-.4.11-.79.21-1.22.32-.45.11-1.11.21-1.96.32-.87.11-1.9.29-3.12.5-1.19.21-2.51.4-3.99.56-1.46.19-3.02.37-4.66.58-3.25.32-6.69.66-10.29.98-1.85.11-3.54.19-5.13.24-1.59.05-3.12.08-4.66.08h-3.6c-1.08,0-2.12-.11-3.1-.32-.98,0-1.88-.05-2.7-.16-.79-.11-1.53-.21-2.2-.32-.56-.13-1.03-.24-1.46-.34-.45-.11-.77-.16-.98-.16-.34-.21-.82-.32-1.48-.32-.42,0-.87.21-1.3.63-.34.56-.5.93-.5,1.14,0,1.11.82,1.88,2.46,2.3,1.4.56,2.59,1.24,3.57,2.12.87.87,1.53,2.3,1.96,4.26.24.87.42,1.88.58,3.02.16,1.14.34,2.46.58,3.99.21,1.53.37,3.15.48,4.89.11,1.75.26,3.65.5,5.71.11,2.06.21,4.18.32,6.38.11,2.17.21,4.44.32,6.85.11,2.38.21,4.79.26,7.17.05,2.41.08,4.87.08,7.35v15.03c-.11,2.49-.16,4.89-.16,7.17v6.53c-.13,2.06-.19,4.02-.19,5.87v5.08c-.11,1.51-.16,2.88-.16,4.07,0,1.08-.05,2.01-.16,2.78-.87,1.51-1.59,2.51-2.12,2.94-.21.21-.53.48-.9.82-.4.32-.79.64-1.22.98-.98.64-1.32,1.56-.98,2.78.11,1.08,1.03,1.46,2.75,1.14.45-.11.98-.21,1.64-.32.66-.13,1.43-.24,2.3-.34.85-.11,1.75-.21,2.67-.32.93-.11,1.93-.21,3.04-.34,1.08-.11,2.17-.19,3.25-.24,1.08-.05,2.22-.13,3.44-.24,1.19-.11,2.33-.16,3.41-.16h3.6c2.17,0,4.63.08,7.35.24,2.7.16,5.63.34,8.81.58,3.15.21,6.27.45,9.39.71,3.1.29,6.22.53,9.37.74.56.11,1.16.16,1.8.16h1.96c1.22.11,1.96.77,2.3,1.96.32,1.22.77,2.09,1.3,2.62.32.56,1.03,0,2.12-1.64l15.34-22.83c.34-.45.5-.93.5-1.48,0-.32-.11-.82-.32-1.48ZM1591.26,545.67c0,.77-.37,1.14-1.14,1.14-.87,0-1.3-.37-1.3-1.14v-95.35c0-.77.42-1.14,1.3-1.14.77,0,1.14.37,1.14,1.14v95.35Z"/>
      <path class="cls-1" d="M1763.98,530.8c-.21-.32-.56-.48-.98-.48-.32-.11-.93.11-1.8.66-.77.53-1.53,1.11-2.28,1.69-.77.61-1.53,1.19-2.3,1.72-.77.56-1.45,1.03-2.12,1.48-.66.42-1.4.93-2.28,1.46-.56.34-1.27.71-2.14,1.14-.87.45-1.85.93-2.94,1.48-1.08.56-2.28,1.06-3.57,1.56-1.32.48-2.72,1.01-4.26,1.53-1.53.56-3.07,1.01-4.66,1.4-1.56.37-3.28.79-5.13,1.22-3.6.66-7.35.98-11.27.98-1.53,0-2.67-.16-3.41-.5-.77-.11-1.32-.74-1.64-1.96-.21-.85-.45-1.83-.66-2.94-.21-1.08-.37-2.38-.48-3.92-.24-3.15-.4-6.46-.5-9.95-.11-1.85-.16-3.7-.16-5.56v-17.62c0-2.83-.03-5.71-.08-8.68-.05-2.94-.08-5.79-.08-8.65.11-2.8.16-5.53.16-8.15v-7.51c.11-2.38.16-4.58.16-6.53s.05-3.7.16-5.21c.11-1.53.16-2.78.16-3.76v-1.96c0-.66.05-1.35.19-2.04.11-.71.26-1.46.48-2.22.32-1.51,1.3-2.43,2.94-2.78,1.08-.21,2.22-.42,3.44-.64,1.19-.21,2.38-.45,3.6-.66,2.59-.32,4.6-.98,6.03-1.96,1.51-.98,2.06-1.9,1.64-2.78-.56-.87-1.43-1.3-2.62-1.3-.66,0-1.19.16-1.64.48-.21.11-.5.24-.9.34-.37.11-.79.21-1.22.32-.45.11-1.08.21-1.96.32-.87.11-1.9.29-3.1.5-1.22.21-2.54.4-4.02.56-1.46.19-3.02.37-4.63.58-3.28.32-6.69.66-10.29.98-1.85.11-3.57.19-5.16.24-1.56.05-3.12.08-4.63.08h-3.6c-1.08,0-2.12-.11-3.1-.32-.98,0-1.88-.05-2.7-.16-.82-.11-1.56-.21-2.22-.32-.53-.13-1.03-.24-1.46-.34-.45-.11-.77-.16-.98-.16-.32-.21-.82-.32-1.48-.32-.42,0-.87.21-1.3.63-.32.56-.5.93-.5,1.14,0,1.11.82,1.88,2.46,2.3,1.4.56,2.62,1.24,3.6,2.12.87.87,1.51,2.3,1.96,4.26.21.87.4,1.88.56,3.02.19,1.14.37,2.46.58,3.99.21,1.53.37,3.15.5,4.89.11,1.75.26,3.65.48,5.71.11,2.06.21,4.18.32,6.38.11,2.17.24,4.44.34,6.85.11,2.38.19,4.79.24,7.17.05,2.41.08,4.87.08,7.35v15.03c-.11,2.49-.16,4.89-.16,7.17v6.53c-.11,2.06-.16,4.02-.16,5.87v5.08c-.11,1.51-.16,2.88-.16,4.07,0,1.08-.08,2.01-.19,2.78-.87,1.51-1.56,2.51-2.12,2.94-.21.21-.5.48-.9.82-.37.32-.79.64-1.22.98-.98.64-1.3,1.56-.98,2.78.11,1.08,1.03,1.46,2.78,1.14.42-.11.98-.21,1.64-.32.63-.13,1.4-.24,2.28-.34.87-.11,1.77-.21,2.7-.32.93-.11,1.93-.21,3.02-.34,1.08-.11,2.17-.19,3.25-.24,1.08-.05,2.25-.13,3.44-.24,1.19-.11,2.33-.16,3.41-.16h3.6c2.17,0,4.63.08,7.35.24,2.72.16,5.66.34,8.81.58,3.15.21,6.3.45,9.39.71,3.1.29,6.22.53,9.39.74.53.11,1.14.16,1.8.16h1.96c1.19.11,1.96.77,2.28,1.96.32,1.22.77,2.09,1.3,2.62.34.56,1.06,0,2.14-1.64l15.34-22.83c.32-.45.48-.93.48-1.48,0-.32-.11-.82-.32-1.48ZM1691.02,545.67c0,.77-.4,1.14-1.16,1.14-.87,0-1.3-.37-1.3-1.14v-95.35c0-.77.42-1.14,1.3-1.14.77,0,1.16.37,1.16,1.14v95.35Z"/>
      <path class="cls-17" d="M1883.48,547.63c-.21-.42-.53-.87-.9-1.3-.37-.45-.79-.93-1.22-1.48-1.75-2.28-3.81-5.5-6.22-9.63-1.19-2.06-2.43-4.21-3.76-6.46-1.3-2.22-2.65-4.52-4.07-6.93-1.3-2.38-2.62-4.76-3.92-7.09-1.3-2.35-2.57-4.71-3.76-7.12-1.19-2.28-2.33-4.39-3.44-6.38-1.08-1.96-2.06-3.68-2.94-5.21-.53-1.08-1.16-2.28-1.88-3.6-.69-1.3-1.48-2.7-2.35-4.23-.87-1.53-1.77-3.12-2.7-4.81-.93-1.69-1.88-3.47-2.86-5.32-.87-1.85-1.8-3.68-2.78-5.45-.98-1.8-2.01-3.62-3.1-5.48-1.96-3.7-3.76-7.14-5.4-10.29-.87-1.53-1.64-2.96-2.35-4.34-.71-1.35-1.35-2.62-1.88-3.81-.56-1.11-1.01-2.01-1.4-2.7-.37-.71-.66-1.3-.87-1.72-.77-1.75-1.59-2.62-2.46-2.62-.87-.21-1.64.5-2.28,2.12-.24.34-.53.9-.9,1.72-.4.82-.85,1.88-1.4,3.2-.53,1.3-1.19,2.75-1.96,4.39-.77,1.64-1.59,3.39-2.43,5.24-.87,1.85-1.77,3.81-2.7,5.87-.93,2.06-1.93,4.23-3.02,6.53-1.11,2.17-2.14,4.39-3.12,6.69-.98,2.28-2.01,4.55-3.1,6.85-1.08,2.28-2.12,4.5-3.1,6.69-.98,2.17-1.96,4.34-2.94,6.53-.87,2.17-1.72,4.15-2.54,5.95-.82,1.8-1.61,3.44-2.35,4.97l-6.38,13.7c-1.09,2.3-2.14,4.47-3.17,6.53-1.06,2.06-2.06,4.02-3.04,5.87-.87,1.85-1.69,3.52-2.51,5-.82,1.46-1.56,2.8-2.2,3.99-1.32,2.49-2.14,3.81-2.46,3.92-1.3.87-1.96,1.85-1.96,2.94,0,1.19.58,1.8,1.8,1.8.74,0,2.12-.16,4.07-.5.98-.11,1.83-.19,2.54-.24.69-.05,1.27-.08,1.69-.08.45,0,.93.03,1.48.08.56.05,1.24.13,2.12.24.87.11,1.59.19,2.12.26.56.05,1.06.08,1.48.08.77,0,1.4-.34,1.96-.98.42-.56.66-1.03.66-1.48,0-.42-.71-.87-2.12-1.3-1.53-.56-2.09-1.75-1.64-3.6.11-.42.29-1.08.56-1.96.29-.87.63-1.96,1.08-3.28.42-1.3.9-2.67,1.46-4.15.56-1.46,1.14-3.02,1.8-4.66.53-1.61,1.14-3.28,1.8-4.97.66-1.69,1.3-3.39,1.96-5.13.66-1.75,1.3-3.36,1.96-4.81.66-1.48,1.24-2.8,1.8-4.02.66-.42,2.12-.79,4.39-1.14,1.08-.11,2.22-.21,3.36-.32,1.14-.11,2.41-.16,3.84-.16,1.4-.21,2.83-.34,4.23-.34h4.58c3.15-.21,6.38-.21,9.63,0,1.53,2.94,2.99,5.9,4.42,8.84,1.4,2.94,2.83,5.87,4.23,8.81,1.32,2.83,2.59,5.58,3.84,8.23,1.27,2.67,2.43,5.26,3.52,7.78.42,1.08.66,1.85.66,2.28.21.66.21,1.24,0,1.8-.34.53-.82.82-1.48.82-.77,0-1.3.05-1.64.16-.21.11-.45.21-.71.32-.29.11-.53.16-.74.16-.45.34-.66.77-.66,1.32,0,.77.45,1.3,1.32,1.61.42.13.85.21,1.3.26.42.05.93.08,1.46.08h1.32c.66,0,1.45-.05,2.43-.16.87-.13,1.8-.19,2.78-.19,1.08,0,2.25-.11,3.44-.32,1.19,0,2.3-.03,3.33-.08,1.03-.05,2.12-.13,3.2-.24.98-.11,1.8-.16,2.43-.16h5.4c.87.11,1.8.16,2.78.16s2.01.05,3.1.16c.98.11,1.9.16,2.78.16h2.78c.87.11,1.51.16,1.96.16h.98c1.19,0,1.8-.69,1.8-2.12.11-.42-.16-1.08-.82-1.96ZM1817.21,497.52c-.87-.11-1.75-.19-2.62-.19-.77,0-1.59-.05-2.46-.16-.87-.11-1.69-.16-2.43-.16-.66,0-1.38-.11-2.12-.32-.66,0-1.24-.05-1.72-.16-.5-.13-.95-.24-1.4-.34.21-.98.61-2.17,1.16-3.6.42-1.61,1.08-3.41,1.96-5.37.32-.87.63-1.75.98-2.62.32-.87.69-1.75,1.14-2.62.63-1.72,1.19-2.94,1.61-3.57.66,1.08,1.4,2.3,2.22,3.65.82,1.38,1.64,2.86,2.51,4.5.87,1.64,1.8,3.36,2.78,5.16.98,1.77,2.01,3.7,3.12,5.79h-4.74ZM1829.43,497.02c-.42-.11-1.19-.16-2.28-.16-2.51-3.81-4.79-7.83-6.85-12.09-.87-2.06-1.83-4.1-2.86-6.11-1.03-2.01-2.09-4.05-3.17-6.14-.34-.74-.19-1.3.48-1.61.66-.45,1.19-.29,1.64.48l14.52,25.64h-1.48ZM1858.01,545.83c-.21.45-.37.71-.48.82-.87.56-1.48.4-1.8-.5l-11.27-17.62c-3.7-5.66-6.96-11.8-9.79-18.44.32.11.93.16,1.8.16.42-.11,1.03-.16,1.8-.16l19.58,34.92c.21.24.26.5.16.82Z"/>
      <path class="cls-12" d="M1988.46,516.94c.11-1.08.16-2.12.16-3.1v-11.43c0-2.2.32-3.76.98-4.74.42-.98,1.8-1.8,4.07-2.46.56-.11,1.16-.48,1.8-1.14.45-.42.66-.98.66-1.64,0-.53-.21-1.03-.66-1.46-.53-.34-1.24-.5-2.12-.5h-34.76c-2.62,0-3.94.56-3.94,1.64-.32,1.08.45,1.96,2.3,2.62.98.32,2.17.42,3.6.32,1.4-.11,2.78.26,4.07,1.14.87.77,1.46,1.59,1.8,2.46.32.98.48,1.9.48,2.78l-.48,32.14c0,2.3-.4,4.05-1.14,5.24-.87,1.3-2.83,1.96-5.9,1.96-8.04,0-15.11-1.59-21.22-4.74-5.87-3.04-10.93-7.2-15.19-12.41-4.13-5-7.22-10.87-9.29-17.65-2.09-6.51-3.12-13.31-3.12-20.4,0-5.21.82-10.11,2.46-14.68,1.64-4.68,3.92-8.7,6.85-12.09,2.83-3.25,6.38-5.93,10.61-7.99,4.02-1.96,8.55-2.94,13.54-2.94,3.28,0,6.98.98,11.11,2.94,3.92,1.96,7.67,4.23,11.27,6.85,1.85,1.3,3.52,2.62,5.05,3.92,1.53,1.3,2.99,2.57,4.42,3.76,2.59,2.51,4.34,4.23,5.21,5.21.87.98,1.75,1.59,2.62,1.8.98.24,1.75.11,2.28-.32.45-.32.77-.93.98-1.8.11-.77-.16-1.64-.82-2.62-.21-.32-.5-.74-.87-1.3-.4-.56-.79-1.24-1.24-2.12-.42-.87-.9-1.75-1.38-2.62-.5-.87-1.01-1.85-1.56-2.94-.53-1.08-1.08-2.14-1.64-3.17-.53-1.03-1.09-2.17-1.61-3.36-.56-1.19-1.06-2.3-1.56-3.33-.48-1.06-1.01-2.12-1.53-3.2-.56-1.08-1.03-2.06-1.4-2.94-.37-.87-.79-1.75-1.22-2.62-.45-.85-.77-1.56-.98-2.12-.24-.53-.45-.98-.66-1.3-.42-.87-1.03-1.64-1.8-2.3-.66-.32-1.3-.48-1.96-.48-.56.21-.98.61-1.3,1.14-.34.56-.34,1.27,0,2.12.11.87.37,1.8.82,2.78.32.77.37,1.43.16,1.96-.56.87-1.8,1.08-3.76.66-.45-.11-.9-.21-1.4-.32-.48-.11-1-.24-1.53-.34-.56-.11-1.32-.19-2.3-.24-.98-.05-2.22-.08-3.76-.08-7.49,0-15.5,1.08-24,3.25-8.04,2.09-15.5,5.56-22.35,10.45-6.75,4.79-12.3,11.01-16.67,18.62-4.23,7.72-6.35,16.93-6.35,27.59,0,7.17,1.14,13.92,3.41,20.24,2.3,6.43,5.56,11.96,9.81,16.64,4.13,4.79,9.23,8.65,15.34,11.59,6.19,2.83,12.94,4.26,20.24,4.26,1.64,0,3.28-.08,4.97-.24,1.69-.19,3.41-.48,5.16-.9,1.72-.34,3.39-.69,4.97-1.06,1.56-.4,3.12-.79,4.66-1.24,1.51-.42,2.91-.87,4.15-1.3,1.24-.42,2.46-.93,3.68-1.48,1.08-.42,2.01-.79,2.78-1.14.74-.32,1.35-.58,1.8-.82,2.06-1.08,4.18-2.06,6.35-2.94,1.08-.42,2.14-.82,3.2-1.14,1.03-.32,2.04-.66,3.02-.98.87-.21,1.72-.42,2.59-.66.87-.21,1.69-.42,2.46-.63,1.4-.34,2.62-.5,3.6-.5h3.25c.21.11.5.19.82.24.32.08.61.16.82.26,1.19.32,2.22.16,3.1-.5.77-.42.45-1.24-.98-2.43-.77-.56-1.59-.98-2.43-1.32-.87-.32-1.59-.77-2.14-1.3-.32-.45-.48-.93-.48-1.48v-15.66ZM1923.14,533.1c-4.79-4.02-8.7-8.6-11.75-13.73-1.51-2.49-2.83-5.08-3.92-7.75-1.08-2.65-2.01-5.34-2.78-8.07-1.3-5.34-1.96-10.24-1.96-14.68,0-2.3.4-5.29,1.14-8.99.87-4.02,2.35-7.72,4.42-11.11-1.19,3.17-1.96,6.38-2.27,9.66-.13,1.72-.21,3.28-.26,4.63-.05,1.38-.08,2.59-.08,3.68,0,5.77.71,11.27,2.12,16.51,1.32,5.32,3.39,10.5,6.22,15.5,1.4,2.38,3.04,4.68,4.89,6.85,1.85,2.17,3.86,4.31,6.03,6.38,4.26,3.81,9.58,7.12,16.01,9.95-6.96-1.75-12.88-4.68-17.8-8.81Z"/>
      <path class="cls-19" d="M2041.5,471.54c.11-1.4.19-2.7.19-3.92s.05-2.33.16-3.41c.11-1.08.16-2.01.16-2.78,0-.87.05-1.69.16-2.46.11-1.3.26-2.43.5-3.41.21-.66.4-1.32.56-1.96.16-.66.34-1.27.58-1.8.42-1.08,1.4-1.59,2.94-1.48,6.43.56,12.67,1.75,18.76,3.6,6.22,1.75,12.3,5.29,18.31,10.61.74.77,1.46,1.19,2.12,1.3.77.24,1.3.29,1.64.19.42-.11.63-.4.63-.82,0-.34-.32-.93-.98-1.8-2.83-3.04-4.79-5.66-5.87-7.83-.56-.98-1.11-1.96-1.72-2.94-.58-.98-1.16-2.04-1.72-3.12-.21-.53-.48-1.11-.79-1.69-.34-.61-.66-1.3-.98-2.06-.24-.74-.5-1.48-.82-2.2-.34-.71-.61-1.48-.82-2.35l-1.48-4.42c-.21-.66-.37-1.24-.48-1.8-.11-.53-.26-1.03-.5-1.46-.53-1.64-1.3-2.3-2.28-1.96-.87.21-1.19,1.08-.98,2.59.11.77.19,1.48.24,2.12.05.66.08,1.27.08,1.8,0,1.11-.26,2.09-.82,2.94-.11.24-1.51.61-4.23,1.16-2.62.32-5.71.63-9.31.98-1.85.21-3.7.37-5.56.48-1.85.11-3.76.21-5.71.32-1.96.13-3.78.21-5.45.26-1.69.05-3.31.08-4.81.08h-5.08c-.98-.11-1.96-.16-2.94-.16s-1.96-.11-2.94-.34c-.98,0-1.93-.03-2.86-.08-.93-.05-1.83-.13-2.7-.24-1.72-.21-2.99-.37-3.76-.48-.85-.24-1.69-.37-2.51-.42-.82-.05-1.51-.03-2.04.08-1.08.11-1.64.56-1.64,1.3s.21,1.38.66,1.8c.32.45,1.08.87,2.28,1.32.98.32,1.75,1.3,2.28,2.94.45,1.64.77,3.25.98,4.89.13,1.08.24,2.25.34,3.52.11,1.24.26,2.62.48,4.15.24,1.53.4,3.1.5,4.74.11,1.64.26,3.39.48,5.21.11,1.85.24,3.7.34,5.56.11,1.85.16,3.81.16,5.87.21,1.96.32,3.92.32,5.9v5.87c0,1.96-.03,4.07-.08,6.35-.05,2.3-.08,4.68-.08,7.2-.21,2.51-.34,5-.4,7.51-.08,2.49-.21,4.95-.42,7.33-.11,2.41-.21,4.63-.32,6.69-.11,2.09-.26,4.05-.5,5.9-.21,3.81-.37,6.24-.48,7.33-.11.56-.4,1.27-.82,2.12-.32.66-.82,1.16-1.48,1.48-1.85.87-2.75,1.85-2.75,2.94-.13.98.79,1.35,2.75,1.14.56-.11,1.22-.16,1.96-.16.87,0,1.85-.11,2.96-.32,1.08,0,2.2-.03,3.33-.08,1.14-.05,2.3-.13,3.52-.26,1.19-.11,2.38-.16,3.57-.16,1.32,0,2.57-.05,3.76-.16,1.22-.11,2.35-.16,3.44-.16h6.03c1.22,0,2.51.05,3.92.16,1.43.11,2.78.16,4.1.16,1.4,0,2.83.05,4.23.16,1.43.13,2.72.19,3.92.19s2.41.05,3.6.16c1.08.11,2.01.16,2.78.16s1.35.05,1.8.16c.87.11,1.64.19,2.35.24.71.05,1.45.08,2.22.08,1.3.24,1.96,1.06,1.96,2.46,0,.77-.24,1.35-.66,1.8-.56.53-.71,1.24-.5,2.12.24.87.71,1.3,1.48,1.3.42,0,.93-.16,1.45-.48.45-.42.71-.82.82-1.14.11-.34.93-1.69,2.46-4.07.66-1.22,1.38-2.38,2.2-3.52.82-1.14,1.67-2.38,2.54-3.68,3.25-4.68,5.61-7.72,7.01-9.15.66-.64.82-1.24.5-1.77-.34-.45-.98-.45-1.96,0-1.22.53-2.51,1.11-3.92,1.69-1.43.61-3.02,1.19-4.74,1.72-3.6,1.19-7.14,2.2-10.64,2.94-1.83.45-3.62.85-5.37,1.24-1.75.37-3.54.71-5.4,1.06-1.85.21-3.54.4-5.05.56-1.53.16-2.99.24-4.42.24-1.3,0-2.22-.26-2.78-.79-.53-.45-.93-1.48-1.14-3.12-.21-1.72-.4-3.86-.56-6.35-.19-2.51-.26-5.45-.26-8.84-.11-3.36-.16-7.06-.16-11.08v-13.55l18.28.32c1.32,0,1.96.45,1.96,1.3.24.45.34.93.34,1.48s.05,1.08.16,1.64v1.14c0,.53.11,1.19.32,1.96,0,.77.05,1.53.16,2.28.11.77.19,1.59.19,2.46.11.87.21,1.69.32,2.43.11.77.16,1.59.16,2.46.11.77.21,1.46.32,2.04.11.61.24,1.11.34,1.56.21.87.53,1.46.98,1.8.32.21.87.32,1.61.32.45-.11.82-.56,1.16-1.3.32-.45.37-1.32.16-2.62-.32-1.75-.66-3.76-.98-6.03-.21-1.22-.4-2.41-.5-3.6-.11-1.19-.21-2.46-.32-3.76-.11-1.19-.19-2.43-.24-3.68-.05-1.24-.08-2.49-.08-3.68-.13-1.19-.16-2.3-.08-3.33.05-1.03.13-1.98.24-2.86.21-1.85.53-3.92.98-6.22.21-1.08.45-2.17.74-3.25.26-1.08.56-2.25.9-3.44.53-2.28,1.19-4.34,1.96-6.19.42-.87.79-1.72,1.14-2.54.32-.82.71-1.51,1.14-2.04.66-.98.56-1.8-.32-2.46-.77-.63-1.48-.53-2.14.34-.32.53-.79,1.35-1.45,2.43-.21.56-.5,1.14-.82,1.8s-.61,1.3-.82,1.96c-.21.66-.48,1.32-.82,1.96-.32.66-.58,1.27-.82,1.8-.21.56-.4,1.01-.56,1.38-.16.4-.29.69-.42.9-.53,1.75-2.06,2.51-4.55,2.3l-18.62-.66v-5.56c0-1.72.05-3.31.16-4.74ZM2021.76,544.53c0,.87-.5,1.3-1.48,1.3s-1.46-.42-1.46-1.3v-95.19c0-.87.48-1.3,1.46-1.3s1.48.42,1.48,1.3v95.19Z"/>
    </g>
    <g>
      <path class="cls-6" d="M1061.73,632.45l-17.69-54.2h7.56l8.44,26.7c2.33,7.32,4.34,13.91,5.79,20.27h.16c1.53-6.27,3.78-13.11,6.19-20.19l9.17-26.78h7.48l-19.38,54.2h-7.72Z"/>
      <path class="cls-6" d="M1101.69,578.25v54.2h-7v-54.2h7Z"/>
      <path class="cls-6" d="M1141.98,607.04h-21.07v19.54h23.48v5.87h-30.48v-54.2h29.27v5.87h-22.28v17.13h21.07v5.79Z"/>
      <path class="cls-6" d="M1165.05,584.21h-16.48v-5.95h40.13v5.95h-16.57v48.25h-7.08v-48.25Z"/>
      <path class="cls-6" d="M1194.71,632.45v-54.2h7.64l17.37,27.42c4.02,6.35,7.16,12.06,9.73,17.61l.16-.08c-.64-7.24-.8-13.83-.8-22.27v-22.68h6.59v54.2h-7.08l-17.21-27.5c-3.78-6.03-7.4-12.22-10.13-18.09l-.24.08c.4,6.83.56,13.35.56,22.36v23.16h-6.59Z"/>
      <path class="cls-6" d="M1256.38,615.41l-5.63,17.05h-7.24l18.42-54.2h8.44l18.49,54.2h-7.48l-5.79-17.05h-19.22ZM1274.15,609.94l-5.31-15.6c-1.2-3.54-2.01-6.76-2.81-9.89h-.16c-.8,3.22-1.69,6.51-2.73,9.81l-5.31,15.68h16.32Z"/>
      <path class="cls-6" d="M1342.17,608.65c-.4-7.56-.88-16.64-.8-23.4h-.24c-1.85,6.35-4.1,13.11-6.83,20.59l-9.57,26.29h-5.31l-8.77-25.81c-2.57-7.64-4.74-14.63-6.27-21.07h-.16c-.16,6.76-.56,15.84-1.05,23.96l-1.45,23.24h-6.67l3.78-54.2h8.93l9.25,26.21c2.25,6.67,4.1,12.62,5.47,18.25h.24c1.37-5.47,3.3-11.42,5.71-18.25l9.65-26.21h8.93l3.38,54.2h-6.83l-1.37-23.8Z"/>
      <path class="cls-6" d="M1389.21,607.04h-21.07v19.54h23.48v5.87h-30.48v-54.2h29.27v5.87h-22.28v17.13h21.07v5.79Z"/>
      <path class="cls-6" d="M1399.73,623.93c3.14,1.93,7.72,3.54,12.54,3.54,7.16,0,11.34-3.78,11.34-9.25,0-5.07-2.89-7.96-10.21-10.78-8.85-3.14-14.31-7.72-14.31-15.36,0-8.44,7-14.72,17.53-14.72,5.55,0,9.57,1.29,11.98,2.65l-1.93,5.71c-1.77-.96-5.39-2.57-10.29-2.57-7.4,0-10.21,4.42-10.21,8.12,0,5.07,3.3,7.56,10.78,10.45,9.17,3.54,13.83,7.96,13.83,15.92,0,8.36-6.19,15.6-18.98,15.6-5.23,0-10.94-1.53-13.83-3.46l1.77-5.87Z"/>
      <path class="cls-6" d="M1468.4,607.04h-21.07v19.54h23.48v5.87h-30.48v-54.2h29.27v5.87h-22.28v17.13h21.07v5.79Z"/>
      <path class="cls-6" d="M1530.87,632.45c-1.53-1.53-2.98-3.06-5.07-5.31-4.66,4.34-9.89,6.19-15.84,6.19-10.54,0-16.65-7.08-16.65-15.2,0-7.4,4.42-12.46,10.62-15.84v-.24c-2.81-3.54-4.5-7.48-4.5-11.34,0-6.59,4.75-13.35,13.75-13.35,6.75,0,11.98,4.5,11.98,11.5,0,5.71-3.3,10.21-11.9,14.47v.24c4.58,5.31,9.73,11.26,13.19,15.12,2.49-3.78,4.18-9.01,5.23-15.84h6.43c-1.45,8.52-3.78,15.28-7.8,20.02,2.9,3.05,5.71,6.11,8.93,9.57h-8.36ZM1522.35,623.12c-3.21-3.54-9.25-10.13-15.28-17.05-2.89,1.85-7,5.31-7,11.02,0,6.19,4.58,10.94,11.1,10.94,4.66,0,8.61-2.09,11.18-4.91ZM1505.86,590.07c0,3.86,1.77,6.84,4.1,9.73,5.47-3.13,9.01-6.03,9.01-10.61,0-3.3-1.85-7-6.27-7s-6.84,3.7-6.84,7.88Z"/>
      <path class="cls-6" d="M1571.63,632.45l-17.69-54.2h7.56l8.44,26.7c2.33,7.32,4.34,13.91,5.79,20.27h.16c1.53-6.27,3.78-13.11,6.19-20.19l9.17-26.78h7.48l-19.38,54.2h-7.72Z"/>
      <path class="cls-6" d="M1632.65,607.04h-21.07v19.54h23.48v5.87h-30.48v-54.2h29.27v5.87h-22.28v17.13h21.07v5.79Z"/>
      <path class="cls-6" d="M1685.4,630.04c-3.13,1.12-9.33,2.97-16.64,2.97-8.2,0-14.96-2.09-20.27-7.16-4.66-4.5-7.56-11.74-7.56-20.18.08-16.16,11.18-27.98,29.35-27.98,6.27,0,11.18,1.37,13.51,2.49l-1.69,5.71c-2.89-1.28-6.51-2.33-11.98-2.33-13.19,0-21.79,8.2-21.79,21.79s8.28,21.87,20.91,21.87c4.58,0,7.72-.64,9.33-1.45v-16.16h-11.02v-5.63h17.85v26.05Z"/>
      <path class="cls-6" d="M1704.85,615.41l-5.63,17.05h-7.24l18.42-54.2h8.44l18.49,54.2h-7.48l-5.79-17.05h-19.22ZM1722.62,609.94l-5.31-15.6c-1.2-3.54-2.01-6.76-2.81-9.89h-.16c-.8,3.22-1.69,6.51-2.73,9.81l-5.31,15.68h16.32Z"/>
      <path class="cls-6" d="M1745.29,632.45v-54.2h7.64l17.37,27.42c4.02,6.35,7.16,12.06,9.73,17.61l.16-.08c-.64-7.24-.8-13.83-.8-22.27v-22.68h6.59v54.2h-7.08l-17.21-27.5c-3.78-6.03-7.4-12.22-10.13-18.09l-.24.08c.4,6.83.56,13.35.56,22.36v23.16h-6.59Z"/>
    </g>
  </g>
</svg>