<?xml version="1.0" encoding="UTF-8"?>
<svg id="Layer_1" data-name="Layer 1" xmlns="http://www.w3.org/2000/svg" xmlns:xlink="http://www.w3.org/1999/xlink" viewBox="0 0 1622.84 502.72">
  <defs>
    <style>
      .cls-1 {
        fill: url(#linear-gradient);
      }

      .cls-1, .cls-2, .cls-3, .cls-4, .cls-5 {
        stroke-width: 0px;
      }

      .cls-2 {
        fill: #ef8d1b;
      }

      .cls-3 {
        fill: gold;
      }

      .cls-4 {
        fill: #e5dfbf;
      }

      .cls-5 {
        fill: #0c364f;
      }
    </style>
    <linearGradient id="linear-gradient" x1="101.48" y1="429.81" x2="304.72" y2="77.79" gradientTransform="translate(0 0)" gradientUnits="userSpaceOnUse">
      <stop offset="0" stop-color="#ebbb49"/>
      <stop offset=".38" stop-color="#f4dd79"/>
      <stop offset=".7" stop-color="#f5de79"/>
      <stop offset="1" stop-color="#ebbb49"/>
    </linearGradient>
  </defs>
  <g>
    <path class="cls-5" d="m104.98,408.82l52.49-52.49L0,198.87l93.9-93.9,52.49,52.49,11.08-11.08-52.49-52.49L198.87,0l93.9,93.9-78.72,78.73,11.41,11.42,78.36-79.1,93.93,93.93-104.98,104.98,21.8,21.8v61.37l-115.7,115.7-93.9-93.9Zm93.9,11.08l11.08-11.08-11.08-11.08-11.07,11.08,11.07,11.08Zm0-104.98l37.31-37.33-10.7-10.7-26.24,26.24-105.34-105.34-11.08,11.08,116.05,116.05Zm78.74-78.74l37.32-37.32-11.02-11.02-37.06,37.57,10.76,10.76Zm-78.74-131.22l11.08-11.08-11.08-11.08-11.07,11.08,11.07,11.08Z"/>
    <path class="cls-5" d="m110.82,408.82l52.49-52.49L5.85,198.87l88.05-88.05,52.49,52.49,16.93-16.93-52.49-52.49L198.87,5.85l88.05,88.05-78.72,78.73,17.27,17.28,78.36-79.1,88.07,88.07-104.98,104.98,23.52,23.52v57.94l-111.56,111.56-88.05-88.05Zm88.05,16.93l16.93-16.93-16.93-16.93-16.92,16.93,16.92,16.93Zm0-104.98l43.16-43.18-16.55-16.55-26.24,26.24-105.34-105.34-16.93,16.93,121.9,121.9Zm78.74-78.74l43.17-43.17-16.89-16.89-42.87,43.46,16.59,16.59Zm-78.74-131.22l16.93-16.93-16.93-16.93-16.92,16.93,16.92,16.92Z"/>
    <path class="cls-4" d="m110.82,408.82l52.49-52.49L5.85,198.87l88.05-88.05,52.49,52.49,16.93-16.93-52.49-52.49L198.87,5.85l88.05,88.05-78.72,78.73,17.27,17.28,78.36-79.1,88.07,88.07-104.98,104.98,23.52,23.52v57.94l-111.56,111.56-88.05-88.05Zm88.05,16.93l16.93-16.93-16.93-16.93-16.92,16.93,16.92,16.93Zm0-104.98l43.16-43.18-16.55-16.55-26.24,26.24-105.34-105.34-16.93,16.93,121.9,121.9Zm78.74-78.74l43.17-43.17-16.89-16.89-42.87,43.46,16.59,16.59Zm-78.74-131.22l16.93-16.93-16.93-16.93-16.92,16.93,16.92,16.92Z"/>
    <path class="cls-5" d="m305.34,277.63l78.76-78.76-80.25-80.25-78.36,79.11-25.08-25.1,78.72-78.73L198.87,13.64l-80.25,80.25,52.49,52.49-24.72,24.72-52.49-52.49L13.64,198.87l157.46,157.46-52.49,52.49,80.25,80.25,106.05-106.05v-53.38s-25.8-25.8-25.8-25.8l24.72-24.72,1.49-1.49Zm-124.09-190.82l17.62-17.63,24.72,24.72-24.72,24.72-24.71-24.72,7.09-7.09Zm17.62,346.74l-24.71-24.72,24.71-24.72,24.72,24.72-24.72,24.72Zm0-104.98L69.17,198.87l24.72-24.72,105.34,105.34,26.24-26.24,24.34,24.34-50.95,50.98Zm78.74-78.74l-24.35-24.36,50.61-51.31,24.71,24.71-50.96,50.96Z"/>
    <g>
      <polygon class="cls-5" points="225.11 305.37 198.87 331.61 175.4 308.14 175.4 308.14 66.13 198.87 93.9 171.11 199.25 276.46 223.97 251.73 93.9 121.66 16.69 198.87 147.92 330.1 147.92 330.11 198.87 381.06 249.84 330.09 225.11 305.37"/>
      <polygon class="cls-5" points="381.06 198.87 303.89 276.05 279.12 251.37 331.61 198.87 303.85 171.11 251.69 224 226.97 199.27 303.86 121.66 381.06 198.87"/>
    </g>
    <polygon class="cls-1" points="302.77 330.54 302.77 382.13 198.87 486.03 121.66 408.82 172.63 357.86 197.35 382.58 171.11 408.82 198.87 436.59 226.65 408.82 200.41 382.58 252.89 330.09 226.65 303.85 252.86 277.59 147.92 172.63 226.65 93.89 198.87 66.13 171.11 93.89 197.35 120.14 172.63 144.86 121.66 93.89 198.87 16.68 276.08 93.89 197.35 172.63 302.33 277.6 276.08 303.85 302.77 330.54"/>
    <path class="cls-5" d="m305.34,277.63l78.76-78.76-80.25-80.25-78.36,79.11-25.08-25.1,78.72-78.73L198.87,13.64l-80.25,80.25,52.49,52.49-24.72,24.72-52.49-52.49L13.64,198.87l157.46,157.46-52.49,52.49,80.25,80.25,106.05-106.05v-53.38s-25.8-25.8-25.8-25.8l24.72-24.72,1.49-1.49Zm-1.48-155.97l77.2,77.21-77.17,77.18-24.75-24.69,52.48-52.49-27.77-27.77-52.11,52.85-24.72-24.72,76.85-77.57Zm-26.25,128.17l-24.35-24.36,50.61-51.31,24.71,24.71-50.96,50.96Zm-130.28,79.69h0S16.68,198.87,16.68,198.87l77.21-77.21,130.07,130.07-24.71,24.73-50.72-50.72-54.63-54.63-27.76,27.76,104.98,104.97h0s27.76,27.77,27.76,27.77l26.24-26.24,24.72,24.72-50.97,50.97-51.54-51.54Zm102.49-51.93l-50.95,50.98L69.17,198.87l24.72-24.72,105.34,105.34,26.24-26.24,24.34,24.34Zm-26.23,131.23l-24.72,24.72-24.71-24.72,24.71-24.72,24.72,24.72Zm52.49-104.98l26.69,26.69v51.6s-103.9,103.9-103.9,103.9l-77.21-77.21,50.97-50.97,24.72,24.72-26.24,26.24,27.76,27.77,27.78-27.77-26.24-26.24,52.49-52.49-26.24-26.24,26.22-26.26-104.95-104.96,78.73-78.73-7.09-7.09-20.69-20.68-27.77,27.77,26.24,26.24-24.72,24.72-50.97-50.97L198.87,16.68l77.21,77.21-78.73,78.73,26.62,26.62-.03.04,52.13,52.08h0s26.24,26.25,26.24,26.25l-26.23,26.23Zm-77.21-185.23l-24.71-24.72,7.09-7.09,17.62-17.63,24.72,24.72-24.72,24.72Z"/>
  </g>
  <g>
    <g>
      <path class="cls-3" d="m485.71,209.05c2.37,0,4.4.32,6.1.99,1.89.76,3.5,1.66,4.84,2.7,1.34,1.04,2.42,2.28,3.27,3.69.85,1.24,1.43,2.58,1.7,3.99.18.85.37,1.43.58,1.7.37.58.69.9.99.99.28.21.62.16.99-.14.18-.09.48-.55.85-1.41l4.12-12.67c.48-1.5.05-2.51-1.29-2.97-.94-.39-2.65-.76-5.11-1.15-1.31-.18-2.81-.32-4.47-.41-1.66-.09-3.52-.14-5.62-.14-5.97,0-11.22.67-15.78,1.98-2.17.67-4.26,1.47-6.24,2.42-2,.97-3.89,2.14-5.69,3.57-3.13,2.46-5.69,5.74-7.67,9.81-1.91,4.28-2.86,8.13-2.86,11.54,0,3.59.53,6.89,1.57,9.81.94,2.67,2.33,5.18,4.12,7.56,1.61,1.98,3.55,3.98,5.83,5.97,1.04.97,2.14,1.87,3.27,2.72,1.13.85,2.28,1.75,3.41,2.7,1.34,1.06,2.63,2.07,3.92,3.06,1.27,1.01,2.49,1.98,3.62,2.93,1.04.85,2.07,1.7,3.06,2.56.99.85,1.87,1.75,2.63,2.72,1.61,1.8,2.83,3.64,3.69,5.55.85,1.98,1.29,4.26,1.29,6.82,0,1.91-.39,3.62-1.13,5.14-.76,1.43-1.66,2.51-2.72,3.27-.85.76-2.07,1.38-3.69,1.84-1.13.39-2.51.58-4.12.58-2.28,0-4.65-.37-7.12-1.13-2.07-.67-4.12-1.7-6.1-3.13-1.89-1.34-3.46-2.79-4.7-4.4-1.31-1.8-2.3-3.57-2.97-5.28-.76-1.98-1.15-3.36-1.15-4.12-.18-.94-.32-1.61-.41-1.98-.28-1.22-.85-1.84-1.7-1.84-.48,0-.99.37-1.57,1.13-.28.39-.55.76-.78,1.13-.23.39-.46.76-.64,1.15-.28.58-.55,1.61-.85,3.13-.28,1.31-.41,2.46-.41,3.41,0,1.31.18,2.56.55,3.69.39,1.34.52,5.93-.28,7.67-1.68,3.68,1.7,5.14,3.71,4.56,2.17-.48,4.01-.71,5.53-.71h1.57c.58,0,1.24.05,1.98.14.76.09,1.52.14,2.28.14s1.57.09,2.42.3c.76,0,1.57.02,2.42.07s1.66.12,2.42.21c.76.09,1.47.14,2.12.14h1.73c2.83,0,5.34-.28,7.53-.85,2.07-.37,3.96-1.08,5.67-2.12.76-.48,1.52-1.01,2.28-1.57.76-.58,1.47-1.2,2.14-1.87.65-.64,1.29-1.34,1.91-2.05.62-.71,1.31-1.45,2.07-2.21.74-.76,1.41-1.57,1.98-2.49.58-.9,1.08-1.82,1.57-2.76.94-1.8,1.7-3.59,2.28-5.39.55-1.91.99-3.66,1.27-5.28.28-1.7.44-3.27.44-4.68,0-2.19-.16-4.51-.44-6.98-.18-2.37-.76-4.72-1.7-7.09-.48-1.24-1.06-2.46-1.77-3.71-.71-1.22-1.54-2.51-2.49-3.82-.94-1.34-2.1-2.7-3.41-4.05-1.34-1.38-2.81-2.83-4.42-4.35-2.74-2.44-5.25-4.54-7.53-6.24-1.13-.85-2.19-1.68-3.18-2.49-1.01-.81-1.93-1.59-2.79-2.35-1.61-1.52-2.88-3.06-3.82-4.68-.97-1.52-1.43-3.48-1.43-5.83,0-2.67.94-4.84,2.83-6.54,1.8-1.7,4.98-2.56,9.54-2.56Zm-9.97,46.32c3.06,2.17,5.69,4.4,7.88,6.66,2.19,2.28,4.05,4.63,5.57,7.09,3.06,4.81,4.35,9.95,3.87,15.46-.44-5.62-2.65-10.85-6.61-15.69-3.75-4.68-8.64-8.91-14.63-12.72-1.43-1.01-2.99-2.14-4.72-3.39-.76-.69-1.54-1.36-2.33-2.05-.76-.67-1.5-1.45-2.19-2.3-.69-.78-1.31-1.61-1.87-2.49-.55-.88-1.06-1.8-1.47-2.76-.88-2.05-1.17-4.12-.94-6.22.32,2.26,1.08,4.17,2.28,5.71.6.88,1.27,1.7,2,2.46.74.78,1.47,1.54,2.26,2.33,1.45,1.27,3.27,2.65,5.46,4.15.97.67,1.89,1.29,2.79,1.87.9.6,1.8,1.22,2.65,1.89Z"/>
      <path class="cls-3" d="m613.78,296.74c-.21-.37-.46-.76-.78-1.13-.35-.39-.69-.81-1.06-1.29-1.52-1.98-3.34-4.79-5.41-8.38-1.04-1.8-2.14-3.66-3.27-5.62-1.13-1.93-2.33-3.94-3.55-6.04-1.15-2.07-2.28-4.15-3.41-6.17-1.15-2.05-2.23-4.1-3.27-6.2-1.06-1.98-2.05-3.82-2.99-5.55-.94-1.7-1.8-3.2-2.56-4.54-.46-.94-1.01-1.98-1.64-3.13-.62-1.13-1.29-2.35-2.05-3.69-.76-1.34-1.54-2.72-2.35-4.19-.81-1.47-1.64-3.02-2.49-4.63-.76-1.61-1.57-3.2-2.42-4.75-.85-1.57-1.75-3.16-2.69-4.77-1.7-3.22-3.27-6.22-4.7-8.96-.76-1.34-1.45-2.58-2.05-3.78-.62-1.17-1.17-2.28-1.64-3.32-.48-.97-.88-1.75-1.22-2.35-.32-.62-.6-1.13-.78-1.5-.67-1.52-1.36-2.28-2.12-2.28-.76-.18-1.43.44-2,1.84-.18.3-.44.78-.78,1.5-.32.71-.74,1.64-1.2,2.79-.48,1.13-1.04,2.4-1.7,3.82-.67,1.43-1.38,2.95-2.14,4.56-.76,1.61-1.54,3.32-2.35,5.11-.81,1.8-1.68,3.69-2.63,5.69-.94,1.89-1.84,3.82-2.7,5.83-.85,1.98-1.75,3.96-2.7,5.97-.94,1.98-1.84,3.92-2.69,5.83-.85,1.89-1.7,3.78-2.56,5.69-.76,1.89-1.5,3.62-2.21,5.18-.71,1.57-1.41,2.99-2.07,4.33l-5.53,11.93c-.94,2-1.89,3.89-2.79,5.69-.9,1.8-1.77,3.5-2.63,5.11-.76,1.61-1.5,3.06-2.19,4.35-.71,1.27-1.36,2.44-1.93,3.48-1.13,2.17-1.84,3.32-2.12,3.41-1.15.76-1.7,1.61-1.7,2.56,0,1.04.51,1.57,1.57,1.57.65,0,1.84-.14,3.55-.44.85-.09,1.59-.16,2.19-.21.62-.05,1.13-.07,1.5-.07.39,0,.81.02,1.29.07.46.05,1.08.12,1.84.21.76.09,1.38.16,1.84.23.48.05.9.07,1.29.07.67,0,1.22-.3,1.7-.85.37-.48.58-.9.58-1.29,0-.37-.62-.76-1.87-1.13-1.31-.48-1.8-1.52-1.41-3.13.09-.37.25-.94.48-1.7.23-.76.55-1.7.92-2.86.39-1.13.81-2.33,1.29-3.62.46-1.27.99-2.63,1.57-4.05.46-1.41.99-2.86,1.57-4.33.55-1.47,1.13-2.95,1.7-4.47.55-1.52,1.13-2.93,1.7-4.19.55-1.29,1.08-2.44,1.57-3.5.55-.37,1.84-.69,3.82-.99.94-.09,1.91-.18,2.93-.28.99-.09,2.1-.14,3.34-.14,1.22-.18,2.46-.3,3.69-.3h3.98c2.74-.18,5.55-.18,8.38,0,1.34,2.56,2.6,5.14,3.85,7.69,1.22,2.56,2.46,5.11,3.69,7.67,1.13,2.46,2.26,4.86,3.34,7.16,1.08,2.33,2.12,4.58,3.06,6.77.37.94.55,1.61.55,1.98.21.58.21,1.08,0,1.57-.28.46-.69.71-1.27.71-.67,0-1.13.05-1.43.14-.18.09-.39.18-.65.28-.23.09-.44.14-.62.14-.39.3-.58.67-.58,1.15,0,.67.37,1.13,1.13,1.41.39.12.76.18,1.15.23.37.05.81.07,1.27.07h1.15c.55,0,1.27-.05,2.12-.14.76-.12,1.57-.16,2.42-.16.94,0,1.93-.09,2.99-.28,1.04,0,2-.02,2.9-.07.9-.05,1.82-.12,2.76-.21.85-.09,1.57-.14,2.14-.14h4.7c.76.09,1.57.14,2.42.14s1.75.05,2.7.14c.85.09,1.66.14,2.42.14h2.42c.76.09,1.31.14,1.7.14h.85c1.04,0,1.57-.6,1.57-1.84.09-.37-.16-.94-.71-1.7Zm-57.73-43.63c-.76-.09-1.5-.16-2.26-.16-.67,0-1.38-.05-2.14-.14-.76-.09-1.47-.14-2.12-.14-.58,0-1.2-.09-1.87-.28-.55,0-1.06-.05-1.47-.14-.44-.12-.85-.21-1.22-.3.18-.85.53-1.89.99-3.13.39-1.41.94-2.97,1.7-4.68.3-.76.58-1.52.85-2.28.3-.76.62-1.52,1.01-2.28.55-1.5,1.04-2.56,1.41-3.11.58.94,1.22,2,1.93,3.18.69,1.2,1.43,2.49,2.19,3.92.76,1.43,1.57,2.93,2.42,4.49.85,1.54,1.75,3.22,2.7,5.04h-4.12Zm10.66-.44c-.37-.09-1.04-.14-1.98-.14-2.19-3.32-4.17-6.82-5.97-10.53-.76-1.8-1.59-3.57-2.49-5.32-.9-1.75-1.84-3.52-2.79-5.34-.28-.65-.14-1.13.44-1.41.55-.39,1.04-.25,1.43.41l12.65,22.32h-1.29Zm24.88,42.5c-.18.39-.32.62-.41.71-.76.48-1.29.35-1.57-.44l-9.81-15.34c-3.22-4.93-6.06-10.27-8.52-16.06.28.09.81.14,1.57.14.37-.09.9-.14,1.54-.14l17.07,30.41c.18.21.23.44.14.71Z"/>
      <path class="cls-3" d="m662.39,299.02c-.18-.09-.41-.18-.71-.3-.28-.09-.62-.18-.99-.28-.37-.09-.76-.14-1.13-.14h-.85c-.48.18-1.2.14-2.14-.14-1.61-.76-2.6-2.51-2.99-5.27-.09-.37-.14-.94-.14-1.7s-.05-1.75-.14-2.97c-.09-1.24-.14-2.6-.14-4.12v-5.11c-.09-1.8-.14-3.71-.14-5.69v-28.01c0-2.46.05-4.88.14-7.26.09-2.35.14-4.58.14-6.68s.09-4.22.28-6.1c0-1.89.07-3.59.16-5.11.09-1.52.23-2.95.41-4.26.09-2.37.35-3.89.71-4.56.67-1.13,1.47-1.75,2.42-1.84.85-.09,1.7-.32,2.56-.71,1.34-.76,1.98-1.31,1.98-1.7,0-1.04-.94-1.57-2.83-1.57h-1.98c-.48.09-.97.16-1.43.16h-1.57c-.48.09-.99.14-1.57.14h-1.7c-.58.09-1.13.14-1.7.14h-3.27c-.67,0-1.47-.05-2.42-.14-.94-.09-1.93-.14-2.97-.14-.97,0-1.96-.12-2.99-.3-1.04,0-2.12-.05-3.2-.14-1.08-.09-2.14-.14-3.2-.14-1.04-.18-1.98-.3-2.83-.3h-2.42c-.48,0-.94.02-1.43.09-.46.05-.94.12-1.4.21-.85.18-1.29.51-1.29.99,0,.76.58,1.31,1.7,1.7.18.09.51.18.92.28.44.09.88.14,1.36.14.94.28,1.66.85,2.12,1.7.3.37.58,1.84.85,4.4.21,1.22.35,2.58.44,4.1.09,1.52.23,3.16.41,4.95.09,1.8.21,3.66.3,5.6.09,1.93.18,4.01.28,6.17.09,2.17.16,4.28.21,6.31s.07,4.03.07,6.01-.02,4.15-.07,6.45c-.05,2.33-.07,4.79-.07,7.44-.18,2.65-.3,5.25-.35,7.81-.05,2.53-.12,5.04-.21,7.49-.12,2.46-.21,4.72-.3,6.75-.09,2.03-.18,3.94-.28,5.74-.09,1.8-.18,3.16-.28,4.1-.12.94-.21,1.52-.3,1.7-.37.85-.99,1.27-1.84,1.27-.48.21-.94.3-1.43.3h-1.41c-.97,0-1.57.25-1.87.76-.18.6-.28,1.06-.28,1.36,0,1.43.53,2.14,1.57,2.14.67,0,2.12-.14,4.4-.44,1.04-.09,2.21-.16,3.48-.21,1.29-.05,2.58-.07,3.92-.07h2.56c.94,0,2.05.09,3.27.28,1.24,0,2.44.05,3.62.14,1.2.12,2.44.25,3.78.44,1.34.09,2.58.18,3.78.28,1.17.09,2.28.16,3.34.16,1.04.18,1.93.28,2.7.28h1.98c.85,0,1.57-.14,2.14-.44.55-.28.85-.67.85-1.13,0-.67-.21-.99-.58-.99Zm-26.14-3.85c0,.67-.39.99-1.15.99s-1.13-.32-1.13-.99v-83.02c0-.65.37-.99,1.13-.99s1.15.35,1.15.99v83.02Z"/>
      <path class="cls-3" d="m761.46,270.02c.09-.94.14-1.84.14-2.7v-9.95c0-1.91.3-3.27.85-4.12.39-.85,1.57-1.57,3.57-2.14.46-.09.99-.41,1.54-.99.39-.37.58-.85.58-1.43,0-.46-.18-.9-.58-1.27-.46-.3-1.08-.44-1.84-.44h-30.27c-2.28,0-3.41.48-3.41,1.43-.3.94.37,1.7,1.98,2.28.85.28,1.89.37,3.13.28,1.22-.09,2.42.23,3.55.99.76.67,1.29,1.38,1.57,2.14.28.85.44,1.66.44,2.42l-.44,27.99c0,2-.32,3.52-.99,4.56-.76,1.13-2.46,1.7-5.11,1.7-7.03,0-13.18-1.38-18.47-4.12-5.14-2.65-9.54-6.27-13.22-10.8-3.62-4.35-6.31-9.47-8.11-15.36-1.8-5.67-2.69-11.59-2.69-17.76,0-4.54.71-8.8,2.12-12.78,1.43-4.08,3.41-7.58,5.97-10.53,2.46-2.83,5.55-5.16,9.24-6.96,3.52-1.7,7.44-2.56,11.82-2.56,2.83,0,6.06.85,9.65,2.56,3.41,1.7,6.68,3.69,9.81,5.97,1.61,1.13,3.09,2.28,4.4,3.41,1.34,1.13,2.6,2.23,3.85,3.27,2.28,2.19,3.78,3.69,4.54,4.54.76.85,1.52,1.38,2.28,1.57.85.21,1.52.09,2-.28.37-.28.65-.81.85-1.57.09-.67-.16-1.43-.71-2.28-.21-.28-.46-.64-.78-1.13-.35-.48-.69-1.08-1.06-1.84-.39-.76-.78-1.52-1.22-2.28-.41-.76-.88-1.61-1.36-2.56-.46-.94-.94-1.87-1.4-2.76-.48-.9-.94-1.89-1.43-2.93-.48-1.04-.92-2-1.36-2.9-.41-.92-.88-1.84-1.34-2.79-.48-.94-.88-1.8-1.22-2.56-.32-.76-.69-1.52-1.06-2.28-.37-.74-.67-1.36-.85-1.84-.18-.46-.37-.85-.58-1.13-.37-.76-.9-1.43-1.57-2-.55-.28-1.13-.41-1.7-.41-.46.18-.85.53-1.13.99-.28.48-.28,1.11,0,1.84.09.76.32,1.57.71,2.42.28.67.32,1.24.14,1.7-.48.76-1.57.94-3.27.58-.37-.09-.78-.18-1.2-.28-.44-.09-.88-.21-1.36-.3-.48-.09-1.13-.16-1.98-.21-.85-.05-1.96-.07-3.27-.07-6.54,0-13.5.94-20.89,2.83-7.03,1.82-13.52,4.84-19.49,9.1-5.87,4.17-10.71,9.58-14.49,16.22-3.71,6.73-5.55,14.74-5.55,24.03,0,6.24.99,12.12,2.99,17.62,1.98,5.6,4.84,10.41,8.52,14.49,3.59,4.17,8.06,7.53,13.36,10.09,5.41,2.46,11.29,3.71,17.62,3.71,1.43,0,2.88-.07,4.33-.21,1.47-.16,2.97-.41,4.49-.78,1.52-.3,2.95-.6,4.33-.92,1.38-.35,2.72-.69,4.05-1.08,1.31-.37,2.53-.76,3.62-1.13,1.11-.37,2.17-.81,3.2-1.29.94-.37,1.75-.69,2.42-.99.67-.28,1.17-.51,1.57-.71,1.8-.94,3.64-1.8,5.55-2.56.94-.37,1.87-.71,2.76-.99.9-.28,1.77-.58,2.63-.85.76-.18,1.52-.37,2.28-.58.76-.18,1.47-.37,2.12-.55,1.24-.3,2.28-.44,3.13-.44h2.86c.18.09.41.16.69.21.3.07.53.14.71.23,1.04.28,1.93.14,2.69-.44.67-.37.39-1.08-.85-2.12-.65-.48-1.36-.85-2.12-1.15-.76-.28-1.38-.67-1.84-1.13-.3-.39-.44-.81-.44-1.29v-13.64Zm-56.85,14.07c-4.17-3.5-7.58-7.49-10.23-11.96-1.34-2.17-2.49-4.42-3.43-6.75-.94-2.3-1.75-4.65-2.42-7.03-1.13-4.65-1.7-8.91-1.7-12.78,0-2,.35-4.61,1.01-7.83.76-3.5,2.03-6.73,3.82-9.67-1.04,2.76-1.7,5.55-1.98,8.41-.09,1.5-.16,2.86-.21,4.03-.07,1.2-.07,2.26-.07,3.2,0,5.02.6,9.81,1.84,14.37,1.13,4.63,2.93,9.14,5.39,13.5,1.24,2.07,2.65,4.08,4.26,5.97,1.61,1.89,3.36,3.75,5.28,5.55,3.69,3.32,8.34,6.2,13.91,8.66-6.06-1.52-11.22-4.08-15.48-7.67Z"/>
      <path class="cls-3" d="m870.07,233.49c-2-5.6-4.88-10.57-8.68-14.93-3.78-4.35-8.43-7.81-13.91-10.37-5.41-2.56-11.56-3.85-18.5-3.85-5.48,0-11.47.94-17.9,2.83-6.36,1.91-12.09,4.84-17.21,8.82-5.21,3.98-9.51,9.14-12.92,15.5-3.43,6.43-5.14,14.07-5.14,22.87,0,6.27,1.2,12.23,3.57,17.92,2.26,5.78,5.53,10.85,9.79,15.2,2.1,2.19,4.4,4.15,6.91,5.9,2.51,1.75,5.28,3.29,8.32,4.63,5.78,2.56,12.3,3.82,19.6,3.82,4.47,0,8.82-.71,13.08-2.12,4.17-1.43,8.11-3.41,11.79-5.99,3.62-2.44,6.91-5.34,9.95-8.66,2.95-3.22,5.51-6.77,7.67-10.67,1.06-1.89,1.98-3.78,2.79-5.69.81-1.89,1.54-3.87,2.19-5.97,1.15-3.98,1.7-7.85,1.7-11.66,0-6.15-1.04-12.02-3.11-17.62Zm-51.6,52.31c-6.08-3.22-11.24-7.35-15.5-12.37-2.1-2.46-3.94-5.07-5.55-7.81-1.61-2.76-2.93-5.64-3.96-8.68-2.19-6.24-3.27-12.16-3.27-17.76,0-4.45.51-8.25,1.54-11.38.97-2.93,2.63-5.64,4.98-8.11-1.13,1.7-2.26,4.28-3.41,7.69-1.13,3.41-1.7,6.91-1.7,10.5,0,6.82,1.34,13.18,3.98,19.05,2.56,5.87,6.06,11.19,10.53,15.92,4.45,4.75,9.51,8.64,15.2,11.66,5.51,3.04,11.43,5.07,17.76,6.13-7.67,0-14.53-1.61-20.59-4.84Zm36.1-4.4c-3.59,2.83-8.38,4.26-14.35,4.26-3.13,0-6.54-.67-10.25-2-1.7-.55-3.41-1.29-5.11-2.19-1.7-.9-3.36-1.93-4.98-3.06-3.32-2.07-6.5-4.7-9.51-7.81-2.95-2.95-5.55-6.13-7.83-9.54-1.04-1.7-2-3.43-2.9-5.18-.9-1.75-1.68-3.57-2.35-5.48-1.22-3.41-1.84-7-1.84-10.8s.32-7,.99-9.95c.39-1.61.83-3.06,1.36-4.4.51-1.34,1.15-2.6,1.91-3.85.76-1.13,1.61-2.14,2.56-3.04.94-.9,2.05-1.68,3.27-2.35,2.46-1.34,5.34-1.98,8.68-1.98,4.26,0,8.43.94,12.51,2.83,3.96,1.89,7.62,4.31,10.94,7.26,3.5,3.13,6.59,6.54,9.24,10.23,1.31,1.89,2.58,3.85,3.75,5.83,1.2,1.98,2.3,4.03,3.34,6.1.94,2.1,1.8,4.12,2.56,6.13.76,1.98,1.38,3.96,1.87,5.97,1.04,4.17,1.57,7.72,1.57,10.67,0,5.39-1.82,9.51-5.41,12.37Z"/>
      <path class="cls-3" d="m976.23,206.05c-.76-.18-1.47-.28-2.12-.28h-1.29c-.37,0-.81.05-1.27.14-.39.09-.81.14-1.29.14h-3.55c-.48-.09-.99-.14-1.57-.14h-1.43c-.46-.09-.99-.14-1.57-.14h-1.41c-.48-.09-.92-.14-1.29-.14h-.85c-1.43,0-2.6.12-3.55.39-.94.07-1.43.51-1.43,1.29,0,.71.37,1.15,1.13,1.31.97.18,1.87.25,2.72.25,1.4,0,2.65.16,3.69.44,1.15.28,1.75,1.04,1.84,2.28.09.64.21,1.45.3,2.42.09.94.23,2.07.41,3.41.3,2.74.58,5.64.85,8.66.09,1.61.18,3.25.3,4.91.09,1.66.23,3.39.41,5.18.09,1.8.18,3.5.28,5.11.09,1.61.16,3.22.16,4.84.18,1.61.28,3.09.28,4.42v3.82c.09,2.37.09,4.03,0,4.98-1.89-1.31-3.92-2.86-6.04-4.61-2.14-1.77-4.45-3.73-6.91-5.92-4.81-4.26-9.74-8.89-14.77-13.91-2.56-2.56-5.04-5.11-7.46-7.67-2.42-2.58-4.77-5.09-7.05-7.56-2.17-2.46-4.19-4.75-6.03-6.89-1.84-2.12-3.48-4.03-4.91-5.74-.76-.97-1.7-1.43-2.83-1.43h-24.46c-1.61,0-2.42.37-2.42,1.13,0,.48.25.94.71,1.43.39.37.9.55,1.57.55h2.28c.85-.09,1.52.09,1.98.58.58.48.94,1.13,1.15,1.98.09.39.18.81.28,1.29.09.46.14,1.04.14,1.7.18,2.07.28,4.45.28,7.09v8.96c.09,6.63-.05,13.66-.41,21.03-.18,3.99-.41,7.81-.65,11.45-.23,3.66-.48,7.14-.78,10.46-.18,3.32-.48,6.63-.92,9.95-.41,3.32-.92,6.63-1.5,9.95-.09.37-.23.74-.41,1.06-.21.32-.39.69-.58,1.06-.37.67-.9,1.01-1.57,1.01-.46,0-1.27.23-2.42.69-.85.48-1.27,1.11-1.27,1.87,0,.46.18.85.55,1.13.39.18.71.28,1.01.28h1.13c.58,0,1.22-.05,1.98-.14.76-.09,1.52-.14,2.28-.14h5.97c.76.09,1.47.14,2.14.14.76,0,1.52.05,2.28.14.74.09,1.41.14,1.98.14h1.98c.67.12,1.2.16,1.57.16h.85c.48,0,1.11-.12,1.87-.3.55-.09.85-.6.85-1.47,0-1.27-.92-2.05-2.72-2.35-.28-.09-.81-.14-1.57-.14-.37.09-.99.14-1.84.14h-1.7c-.58-.21-.9-.39-.99-.58-.39-.46-.58-1.13-.58-1.98.09-.39.12-.85.07-1.43-.05-.55-.12-1.22-.21-1.98-.18-1.61-.35-3.39-.51-5.32-.14-1.93-.3-4.15-.48-6.61-.18-2.44-.35-4.93-.44-7.44-.09-2.51-.14-5.09-.14-7.74-.18-2.65-.28-5.25-.28-7.81s.05-5.25.14-7.81c.09-2.44.18-4.75.28-6.86.09-2.14.25-4.1.44-5.9,2.28,1.31,5.83,4.17,10.66,8.52,2.46,2.17,5.23,4.63,8.32,7.37,3.06,2.74,6.56,5.78,10.43,9.08,6.27,5.39,12.32,11.03,18.2,16.88,2.95,2.86,5.67,5.51,8.18,7.97,2.51,2.44,4.77,4.77,6.75,6.93,1.22,1.34,2.3,2.46,3.2,3.41.9.94,1.68,1.75,2.35,2.42.65.67,1.2,1.24,1.64,1.7.41.48.78.81,1.06.99.94.76,1.8,1.2,2.56,1.29.58.09.81-.48.71-1.7-.18-1.89-.3-4.19-.35-6.89-.07-2.7-.05-5.85.07-9.44.09-3.59.16-7.56.21-11.91.05-4.35.16-9.14.35-14.35.09-2.46.14-4.86.14-7.23s.09-4.88.3-7.23c0-2.37.02-4.63.07-6.75s.12-4.15.21-6.04c.09-1.89.14-3.59.14-5.11v-4.4c.09-1.22.14-2.21.14-2.97v-1.43c0-1.68.21-3.11.58-4.24.39-1.24.94-2.1,1.7-2.56.39-.18.74-.39,1.08-.58.32-.18.58-.37.76-.58.48-.28.71-.65.71-1.13s-.28-.81-.85-.99Zm-9.51,62.54c-.48.48-.94.53-1.43.14l-63.12-56.71c-.55-.46-.55-.99,0-1.57.48-.46.94-.51,1.43-.14l63.12,56.87c.58.37.58.85,0,1.41Z"/>
      <path class="cls-3" d="m1115.69,206.19c-.76-.18-1.43-.28-2-.28h-12.07c-1.04,0-2.05.14-2.99.41-.94.12-1.41.58-1.41,1.43,0,.76.14,1.2.41,1.29.09.09.23.16.44.21.18.05.37.16.55.35.18.21.44.37.71.51s.53.3.71.51c.37.37.41.99.14,1.84l-15.06,50.03c-.18.48-.32.88-.41,1.2-.12.35-.25.69-.44,1.08-.28.55-.76.85-1.43.85-.55,0-1.04-.3-1.41-.85-.39-.39-.81-1.06-1.29-2l-28.29-49.18c-.18-.28-.37-.6-.58-.92-.18-.32-.37-.69-.55-1.06-.3-.67-.09-1.2.55-1.57.39-.18.78-.39,1.22-.58.41-.18.88-.37,1.34-.58.97-.37,1.43-.9,1.43-1.54s-.28-1.29-.85-1.87c-.48-.55-1.08-.85-1.84-.85-1.52,0-3.22.25-5.11.71-.94.18-2.46.3-4.56.3h-17.35c-.65,0-1.31-.07-1.98-.16-.76-.09-1.43-.14-1.98-.14-.48,0-.97-.05-1.43-.14-.67-.09-1.34-.05-1.98.14-.3.09-.58.18-.85.3-.3.09-.62.23-1.01.41-.55.18-.85.62-.85,1.29,0,.55.3,1.17.85,1.84.39.76.94,1.47,1.7,2.12.76.85,1.59,1.91,2.49,3.13.9,1.24,1.89,2.65,2.93,4.26,1.04,1.61,2.12,3.32,3.27,5.11,1.13,1.82,2.37,3.8,3.69,5.99,1.24,2.07,2.51,4.26,3.85,6.52,1.31,2.28,2.7,4.65,4.12,7.12,1.43,2.46,2.86,4.91,4.33,7.33,1.47,2.42,2.97,4.86,4.47,7.33,1.34,2.26,2.65,4.42,3.92,6.45,1.29,2.05,2.44,3.96,3.48,5.76,2.1,3.62,4.08,6.89,5.97,9.81.88,1.43,1.66,2.79,2.42,4.12.76,1.34,1.52,2.6,2.28,3.85.76,1.22,1.45,2.42,2.07,3.55.6,1.13,1.2,2.28,1.77,3.41.37.76.74,1.52,1.06,2.28.32.76.6,1.47.78,2.12.46,1.34,1.17,2,2.14,2,1.31,0,2.07-.58,2.26-1.7.09-.58.23-1.22.44-1.93.18-.71.37-1.43.55-2.19.39-1.61,1.24-4.08,2.58-7.39.65-1.61,1.31-3.25,1.98-4.91.67-1.66,1.38-3.34,2.12-5.04.76-1.7,1.5-3.36,2.21-4.98s1.41-3.18,2.07-4.7c.65-1.52,1.22-2.81,1.7-3.89.46-1.11.85-1.98,1.13-2.65.18-.37.39-.88.64-1.47.23-.62.53-1.41.92-2.35.37-.94.76-1.93,1.13-2.93.39-.99.81-2.1,1.29-3.34.46-1.13.94-2.35,1.43-3.62.46-1.29.94-2.58,1.41-3.92.48-1.31.99-2.65,1.57-3.99.58-1.31,1.08-2.65,1.57-3.96.94-2.28,1.77-4.35,2.49-6.2.71-1.84,1.41-3.52,2.05-5.04.58-1.52,1.11-2.83,1.57-3.98.48-1.13.85-2.07,1.15-2.83.94-2.37,1.66-4.03,2.12-4.98.48-1.04,1.15-1.84,2-2.42.46-.28.88-.55,1.2-.78.32-.23.65-.39.92-.51.3-.09.58-.18.85-.28.3-.09.53-.18.71-.28.67-.18,1.04-.48,1.13-.85.21-.39.3-.76.3-1.15,0-.46-.3-.81-.85-.99Zm-35.82,65.26c-.67.28-1.15.18-1.43-.3l-35.96-58.69c-.39-.48-.3-.94.28-1.43.58-.28,1.08-.18,1.57.28l35.82,58.72c.37.48.28.94-.28,1.43Z"/>
      <path class="cls-3" d="m1164.29,299.02c-.18-.09-.41-.18-.71-.3-.28-.09-.62-.18-.99-.28-.37-.09-.76-.14-1.13-.14h-.85c-.48.18-1.2.14-2.14-.14-1.61-.76-2.6-2.51-2.97-5.27-.12-.37-.16-.94-.16-1.7s-.05-1.75-.14-2.97c-.09-1.24-.14-2.6-.14-4.12v-5.11c-.09-1.8-.14-3.71-.14-5.69v-28.01c0-2.46.05-4.88.14-7.26.09-2.35.14-4.58.14-6.68s.09-4.22.3-6.1c0-1.89.05-3.59.14-5.11.09-1.52.23-2.95.41-4.26.09-2.37.35-3.89.71-4.56.67-1.13,1.47-1.75,2.42-1.84.85-.09,1.7-.32,2.56-.71,1.34-.76,2-1.31,2-1.7,0-1.04-.97-1.57-2.86-1.57h-1.98c-.48.09-.94.16-1.43.16h-1.57c-.48.09-.99.14-1.57.14h-1.7c-.58.09-1.13.14-1.7.14h-3.27c-.67,0-1.47-.05-2.42-.14-.94-.09-1.94-.14-2.97-.14-.97,0-1.96-.12-2.99-.3-1.04,0-2.12-.05-3.2-.14-1.08-.09-2.14-.14-3.2-.14-1.04-.18-1.98-.3-2.83-.3h-2.42c-.48,0-.94.02-1.43.09-.46.05-.94.12-1.41.21-.85.18-1.29.51-1.29.99,0,.76.58,1.31,1.7,1.7.18.09.51.18.92.28.44.09.88.14,1.36.14.94.28,1.66.85,2.12,1.7.3.37.58,1.84.85,4.4.21,1.22.35,2.58.44,4.1.09,1.52.23,3.16.44,4.95.09,1.8.18,3.66.28,5.6.09,1.93.18,4.01.28,6.17.09,2.17.16,4.28.21,6.31.05,2.03.09,4.03.09,6.01s-.05,4.15-.09,6.45c-.05,2.33-.07,4.79-.07,7.44-.18,2.65-.3,5.25-.35,7.81-.05,2.53-.12,5.04-.21,7.49-.09,2.46-.21,4.72-.3,6.75-.09,2.03-.18,3.94-.28,5.74-.09,1.8-.18,3.16-.28,4.1-.09.94-.21,1.52-.3,1.7-.37.85-.99,1.27-1.84,1.27-.48.21-.94.3-1.43.3h-1.4c-.94,0-1.57.25-1.87.76-.18.6-.28,1.06-.28,1.36,0,1.43.53,2.14,1.57,2.14.67,0,2.14-.14,4.4-.44,1.06-.09,2.21-.16,3.48-.21,1.29-.05,2.6-.07,3.92-.07h2.56c.94,0,2.05.09,3.27.28,1.24,0,2.44.05,3.64.14,1.17.12,2.42.25,3.75.44,1.34.09,2.58.18,3.78.28,1.17.09,2.28.16,3.34.16,1.04.18,1.93.28,2.69.28h1.98c.85,0,1.57-.14,2.14-.44.58-.28.85-.67.85-1.13,0-.67-.18-.99-.58-.99Zm-26.14-3.85c0,.67-.39.99-1.15.99s-1.13-.32-1.13-.99v-83.02c0-.65.37-.99,1.13-.99s1.15.35,1.15.99v83.02Z"/>
      <path class="cls-3" d="m1253.71,282.09c-.21-.28-.48-.41-.85-.41-.3-.09-.81.09-1.57.58-.67.46-1.34.97-2,1.47-.67.53-1.31,1.04-1.98,1.5-.67.48-1.29.9-1.84,1.29-.58.37-1.24.81-2,1.27-.46.3-1.08.62-1.84.99-.76.39-1.61.81-2.56,1.29-.94.48-1.98.92-3.13,1.36-1.13.41-2.37.88-3.69,1.34-1.34.48-2.67.88-4.05,1.22-1.38.32-2.88.69-4.47,1.06-3.13.58-6.4.85-9.81.85-1.34,0-2.33-.14-2.99-.44-.67-.09-1.13-.64-1.43-1.7-.18-.74-.37-1.59-.55-2.56-.18-.94-.35-2.07-.44-3.41-.18-2.74-.32-5.62-.41-8.66-.09-1.61-.14-3.22-.14-4.84v-15.34c0-2.46-.02-4.98-.07-7.56-.07-2.56-.09-5.04-.09-7.53.09-2.44.16-4.81.16-7.09v-6.54c.09-2.07.14-3.98.14-5.69s.05-3.22.14-4.54c.09-1.34.14-2.42.14-3.27v-1.7c0-.58.05-1.17.14-1.77.09-.62.25-1.27.44-1.93.28-1.31,1.13-2.12,2.56-2.42.94-.18,1.93-.37,2.97-.55,1.06-.18,2.1-.39,3.13-.58,2.28-.28,4.03-.85,5.28-1.7,1.31-.85,1.8-1.66,1.41-2.42-.46-.76-1.22-1.13-2.28-1.13-.55,0-1.04.14-1.41.41-.18.09-.46.21-.78.3-.35.09-.69.18-1.06.28-.39.09-.97.18-1.7.28-.76.09-1.66.25-2.72.44-1.04.18-2.19.35-3.48.48-1.27.16-2.63.32-4.05.51-2.83.28-5.83.58-8.96.85-1.61.09-3.09.16-4.47.21-1.38.05-2.72.07-4.05.07h-3.13c-.94,0-1.84-.09-2.7-.28-.85,0-1.64-.05-2.35-.14-.69-.09-1.34-.18-1.91-.28-.48-.12-.9-.21-1.27-.3-.39-.09-.67-.14-.85-.14-.3-.18-.71-.28-1.29-.28-.37,0-.76.18-1.13.55-.3.48-.44.81-.44.99,0,.97.71,1.64,2.14,2,1.22.48,2.26,1.08,3.11,1.84.76.76,1.34,2,1.7,3.71.21.76.37,1.64.51,2.63.14.99.3,2.14.51,3.48.18,1.34.32,2.74.41,4.26.09,1.52.23,3.18.44,4.98.09,1.8.18,3.64.28,5.55.09,1.89.18,3.87.28,5.97.09,2.07.18,4.17.23,6.24.05,2.1.07,4.24.07,6.4v13.08c-.09,2.17-.14,4.26-.14,6.24v5.69c-.12,1.8-.16,3.5-.16,5.11v4.42c-.09,1.31-.14,2.51-.14,3.55,0,.94-.05,1.75-.14,2.42-.76,1.31-1.38,2.19-1.84,2.56-.18.18-.46.41-.78.71-.35.28-.69.55-1.06.85-.85.55-1.15,1.36-.85,2.42.09.94.9,1.27,2.4.99.39-.09.85-.18,1.43-.28.58-.12,1.24-.21,2-.3.74-.09,1.52-.18,2.33-.28.81-.09,1.68-.18,2.65-.3.94-.09,1.89-.16,2.83-.21.94-.05,1.93-.12,2.99-.21,1.04-.09,2.03-.14,2.97-.14h3.13c1.89,0,4.03.07,6.4.21,2.35.14,4.91.3,7.67.51,2.74.18,5.46.39,8.18.62,2.7.25,5.41.46,8.15.65.48.09,1.01.14,1.57.14h1.7c1.06.09,1.7.67,2,1.7.28,1.06.67,1.82,1.13,2.28.28.48.9,0,1.84-1.43l13.36-19.88c.3-.39.44-.81.44-1.29,0-.28-.09-.71-.28-1.29Zm-63.55,12.95c0,.67-.32.99-.99.99-.76,0-1.13-.32-1.13-.99v-83.02c0-.67.37-.99,1.13-.99.67,0,.99.32.99.99v83.02Z"/>
      <path class="cls-3" d="m1340.55,282.09c-.18-.28-.48-.41-.85-.41-.28-.09-.81.09-1.57.58-.67.46-1.34.97-1.98,1.47-.67.53-1.34,1.04-2,1.5-.67.48-1.27.9-1.84,1.29-.58.37-1.22.81-1.98,1.27-.48.3-1.11.62-1.87.99-.76.39-1.61.81-2.56,1.29-.94.48-1.98.92-3.11,1.36-1.15.41-2.37.88-3.71,1.34-1.34.48-2.67.88-4.05,1.22-1.36.32-2.86.69-4.47,1.06-3.13.58-6.4.85-9.81.85-1.34,0-2.33-.14-2.97-.44-.67-.09-1.15-.64-1.43-1.7-.18-.74-.39-1.59-.58-2.56-.18-.94-.32-2.07-.41-3.41-.21-2.74-.35-5.62-.44-8.66-.09-1.61-.14-3.22-.14-4.84v-15.34c0-2.46-.02-4.98-.07-7.56-.05-2.56-.07-5.04-.07-7.53.09-2.44.14-4.81.14-7.09v-6.54c.09-2.07.14-3.98.14-5.69s.05-3.22.14-4.54c.09-1.34.14-2.42.14-3.27v-1.7c0-.58.05-1.17.16-1.77.09-.62.23-1.27.41-1.93.28-1.31,1.13-2.12,2.56-2.42.94-.18,1.93-.37,2.99-.55,1.04-.18,2.07-.39,3.13-.58,2.26-.28,4.01-.85,5.25-1.7,1.31-.85,1.8-1.66,1.43-2.42-.48-.76-1.24-1.13-2.28-1.13-.58,0-1.04.14-1.43.41-.18.09-.44.21-.78.3-.32.09-.69.18-1.06.28-.39.09-.94.18-1.7.28-.76.09-1.66.25-2.69.44-1.06.18-2.21.35-3.5.48-1.27.16-2.63.32-4.03.51-2.86.28-5.83.58-8.96.85-1.61.09-3.11.16-4.49.21-1.36.05-2.72.07-4.03.07h-3.13c-.94,0-1.84-.09-2.7-.28-.85,0-1.64-.05-2.35-.14-.71-.09-1.36-.18-1.93-.28-.46-.12-.9-.21-1.27-.3-.39-.09-.67-.14-.85-.14-.28-.18-.71-.28-1.29-.28-.37,0-.76.18-1.13.55-.28.48-.44.81-.44.99,0,.97.71,1.64,2.14,2,1.22.48,2.28,1.08,3.13,1.84.76.76,1.31,2,1.7,3.71.18.76.35,1.64.48,2.63.16.99.32,2.14.51,3.48.18,1.34.32,2.74.44,4.26.09,1.52.23,3.18.41,4.98.09,1.8.18,3.64.28,5.55.09,1.89.21,3.87.3,5.97.09,2.07.16,4.17.21,6.24.05,2.1.07,4.24.07,6.4v13.08c-.09,2.17-.14,4.26-.14,6.24v5.69c-.09,1.8-.14,3.5-.14,5.11v4.42c-.09,1.31-.14,2.51-.14,3.55,0,.94-.07,1.75-.16,2.42-.76,1.31-1.36,2.19-1.84,2.56-.18.18-.44.41-.78.71-.32.28-.69.55-1.06.85-.85.55-1.13,1.36-.85,2.42.09.94.9,1.27,2.42.99.37-.09.85-.18,1.43-.28.55-.12,1.22-.21,1.98-.3.76-.09,1.54-.18,2.35-.28.81-.09,1.68-.18,2.63-.3.94-.09,1.89-.16,2.83-.21.94-.05,1.96-.12,2.99-.21,1.04-.09,2.03-.14,2.97-.14h3.13c1.89,0,4.03.07,6.4.21,2.37.14,4.93.3,7.67.51,2.74.18,5.48.39,8.18.62,2.7.25,5.41.46,8.18.65.46.09.99.14,1.57.14h1.7c1.04.09,1.7.67,1.98,1.7.28,1.06.67,1.82,1.13,2.28.3.48.92,0,1.87-1.43l13.36-19.88c.28-.39.41-.81.41-1.29,0-.28-.09-.71-.28-1.29Zm-63.53,12.95c0,.67-.35.99-1.01.99-.76,0-1.13-.32-1.13-.99v-83.02c0-.67.37-.99,1.13-.99.67,0,1.01.32,1.01.99v83.02Z"/>
      <path class="cls-3" d="m1444.6,296.74c-.18-.37-.46-.76-.78-1.13-.32-.39-.69-.81-1.06-1.29-1.52-1.98-3.32-4.79-5.41-8.38-1.04-1.8-2.12-3.66-3.27-5.62-1.13-1.93-2.3-3.94-3.55-6.04-1.13-2.07-2.28-4.15-3.41-6.17-1.13-2.05-2.23-4.1-3.27-6.2-1.04-1.98-2.03-3.82-2.99-5.55-.94-1.7-1.8-3.2-2.56-4.54-.46-.94-1.01-1.98-1.64-3.13-.6-1.13-1.29-2.35-2.05-3.69-.76-1.34-1.54-2.72-2.35-4.19-.81-1.47-1.64-3.02-2.49-4.63-.76-1.61-1.57-3.2-2.42-4.75-.85-1.57-1.75-3.16-2.7-4.77-1.7-3.22-3.27-6.22-4.7-8.96-.76-1.34-1.43-2.58-2.05-3.78-.62-1.17-1.17-2.28-1.64-3.32-.48-.97-.88-1.75-1.22-2.35-.32-.62-.58-1.13-.76-1.5-.67-1.52-1.38-2.28-2.14-2.28-.76-.18-1.43.44-1.98,1.84-.21.3-.46.78-.78,1.5-.35.71-.74,1.64-1.22,2.79-.46,1.13-1.04,2.4-1.7,3.82-.67,1.43-1.38,2.95-2.12,4.56-.76,1.61-1.54,3.32-2.35,5.11-.81,1.8-1.68,3.69-2.63,5.69-.97,1.89-1.87,3.82-2.72,5.83-.85,1.98-1.75,3.96-2.7,5.97-.94,1.98-1.84,3.92-2.7,5.83-.85,1.89-1.7,3.78-2.56,5.69-.76,1.89-1.5,3.62-2.21,5.18-.71,1.57-1.41,2.99-2.05,4.33l-5.55,11.93c-.94,2-1.87,3.89-2.76,5.69-.92,1.8-1.8,3.5-2.65,5.11-.76,1.61-1.47,3.06-2.19,4.35-.71,1.27-1.36,2.44-1.91,3.48-1.15,2.17-1.87,3.32-2.14,3.41-1.13.76-1.7,1.61-1.7,2.56,0,1.04.51,1.57,1.57,1.57.65,0,1.84-.14,3.55-.44.85-.09,1.59-.16,2.21-.21.6-.05,1.11-.07,1.47-.07.39,0,.81.02,1.29.07.48.05,1.08.12,1.84.21.76.09,1.38.16,1.84.23.48.05.92.07,1.29.07.67,0,1.22-.3,1.7-.85.37-.48.58-.9.58-1.29,0-.37-.62-.76-1.84-1.13-1.34-.48-1.82-1.52-1.43-3.13.09-.37.25-.94.48-1.7.25-.76.55-1.7.94-2.86.37-1.13.78-2.33,1.27-3.62.48-1.27.99-2.63,1.57-4.05.46-1.41.99-2.86,1.57-4.33.58-1.47,1.13-2.95,1.7-4.47.58-1.52,1.13-2.93,1.7-4.19.58-1.29,1.08-2.44,1.57-3.5.58-.37,1.84-.69,3.82-.99.94-.09,1.94-.18,2.93-.28.99-.09,2.1-.14,3.34-.14,1.22-.18,2.46-.3,3.69-.3h3.98c2.74-.18,5.55-.18,8.38,0,1.34,2.56,2.6,5.14,3.85,7.69,1.22,2.56,2.46,5.11,3.69,7.67,1.15,2.46,2.26,4.86,3.34,7.16,1.11,2.33,2.12,4.58,3.06,6.77.37.94.58,1.61.58,1.98.18.58.18,1.08,0,1.57-.3.46-.71.71-1.29.71-.67,0-1.13.05-1.43.14-.18.09-.39.18-.62.28-.25.09-.46.14-.65.14-.39.3-.58.67-.58,1.15,0,.67.39,1.13,1.15,1.41.37.12.74.18,1.13.23.37.05.81.07,1.27.07h1.15c.58,0,1.27-.05,2.12-.14.76-.12,1.57-.16,2.42-.16.94,0,1.96-.09,2.99-.28,1.04,0,2-.02,2.9-.07.9-.05,1.84-.12,2.79-.21.85-.09,1.57-.14,2.12-.14h4.7c.76.09,1.57.14,2.42.14s1.75.05,2.69.14c.85.09,1.66.14,2.42.14h2.42c.76.09,1.31.14,1.7.14h.85c1.04,0,1.57-.6,1.57-1.84.09-.37-.14-.94-.71-1.7Zm-57.7-43.63c-.76-.09-1.52-.16-2.28-.16-.67,0-1.38-.05-2.14-.14-.76-.09-1.47-.14-2.12-.14-.58,0-1.2-.09-1.84-.28-.58,0-1.08-.05-1.5-.14-.44-.12-.83-.21-1.22-.3.18-.85.53-1.89,1.01-3.13.37-1.41.94-2.97,1.7-4.68.28-.76.55-1.52.85-2.28.28-.76.6-1.52.99-2.28.55-1.5,1.04-2.56,1.41-3.11.58.94,1.22,2,1.93,3.18.71,1.2,1.43,2.49,2.19,3.92.76,1.43,1.57,2.93,2.42,4.49.85,1.54,1.75,3.22,2.72,5.04h-4.12Zm10.64-.44c-.37-.09-1.04-.14-1.98-.14-2.19-3.32-4.17-6.82-5.97-10.53-.76-1.8-1.59-3.57-2.49-5.32-.9-1.75-1.82-3.52-2.76-5.34-.3-.65-.16-1.13.41-1.41.58-.39,1.04-.25,1.43.41l12.65,22.32h-1.29Zm24.88,42.5c-.18.39-.32.62-.41.71-.76.48-1.29.35-1.57-.44l-9.81-15.34c-3.22-4.93-6.06-10.27-8.52-16.06.28.09.81.14,1.57.14.37-.09.9-.14,1.57-.14l17.05,30.41c.18.21.23.44.14.71Z"/>
      <path class="cls-3" d="m1536,270.02c.09-.94.14-1.84.14-2.7v-9.95c0-1.91.28-3.27.85-4.12.37-.85,1.57-1.57,3.55-2.14.48-.09,1.01-.41,1.57-.99.39-.37.58-.85.58-1.43,0-.46-.18-.9-.58-1.27-.46-.3-1.08-.44-1.84-.44h-30.27c-2.28,0-3.43.48-3.43,1.43-.28.94.39,1.7,2,2.28.85.28,1.89.37,3.13.28,1.22-.09,2.42.23,3.55.99.76.67,1.27,1.38,1.57,2.14.28.85.41,1.66.41,2.42l-.41,27.99c0,2-.35,3.52-.99,4.56-.76,1.13-2.46,1.7-5.14,1.7-7,0-13.15-1.38-18.47-4.12-5.11-2.65-9.51-6.27-13.22-10.8-3.59-4.35-6.29-9.47-8.09-15.36-1.82-5.67-2.72-11.59-2.72-17.76,0-4.54.71-8.8,2.14-12.78,1.43-4.08,3.41-7.58,5.97-10.53,2.46-2.83,5.55-5.16,9.24-6.96,3.5-1.7,7.44-2.56,11.79-2.56,2.86,0,6.08.85,9.67,2.56,3.41,1.7,6.68,3.69,9.81,5.97,1.61,1.13,3.06,2.28,4.4,3.41,1.34,1.13,2.6,2.23,3.85,3.27,2.26,2.19,3.78,3.69,4.54,4.54.76.85,1.52,1.38,2.28,1.57.85.21,1.52.09,1.98-.28.39-.28.67-.81.85-1.57.09-.67-.14-1.43-.71-2.28-.18-.28-.44-.64-.76-1.13-.35-.48-.69-1.08-1.08-1.84-.37-.76-.78-1.52-1.2-2.28-.44-.76-.88-1.61-1.36-2.56-.46-.94-.94-1.87-1.43-2.76-.46-.9-.94-1.89-1.41-2.93-.48-1.04-.92-2-1.36-2.9-.41-.92-.88-1.84-1.34-2.79-.48-.94-.9-1.8-1.22-2.56-.32-.76-.69-1.52-1.06-2.28-.39-.74-.67-1.36-.85-1.84-.21-.46-.39-.85-.58-1.13-.37-.76-.9-1.43-1.57-2-.58-.28-1.13-.41-1.7-.41-.48.18-.85.53-1.13.99-.3.48-.3,1.11,0,1.84.09.76.32,1.57.71,2.42.28.67.32,1.24.14,1.7-.48.76-1.57.94-3.27.58-.39-.09-.78-.18-1.22-.28-.41-.09-.88-.21-1.34-.3-.48-.09-1.15-.16-2-.21-.85-.05-1.93-.07-3.27-.07-6.52,0-13.5.94-20.89,2.83-7,1.82-13.5,4.84-19.46,9.1-5.87,4.17-10.71,9.58-14.51,16.22-3.69,6.73-5.53,14.74-5.53,24.03,0,6.24.99,12.12,2.97,17.62,2,5.6,4.84,10.41,8.55,14.49,3.59,4.17,8.04,7.53,13.36,10.09,5.39,2.46,11.26,3.71,17.62,3.71,1.43,0,2.86-.07,4.33-.21,1.47-.16,2.97-.41,4.49-.78,1.5-.3,2.95-.6,4.33-.92,1.36-.35,2.72-.69,4.05-1.08,1.31-.37,2.53-.76,3.62-1.13,1.08-.37,2.14-.81,3.2-1.29.94-.37,1.75-.69,2.42-.99.65-.28,1.17-.51,1.57-.71,1.8-.94,3.64-1.8,5.53-2.56.94-.37,1.87-.71,2.79-.99.9-.28,1.77-.58,2.63-.85.76-.18,1.5-.37,2.26-.58.76-.18,1.47-.37,2.14-.55,1.22-.3,2.28-.44,3.13-.44h2.83c.18.09.44.16.71.21.28.07.53.14.71.23,1.04.28,1.93.14,2.69-.44.67-.37.39-1.08-.85-2.12-.67-.48-1.38-.85-2.12-1.15-.76-.28-1.38-.67-1.87-1.13-.28-.39-.41-.81-.41-1.29v-13.64Zm-56.87,14.07c-4.17-3.5-7.58-7.49-10.23-11.96-1.31-2.17-2.46-4.42-3.41-6.75-.94-2.3-1.75-4.65-2.42-7.03-1.13-4.65-1.7-8.91-1.7-12.78,0-2,.35-4.61.99-7.83.76-3.5,2.05-6.73,3.85-9.67-1.04,2.76-1.7,5.55-1.98,8.41-.12,1.5-.18,2.86-.23,4.03-.05,1.2-.07,2.26-.07,3.2,0,5.02.62,9.81,1.84,14.37,1.15,4.63,2.95,9.14,5.41,13.5,1.22,2.07,2.65,4.08,4.26,5.97,1.61,1.89,3.36,3.75,5.25,5.55,3.71,3.32,8.34,6.2,13.94,8.66-6.06-1.52-11.22-4.08-15.5-7.67Z"/>
      <path class="cls-3" d="m1582.19,230.49c.09-1.22.16-2.35.16-3.41s.05-2.03.14-2.97c.09-.94.14-1.75.14-2.42,0-.76.05-1.47.14-2.14.09-1.13.23-2.12.44-2.97.18-.58.35-1.15.48-1.7.14-.58.3-1.11.51-1.57.37-.94,1.22-1.38,2.56-1.29,5.6.48,11.03,1.52,16.33,3.13,5.41,1.52,10.71,4.61,15.94,9.24.65.67,1.27,1.04,1.84,1.13.67.21,1.13.25,1.43.16.37-.09.55-.35.55-.71,0-.3-.28-.81-.85-1.57-2.46-2.65-4.17-4.93-5.11-6.82-.48-.85-.97-1.7-1.5-2.56-.51-.85-1.01-1.77-1.5-2.72-.18-.46-.41-.97-.69-1.47-.3-.53-.58-1.13-.85-1.8-.21-.65-.44-1.29-.71-1.91-.3-.62-.53-1.29-.71-2.05l-1.29-3.85c-.18-.58-.32-1.08-.41-1.57-.09-.46-.23-.9-.44-1.27-.46-1.43-1.13-2-1.98-1.7-.76.18-1.04.94-.85,2.26.09.67.16,1.29.21,1.84.05.58.07,1.11.07,1.57,0,.97-.23,1.82-.71,2.56-.09.21-1.31.53-3.69,1.01-2.28.28-4.98.55-8.11.85-1.61.18-3.22.32-4.84.41-1.61.09-3.27.18-4.98.28-1.7.12-3.29.18-4.75.23-1.47.05-2.88.07-4.19.07h-4.42c-.85-.09-1.7-.14-2.56-.14s-1.7-.09-2.56-.3c-.85,0-1.68-.02-2.49-.07-.81-.05-1.59-.12-2.35-.21-1.5-.18-2.6-.32-3.27-.41-.74-.21-1.47-.32-2.19-.37-.71-.05-1.31-.02-1.77.07-.94.09-1.43.48-1.43,1.13s.18,1.2.58,1.57c.28.39.94.76,1.98,1.15.85.28,1.52,1.13,1.98,2.56.39,1.43.67,2.83.85,4.26.12.94.21,1.96.3,3.06.09,1.08.23,2.28.41,3.62.21,1.34.35,2.7.44,4.12.09,1.43.23,2.95.41,4.54.09,1.61.21,3.22.3,4.84.09,1.61.14,3.32.14,5.11.18,1.7.28,3.41.28,5.14v5.11c0,1.7-.02,3.55-.07,5.53-.05,2-.07,4.08-.07,6.27-.18,2.19-.3,4.35-.35,6.54-.07,2.17-.18,4.31-.37,6.38-.09,2.1-.18,4.03-.28,5.83-.09,1.82-.23,3.52-.44,5.14-.18,3.32-.32,5.44-.41,6.38-.09.48-.35,1.11-.71,1.84-.28.58-.71,1.01-1.29,1.29-1.61.76-2.4,1.61-2.4,2.56-.12.85.69,1.17,2.4.99.48-.09,1.06-.14,1.7-.14.76,0,1.61-.09,2.58-.28.94,0,1.91-.02,2.9-.07.99-.05,2-.12,3.06-.23,1.04-.09,2.07-.14,3.11-.14,1.15,0,2.23-.05,3.27-.14,1.06-.09,2.05-.14,2.99-.14h5.25c1.06,0,2.19.05,3.41.14,1.24.09,2.42.14,3.57.14,1.22,0,2.46.05,3.69.14,1.24.12,2.37.16,3.41.16s2.1.05,3.13.14c.94.09,1.75.14,2.42.14s1.17.05,1.57.14c.76.09,1.43.16,2.05.21.62.05,1.27.07,1.93.07,1.13.21,1.7.92,1.7,2.14,0,.67-.21,1.17-.58,1.57-.48.46-.62,1.08-.44,1.84.21.76.62,1.13,1.29,1.13.37,0,.81-.14,1.27-.41.39-.37.62-.71.71-.99.09-.3.81-1.47,2.14-3.55.58-1.06,1.2-2.07,1.91-3.06.71-.99,1.45-2.07,2.21-3.2,2.83-4.08,4.88-6.73,6.1-7.97.58-.55.71-1.08.44-1.54-.3-.39-.85-.39-1.7,0-1.06.46-2.19.97-3.41,1.47-1.24.53-2.63,1.04-4.12,1.5-3.13,1.04-6.22,1.91-9.26,2.56-1.59.39-3.16.74-4.68,1.08-1.52.32-3.09.62-4.7.92-1.61.18-3.09.35-4.4.48-1.34.14-2.6.21-3.85.21-1.13,0-1.94-.23-2.42-.69-.46-.39-.81-1.29-.99-2.72-.18-1.5-.35-3.36-.48-5.53-.16-2.19-.23-4.75-.23-7.69-.09-2.93-.14-6.15-.14-9.65v-11.79l15.92.28c1.15,0,1.7.39,1.7,1.13.21.39.3.81.3,1.29s.05.94.14,1.43v.99c0,.46.09,1.04.28,1.7,0,.67.05,1.34.14,1.98.09.67.16,1.38.16,2.14.09.76.18,1.47.28,2.12.09.67.14,1.38.14,2.14.09.67.18,1.27.28,1.77.09.53.21.97.3,1.36.18.76.46,1.27.85,1.57.28.18.76.28,1.41.28.39-.09.71-.48,1.01-1.13.28-.39.32-1.15.14-2.28-.28-1.52-.58-3.27-.85-5.25-.18-1.06-.35-2.1-.44-3.13-.09-1.04-.18-2.14-.28-3.27-.09-1.04-.16-2.12-.21-3.2-.05-1.08-.07-2.17-.07-3.2-.12-1.04-.14-2-.07-2.9.05-.9.12-1.73.21-2.49.18-1.61.46-3.41.85-5.41.18-.94.39-1.89.65-2.83.23-.94.48-1.96.78-2.99.46-1.98,1.04-3.78,1.7-5.39.37-.76.69-1.5.99-2.21.28-.71.62-1.31.99-1.77.58-.85.48-1.57-.28-2.14-.67-.55-1.29-.46-1.87.3-.28.46-.69,1.17-1.27,2.12-.18.48-.44.99-.71,1.57-.28.58-.53,1.13-.71,1.7-.18.58-.41,1.15-.71,1.7-.28.58-.51,1.11-.71,1.57-.18.48-.35.88-.48,1.2-.14.35-.25.6-.37.78-.46,1.52-1.8,2.19-3.96,2l-16.22-.58v-4.84c0-1.5.05-2.88.14-4.12Zm-17.18,63.55c0,.76-.44,1.13-1.29,1.13s-1.27-.37-1.27-1.13v-82.88c0-.76.41-1.13,1.27-1.13s1.29.37,1.29,1.13v82.88Z"/>
    </g>
    <g>
      <path class="cls-2" d="m493.06,284.58c-.44-5.62-2.65-10.85-6.61-15.69-3.75-4.68-8.64-8.91-14.63-12.72-1.43-1.01-2.99-2.14-4.72-3.39-.76-.69-1.54-1.36-2.33-2.05-.76-.67-1.5-1.45-2.19-2.3-.69-.78-1.31-1.61-1.87-2.49-.55-.88-1.06-1.8-1.47-2.76-.88-2.05-1.17-4.12-.94-6.22.32,2.26,1.08,4.17,2.28,5.71.6.88,1.27,1.7,2,2.46.74.78,1.47,1.54,2.26,2.33,1.45,1.27,3.27,2.65,5.46,4.15.97.67,1.89,1.29,2.79,1.87.9.6,1.8,1.22,2.65,1.89,3.06,2.17,5.69,4.4,7.88,6.66,2.19,2.28,4.05,4.63,5.57,7.09,3.06,4.81,4.35,9.95,3.87,15.46Z"/>
      <path class="cls-2" d="m591.6,295.18c-.18.39-.32.62-.41.71-.76.48-1.29.35-1.57-.44l-9.81-15.34c-3.22-4.93-6.06-10.27-8.52-16.06.28.09.81.14,1.57.14.37-.09.9-.14,1.54-.14l17.07,30.41c.18.21.23.44.14.71Z"/>
      <path class="cls-2" d="m568.01,252.68h-1.29c-.37-.09-1.04-.14-1.98-.14-2.19-3.32-4.17-6.82-5.97-10.53-.76-1.8-1.59-3.57-2.49-5.32-.9-1.75-1.84-3.52-2.79-5.34-.28-.65-.14-1.13.44-1.41.55-.39,1.04-.25,1.43.41l12.65,22.32Z"/>
      <path class="cls-2" d="m636.24,212.16v83.02c0,.67-.39.99-1.15.99s-1.13-.32-1.13-.99v-83.02c0-.65.37-.99,1.13-.99s1.15.35,1.15.99Z"/>
      <path class="cls-2" d="m720.09,291.77c-6.06-1.52-11.22-4.08-15.48-7.67-4.17-3.5-7.58-7.49-10.23-11.96-1.34-2.17-2.49-4.42-3.43-6.75-.94-2.3-1.75-4.65-2.42-7.03-1.13-4.65-1.7-8.91-1.7-12.78,0-2,.35-4.61,1.01-7.83.76-3.5,2.03-6.73,3.82-9.67-1.04,2.76-1.7,5.55-1.98,8.41-.09,1.5-.16,2.86-.21,4.03-.07,1.2-.07,2.26-.07,3.2,0,5.02.6,9.81,1.84,14.37,1.13,4.63,2.93,9.14,5.39,13.5,1.24,2.07,2.65,4.08,4.26,5.97,1.61,1.89,3.36,3.75,5.28,5.55,3.69,3.32,8.34,6.2,13.91,8.66Z"/>
      <path class="cls-2" d="m839.06,290.64c-7.67,0-14.53-1.61-20.59-4.84-6.08-3.22-11.24-7.35-15.5-12.37-2.1-2.46-3.94-5.07-5.55-7.81-1.61-2.76-2.93-5.64-3.96-8.68-2.19-6.24-3.27-12.16-3.27-17.76,0-4.45.51-8.25,1.54-11.38.97-2.93,2.63-5.64,4.98-8.11-1.13,1.7-2.26,4.28-3.41,7.69-1.13,3.41-1.7,6.91-1.7,10.5,0,6.82,1.34,13.18,3.98,19.05,2.56,5.87,6.06,11.19,10.53,15.92,4.45,4.75,9.51,8.64,15.2,11.66,5.51,3.04,11.43,5.07,17.76,6.13Z"/>
      <path class="cls-2" d="m966.72,268.59c-.48.48-.94.53-1.43.14l-63.12-56.71c-.55-.46-.55-.99,0-1.57.48-.46.94-.51,1.43-.14l63.12,56.87c.58.37.58.85,0,1.41Z"/>
      <path class="cls-2" d="m1079.87,271.45c-.67.28-1.15.18-1.43-.3l-35.96-58.69c-.39-.48-.3-.94.28-1.43.58-.28,1.08-.18,1.57.28l35.82,58.72c.37.48.28.94-.28,1.43Z"/>
      <path class="cls-2" d="m1138.15,212.16v83.02c0,.67-.39.99-1.15.99s-1.13-.32-1.13-.99v-83.02c0-.65.37-.99,1.13-.99s1.15.35,1.15.99Z"/>
      <path class="cls-2" d="m1190.16,212.02v83.02c0,.67-.32.99-.99.99-.76,0-1.13-.32-1.13-.99v-83.02c0-.67.37-.99,1.13-.99.67,0,.99.32.99.99Z"/>
      <path class="cls-2" d="m1277.02,212.02v83.02c0,.67-.35.99-1.01.99-.76,0-1.13-.32-1.13-.99v-83.02c0-.67.37-.99,1.13-.99.67,0,1.01.32,1.01.99Z"/>
      <path class="cls-2" d="m1422.42,295.18c-.18.39-.32.62-.41.71-.76.48-1.29.35-1.57-.44l-9.81-15.34c-3.22-4.93-6.06-10.27-8.52-16.06.28.09.81.14,1.57.14.37-.09.9-.14,1.57-.14l17.05,30.41c.18.21.23.44.14.71Z"/>
      <path class="cls-2" d="m1398.83,252.68h-1.29c-.37-.09-1.04-.14-1.98-.14-2.19-3.32-4.17-6.82-5.97-10.53-.76-1.8-1.59-3.57-2.49-5.32-.9-1.75-1.82-3.52-2.76-5.34-.3-.65-.16-1.13.41-1.41.58-.39,1.04-.25,1.43.41l12.65,22.32Z"/>
      <path class="cls-2" d="m1494.63,291.77c-6.06-1.52-11.22-4.08-15.5-7.67-4.17-3.5-7.58-7.49-10.23-11.96-1.31-2.17-2.46-4.42-3.41-6.75-.94-2.3-1.75-4.65-2.42-7.03-1.13-4.65-1.7-8.91-1.7-12.78,0-2,.35-4.61.99-7.83.76-3.5,2.05-6.73,3.85-9.67-1.04,2.76-1.7,5.55-1.98,8.41-.12,1.5-.18,2.86-.23,4.03-.05,1.2-.07,2.26-.07,3.2,0,5.02.62,9.81,1.84,14.37,1.15,4.63,2.95,9.14,5.41,13.5,1.22,2.07,2.65,4.08,4.26,5.97,1.61,1.89,3.36,3.75,5.25,5.55,3.71,3.32,8.34,6.2,13.94,8.66Z"/>
      <path class="cls-2" d="m1565,211.17v82.88c0,.76-.44,1.13-1.29,1.13s-1.27-.37-1.27-1.13v-82.88c0-.76.41-1.13,1.27-1.13s1.29.37,1.29,1.13Z"/>
    </g>
  </g>
</svg>