<?xml version="1.0" encoding="UTF-8"?>
<svg id="Layer_1" data-name="Layer 1" xmlns="http://www.w3.org/2000/svg" xmlns:xlink="http://www.w3.org/1999/xlink" viewBox="0 0 1000 1000">
  <defs>
    <style>
      .cls-1 {
        fill: url(#linear-gradient-15);
      }

      .cls-2 {
        fill: url(#linear-gradient-13);
      }

      .cls-3 {
        fill: url(#linear-gradient-2);
      }

      .cls-4 {
        fill: url(#linear-gradient-10);
      }

      .cls-5 {
        fill: url(#linear-gradient-12);
      }

      .cls-6 {
        fill: #fff;
      }

      .cls-7 {
        fill: url(#linear-gradient-4);
      }

      .cls-8 {
        fill: url(#linear-gradient-3);
      }

      .cls-9 {
        fill: url(#linear-gradient-5);
      }

      .cls-10 {
        fill: url(#linear-gradient-8);
      }

      .cls-11 {
        fill: url(#linear-gradient-14);
      }

      .cls-12 {
        fill: url(#linear-gradient-17);
      }

      .cls-13 {
        fill: url(#linear-gradient-7);
      }

      .cls-14 {
        fill: url(#linear-gradient-9);
      }

      .cls-15 {
        fill: url(#linear-gradient-11);
      }

      .cls-16 {
        fill: url(#linear-gradient-6);
      }

      .cls-17 {
        fill: url(#linear-gradient-16);
      }

      .cls-18 {
        fill: url(#linear-gradient);
      }

      .cls-19 {
        fill: url(#linear-gradient-18);
      }
    </style>
    <linearGradient id="linear-gradient" x1="642.05" y1="497.58" x2="748.51" y2="497.58" gradientUnits="userSpaceOnUse">
      <stop offset="0" stop-color="#e8bb4d"/>
      <stop offset=".38" stop-color="#f5d768"/>
      <stop offset=".7" stop-color="#f3dc77"/>
      <stop offset="1" stop-color="#e0b54b"/>
    </linearGradient>
    <linearGradient id="linear-gradient-2" x1="251.5" y1="555.9" x2="587.46" y2="555.9" xlink:href="#linear-gradient"/>
    <linearGradient id="linear-gradient-3" x1="371.39" y1="629.36" x2="682.72" y2="629.36" xlink:href="#linear-gradient"/>
    <linearGradient id="linear-gradient-4" x1="371.39" y1="207.38" x2="628.52" y2="207.38" xlink:href="#linear-gradient"/>
    <linearGradient id="linear-gradient-5" x1="184.86" y1="467.42" x2="815.13" y2="467.42" xlink:href="#linear-gradient"/>
    <linearGradient id="linear-gradient-6" x1="81.87" y1="899.4" x2="123.8" y2="899.4" xlink:href="#linear-gradient"/>
    <linearGradient id="linear-gradient-7" x1="127.63" y1="899.39" x2="198.83" y2="899.39" xlink:href="#linear-gradient"/>
    <linearGradient id="linear-gradient-8" x1="203.87" y1="899.81" x2="233.39" y2="899.81" xlink:href="#linear-gradient"/>
    <linearGradient id="linear-gradient-9" x1="238.96" y1="897.58" x2="308.42" y2="897.58" xlink:href="#linear-gradient"/>
    <linearGradient id="linear-gradient-10" x1="313.89" y1="899.76" x2="383.35" y2="899.76" xlink:href="#linear-gradient"/>
    <linearGradient id="linear-gradient-11" x1="388.93" y1="900.12" x2="457.47" y2="900.12" xlink:href="#linear-gradient"/>
    <linearGradient id="linear-gradient-12" x1="484.85" y1="899.71" x2="556.95" y2="899.71" xlink:href="#linear-gradient"/>
    <linearGradient id="linear-gradient-13" x1="561.91" y1="899.81" x2="591.43" y2="899.81" xlink:href="#linear-gradient"/>
    <linearGradient id="linear-gradient-14" x1="598.11" y1="900.64" x2="655" y2="900.64" xlink:href="#linear-gradient"/>
    <linearGradient id="linear-gradient-15" x1="660.06" y1="900.64" x2="716.95" y2="900.64" xlink:href="#linear-gradient"/>
    <linearGradient id="linear-gradient-16" x1="720.3" y1="899.39" x2="791.5" y2="899.39" xlink:href="#linear-gradient"/>
    <linearGradient id="linear-gradient-17" x1="791.49" y1="897.58" x2="860.95" y2="897.58" xlink:href="#linear-gradient"/>
    <linearGradient id="linear-gradient-18" x1="867.54" y1="898.51" x2="918.13" y2="898.51" xlink:href="#linear-gradient"/>
  </defs>
  <path class="cls-18" d="M738.68,485.21l9.83-9.8h-86.59l-17.73,17.7c-1.37,1.37-2.14,3.2-2.14,5.15s.76,3.78,2.14,5.15l16.37,16.35h.01c3.45-.21,6.9-.31,10.41-.31h19.51c8.91,0,17.45-3.53,23.75-9.83h-40.35v-4.78h45.13l5.05-5.03h-50.18v-4.78h54.96l5.05-5.03h-60.01v-4.78h64.79ZM652.61,504.17c-3.42,0-6.18-2.76-6.18-6.18s2.76-6.18,6.18-6.18,6.18,2.77,6.18,6.18-2.77,6.18-6.18,6.18Z"/>
  <path class="cls-3" d="M586.11,539.37l-32.55-32.55c-.41-.41-.79-.85-1.12-1.32-20.08,12.4-37.82,28.19-52.44,46.6-37.1-46.73-94.4-76.69-158.72-76.69h-89.79l9.83,9.8h64.8v4.78h-60.02l5.05,5.03h54.97v4.78h-50.2l5.05,5.03h45.15v4.78h-40.37c6.31,6.29,14.85,9.83,23.75,9.83h19.51c70.43,0,130.92,42.64,157.05,103.52l12.4,12.43.99,1h.03s.98-1,.98-1l14.27-14.28c15-33.82,40.65-61.87,72.72-79.87-.34-.68-.79-1.3-1.34-1.87ZM347.4,504.17c-3.41,0-6.18-2.76-6.18-6.18s2.77-6.18,6.18-6.18,6.19,2.77,6.19,6.18-2.77,6.18-6.19,6.18ZM366.9,506.55c-3.42,0-6.18-2.77-6.18-6.19s2.76-6.18,6.18-6.18,6.18,2.77,6.18,6.18-2.77,6.19-6.18,6.19ZM386.38,510.89c-3.41,0-6.18-2.77-6.18-6.18s2.77-6.18,6.18-6.18,6.19,2.76,6.19,6.18-2.77,6.18-6.19,6.18ZM405.88,517.38c-3.42,0-6.18-2.77-6.18-6.18s2.76-6.19,6.18-6.19,6.18,2.77,6.18,6.19-2.77,6.18-6.18,6.18Z"/>
  <path class="cls-8" d="M682.72,549.31v83c0,2.57-1.02,5.03-2.84,6.86l-166.69,166.61c-.48.48-.96.92-1.47,1.33-.51.41-1.03.81-1.57,1.16-1.07.69-2.19,1.29-3.37,1.77-.58.24-1.17.44-1.78.62-1.8.52-3.66.79-5.51.79s-3.72-.27-5.51-.79c-.61-.18-1.2-.38-1.78-.62-1.17-.48-2.3-1.07-3.38-1.77-.54-.35-1.06-.75-1.57-1.16-.51-.41-1-.85-1.47-1.33l-108.7-108.7c-7.56-7.58-7.56-19.85,0-27.43l69.3-69.3c1.89-1.89,4.38-2.84,6.86-2.84s4.98.95,6.87,2.84l23.94,23.99,4.41,4.41h0s3.96,3.99,3.96,3.99h.01s.01.01.01.01l4.34,4.36-.41.41-45.84,45.84,48.97,48.97,48.95-48.97-45.77-45.78-.47-.47,3.72-3.72,6.33-6.35,4.52-4.52,71.06-71.14c.24-.24.45-.48.66-.74.41-.51.76-1.05,1.06-1.61.14-.28.28-.57.4-.86.13-.28.23-.59.31-.89.08-.3.16-.59.21-.91.06-.27.1-.55.13-.82.04-.37.06-.72.06-1.09,0-.25-.01-.52-.04-.78-.01-.18-.03-.38-.07-.58-.01-.04-.01-.1-.03-.14-.03-.18-.06-.37-.1-.55,0-.01-.01-.04-.01-.06-.08-.4-.2-.79-.34-1.16-.06-.16-.11-.31-.17-.45,0-.01-.01-.01-.01-.03-.1-.21-.2-.44-.31-.65-.03-.06-.06-.1-.08-.16-.11-.21-.24-.42-.37-.64-.37-.58-.81-1.12-1.3-1.61l-32.54-32.55c-.18-.18-.35-.37-.51-.57-.1-.1-.17-.2-.25-.31-.2-.24-.38-.5-.55-.76-.11-.17-.23-.35-.31-.54l-.04-.08c-.04-.07-.08-.13-.11-.2-.1-.18-.18-.37-.27-.57,0-.01-.01-.01-.01-.03-.13-.3-.24-.59-.33-.91-.04-.11-.07-.23-.1-.34l-.08-.34c-.04-.11-.07-.24-.08-.37-.06-.3-.1-.58-.13-.88-.01-.1-.03-.2-.03-.28-.01-.23-.03-.47-.03-.69,0-2.47.95-4.95,2.83-6.84l31.86-31.93c6.21-2.5,12.57-4.64,19.06-6.38-.28,6.07-2.73,12.03-7.34,16.66l-18.75,18.79-4.78,4.78-4.91,4.92,28.41,28.41c1.98,1.98,3.56,4.23,4.75,6.62.37.72.68,1.46.96,2.21,3.45,9.01,1.54,19.63-5.7,26.88l-74.66,74.74,35.25,35.25c2.91,2.91,4.55,6.87,4.55,11s-1.64,8.07-4.55,11l-48.97,48.95c-3.03,3.04-7.01,4.57-10.99,4.57s-7.96-1.53-11-4.57l-48.96-48.95c-2.91-2.93-4.55-6.87-4.55-11s1.64-8.09,4.55-11l35.26-35.26-21.56-21.61-65.15,65.15c-.93.93-1.13,1.99-1.13,2.71s.2,1.78,1.13,2.71l108.7,108.7c.93.92,1.99,1.12,2.72,1.12s1.78-.2,2.71-1.12l164.97-164.9v-78.13l-27.11-27.05-2.06-2.06-6.5-6.49c-4.78-4.78-7.41-11.11-7.41-17.87s2.63-13.11,7.41-17.87l3.61-3.61,2.76-2.76,19.36-19.31c.93-.92,1.13-1.98,1.13-2.71s-.2-1.78-1.13-2.72l-1.99-1.99h18.1c1.6,6.41-.11,13.45-5.12,18.44l-7.27,7.25-2.43,2.43-16.02,15.99c-3.79,3.78-3.79,9.93,0,13.72l14.89,14.86,2.26,2.26,20.25,20.21c1.82,1.81,2.84,4.28,2.84,6.86Z"/>
  <path class="cls-7" d="M610.89,130.8c.93-.93,1.13-1.99,1.13-2.71s-.2-1.78-1.13-2.71l-108.7-108.7c-.92-.92-1.98-1.12-2.7-1.12s-1.8.2-2.72,1.12l-108.7,108.7c-1.5,1.5-1.5,3.93,0,5.43l65.15,65.15,21.56-21.61-35.26-35.26c-2.91-2.91-4.55-6.87-4.55-11s1.64-8.07,4.55-11l48.96-48.97c3.04-3.03,7.01-4.55,11-4.55s7.96,1.53,10.99,4.55l48.97,48.97c2.91,2.93,4.55,6.87,4.55,11s-1.64,8.09-4.55,11l-125.12,125.12c-.93.93-1.13,1.99-1.13,2.71s.2,1.78,1.13,2.71l139.15,139.08c-5.4,1.78-10.73,3.79-15.96,6.04l-134.18-134.11c-7.56-7.58-7.58-19.85,0-27.43l125.12-125.12-48.95-48.97-48.97,48.97,39.39,39.39c3.79,3.79,3.79,9.93.01,13.72l-36.69,36.76-76.17-76.16c-7.56-7.58-7.56-19.85,0-27.43L485.77,5.68c3.79-3.79,8.75-5.68,13.72-5.68s9.93,1.89,13.7,5.68l108.7,108.69c7.58,7.58,7.58,19.85,0,27.43l-118.26,118.26c-3.79,3.79-3.79,9.93,0,13.72l124.89,124.82c-6.77.3-13.47.93-20.12,1.89l-115.77-115.72c-4.77-4.76-7.39-11.11-7.39-17.86s2.62-13.08,7.39-17.86l118.26-118.26Z"/>
  <path class="cls-9" d="M712.62,410.6v4.78h87.95l-5.05,5.03h-73.78v4.78h69l-5.05,5.03h-56.13v4.78h51.35c-6.33,6.31-14.9,9.86-23.84,9.86h-107.01c-64.74,0-121.09,36.04-150.06,89.15-28.99-53.11-85.33-89.15-150.08-89.15h-107.01c-8.94,0-17.5-3.55-23.82-9.86h53.49v-4.78h-58.27l-5.05-5.03h70v-4.78h-74.78l-5.05-5.03h87.93v-4.78h-92.73l-9.78-9.77h177.32c53.24,0,101.66,20.53,137.82,54.11,18.07-16.8,39.22-30.32,62.5-39.65,23.29-9.33,48.7-14.46,75.32-14.46h177.31l-9.78,9.77h-92.73Z"/>
  <g>
    <path class="cls-16" d="M106.94,868.33c1.69,0,3.14.23,4.35.71,1.35.54,2.5,1.18,3.45,1.92.95.74,1.73,1.63,2.33,2.63.61.89,1.02,1.84,1.22,2.84.13.61.26,1.02.41,1.22.26.41.49.64.71.71.2.15.44.12.71-.1.13-.07.35-.39.61-1l2.94-9.04c.35-1.07.03-1.79-.92-2.12-.67-.28-1.89-.54-3.65-.82-.94-.13-2-.23-3.19-.3-1.18-.07-2.51-.1-4.01-.1-4.26,0-8,.48-11.26,1.41-1.54.48-3.04,1.05-4.45,1.73-1.43.69-2.78,1.53-4.06,2.55-2.23,1.76-4.06,4.09-5.47,7-1.36,3.06-2.04,5.8-2.04,8.23,0,2.56.38,4.91,1.12,7,.67,1.91,1.66,3.7,2.94,5.39,1.15,1.41,2.53,2.84,4.16,4.26.74.69,1.53,1.33,2.33,1.94.81.61,1.63,1.25,2.43,1.92.95.76,1.87,1.48,2.79,2.19.9.72,1.77,1.41,2.58,2.09.74.61,1.48,1.22,2.19,1.82.71.61,1.33,1.25,1.87,1.94,1.15,1.28,2.02,2.6,2.63,3.96.61,1.41.92,3.04.92,4.86,0,1.36-.28,2.58-.81,3.66-.54,1.02-1.18,1.79-1.94,2.33-.61.54-1.48.99-2.63,1.31-.81.28-1.79.41-2.94.41-1.63,0-3.32-.26-5.08-.81-1.48-.48-2.94-1.22-4.35-2.23-1.35-.95-2.46-1.99-3.35-3.14-.94-1.28-1.64-2.55-2.12-3.76-.54-1.41-.82-2.4-.82-2.94-.13-.67-.23-1.15-.3-1.41-.2-.87-.61-1.31-1.22-1.31-.35,0-.71.26-1.12.81-.2.28-.39.54-.56.81-.16.28-.33.54-.46.82-.2.41-.39,1.15-.61,2.23-.2.94-.3,1.76-.3,2.43,0,.94.13,1.82.39,2.63.28.95.37,4.23-.2,5.47-1.2,2.63,1.22,3.66,2.65,3.25,1.54-.35,2.86-.51,3.94-.51h1.12c.41,0,.89.03,1.41.1.54.07,1.08.1,1.63.1s1.12.07,1.73.21c.54,0,1.12.02,1.73.05s1.18.08,1.73.15c.54.07,1.05.1,1.51.1h1.23c2.02,0,3.81-.2,5.37-.61,1.48-.26,2.83-.77,4.04-1.51.54-.35,1.08-.72,1.63-1.12.54-.41,1.05-.85,1.53-1.33.46-.46.92-.95,1.36-1.46.44-.51.94-1.04,1.48-1.58.53-.54,1-1.12,1.41-1.77.41-.64.77-1.3,1.12-1.97.67-1.28,1.22-2.56,1.63-3.85.39-1.36.71-2.61.9-3.76.2-1.22.31-2.33.31-3.34,0-1.56-.11-3.22-.31-4.98-.13-1.69-.54-3.37-1.22-5.06-.35-.89-.76-1.76-1.27-2.65-.51-.87-1.1-1.79-1.77-2.73-.67-.95-1.5-1.92-2.43-2.89-.95-.99-2-2.02-3.15-3.11-1.96-1.74-3.75-3.24-5.37-4.45-.81-.61-1.56-1.2-2.27-1.77-.72-.58-1.38-1.13-1.99-1.68-1.15-1.08-2.05-2.19-2.73-3.34-.69-1.08-1.02-2.48-1.02-4.16,0-1.91.67-3.45,2.02-4.67,1.28-1.22,3.55-1.82,6.8-1.82ZM99.83,901.38c2.19,1.54,4.06,3.14,5.62,4.75,1.56,1.63,2.89,3.3,3.98,5.06,2.19,3.43,3.11,7.1,2.76,11.03-.31-4.01-1.89-7.74-4.72-11.19-2.68-3.34-6.16-6.36-10.43-9.07-1.02-.72-2.14-1.53-3.37-2.42-.54-.49-1.1-.97-1.66-1.46-.54-.48-1.07-1.04-1.56-1.64-.49-.56-.94-1.15-1.33-1.77-.39-.62-.76-1.28-1.05-1.97-.62-1.46-.84-2.94-.67-4.44.23,1.61.77,2.97,1.63,4.08.43.62.9,1.22,1.43,1.76.53.56,1.05,1.1,1.61,1.66,1.04.9,2.33,1.89,3.89,2.96.69.48,1.35.92,1.99,1.33.64.43,1.28.87,1.89,1.35Z"/>
    <path class="cls-13" d="M198.3,930.89c-.15-.26-.33-.54-.56-.81-.25-.28-.49-.58-.76-.92-1.08-1.41-2.38-3.42-3.86-5.98-.74-1.28-1.53-2.61-2.33-4.01-.81-1.38-1.66-2.81-2.53-4.31-.82-1.48-1.63-2.96-2.43-4.4-.82-1.46-1.59-2.92-2.33-4.42-.76-1.41-1.46-2.73-2.14-3.96-.67-1.22-1.28-2.28-1.82-3.24-.33-.67-.72-1.41-1.17-2.23-.44-.81-.92-1.68-1.46-2.63-.54-.95-1.1-1.94-1.68-2.99-.58-1.05-1.17-2.15-1.77-3.3-.54-1.15-1.12-2.28-1.73-3.39-.61-1.12-1.25-2.25-1.92-3.4-1.22-2.3-2.33-4.44-3.35-6.39-.54-.95-1.04-1.84-1.46-2.69-.44-.84-.84-1.63-1.17-2.37-.35-.69-.62-1.25-.87-1.68-.23-.44-.43-.81-.56-1.07-.48-1.08-.97-1.63-1.51-1.63-.54-.13-1.02.31-1.43,1.31-.13.21-.31.56-.56,1.07-.23.51-.53,1.17-.85,1.99-.35.81-.74,1.71-1.22,2.73-.48,1.02-.99,2.1-1.53,3.25-.54,1.15-1.1,2.37-1.68,3.65-.57,1.28-1.2,2.63-1.87,4.06-.67,1.35-1.31,2.73-1.92,4.16-.61,1.41-1.25,2.83-1.92,4.26-.67,1.41-1.31,2.79-1.92,4.16-.61,1.35-1.22,2.69-1.82,4.06-.54,1.35-1.07,2.58-1.58,3.7-.51,1.12-1,2.14-1.48,3.09l-3.94,8.51c-.67,1.43-1.35,2.78-1.99,4.06-.64,1.28-1.27,2.5-1.87,3.65-.54,1.15-1.07,2.19-1.56,3.11-.51.9-.97,1.74-1.38,2.48-.81,1.54-1.31,2.37-1.51,2.43-.82.54-1.22,1.15-1.22,1.82,0,.74.36,1.12,1.12,1.12.46,0,1.31-.1,2.53-.31.61-.07,1.13-.12,1.56-.15.44-.03.81-.05,1.07-.05.28,0,.58.02.92.05.33.03.77.08,1.31.15.54.07.99.12,1.31.16.35.03.64.05.92.05.48,0,.87-.21,1.22-.61.26-.35.41-.64.41-.92,0-.26-.44-.54-1.33-.81-.94-.35-1.28-1.08-1-2.23.07-.26.18-.67.35-1.22.16-.54.39-1.22.66-2.04.28-.81.57-1.66.92-2.58.33-.9.71-1.87,1.12-2.89.33-1,.71-2.04,1.12-3.09.39-1.05.81-2.1,1.22-3.19.39-1.08.81-2.09,1.22-2.99.39-.92.77-1.74,1.12-2.5.39-.26,1.31-.49,2.73-.71.67-.07,1.36-.13,2.09-.2.71-.07,1.5-.1,2.38-.1.87-.13,1.76-.21,2.63-.21h2.84c1.96-.13,3.96-.13,5.98,0,.95,1.82,1.86,3.66,2.74,5.49.87,1.82,1.76,3.65,2.63,5.47.81,1.76,1.61,3.47,2.38,5.11.77,1.66,1.51,3.27,2.19,4.83.26.67.39,1.15.39,1.41.15.41.15.77,0,1.12-.2.33-.49.51-.9.51-.48,0-.81.03-1.02.1-.13.07-.28.13-.46.2-.16.07-.31.1-.44.1-.28.21-.41.48-.41.82,0,.48.26.81.81,1,.28.08.54.13.82.16.26.03.57.05.9.05h.82c.39,0,.9-.03,1.51-.1.54-.08,1.12-.12,1.73-.12.67,0,1.38-.07,2.14-.2.74,0,1.43-.02,2.07-.05.64-.03,1.3-.08,1.97-.15.61-.07,1.12-.1,1.53-.1h3.35c.54.07,1.12.1,1.73.1s1.25.03,1.92.1c.61.07,1.18.1,1.73.1h1.73c.54.07.94.1,1.22.1h.61c.74,0,1.12-.43,1.12-1.31.07-.26-.11-.67-.51-1.22ZM157.12,899.77c-.54-.07-1.07-.11-1.61-.11-.48,0-.99-.03-1.53-.1-.54-.07-1.05-.1-1.51-.1-.41,0-.85-.07-1.33-.2-.39,0-.76-.03-1.05-.1-.31-.08-.61-.15-.87-.21.13-.61.38-1.35.71-2.23.28-1,.67-2.12,1.22-3.34.21-.54.41-1.08.61-1.63.21-.54.44-1.08.72-1.63.39-1.07.74-1.82,1-2.22.41.67.87,1.43,1.38,2.27.49.85,1.02,1.77,1.56,2.79.54,1.02,1.12,2.09,1.73,3.2.61,1.1,1.25,2.3,1.92,3.6h-2.94ZM164.73,899.45c-.26-.07-.74-.1-1.41-.1-1.56-2.37-2.97-4.86-4.26-7.51-.54-1.28-1.13-2.55-1.77-3.8-.64-1.25-1.31-2.51-1.99-3.81-.2-.46-.1-.81.31-1,.39-.28.74-.18,1.02.3l9.02,15.92h-.92ZM182.48,929.77c-.13.28-.23.44-.3.51-.54.35-.92.25-1.12-.31l-7-10.94c-2.3-3.52-4.32-7.33-6.08-11.45.2.07.58.1,1.12.1.26-.07.64-.1,1.1-.1l12.18,21.69c.13.15.16.31.1.51Z"/>
    <path class="cls-10" d="M232.98,932.51c-.13-.07-.3-.13-.51-.21-.2-.07-.44-.13-.71-.2-.26-.07-.54-.1-.81-.1h-.61c-.35.13-.85.1-1.53-.1-1.15-.54-1.86-1.79-2.14-3.76-.07-.26-.1-.67-.1-1.22s-.03-1.25-.1-2.12c-.07-.89-.1-1.86-.1-2.94v-3.65c-.07-1.28-.1-2.65-.1-4.06v-19.98c0-1.76.03-3.48.1-5.18.07-1.68.1-3.27.1-4.77s.07-3.01.2-4.35c0-1.35.05-2.56.11-3.65.07-1.08.16-2.1.3-3.04.07-1.69.25-2.78.51-3.25.48-.81,1.05-1.25,1.73-1.31.61-.07,1.22-.23,1.82-.51.95-.54,1.41-.94,1.41-1.22,0-.74-.67-1.12-2.02-1.12h-1.41c-.35.07-.69.12-1.02.12h-1.12c-.35.07-.71.1-1.12.1h-1.22c-.41.07-.81.1-1.22.1h-2.33c-.48,0-1.05-.03-1.73-.1-.67-.07-1.38-.1-2.12-.1-.69,0-1.4-.08-2.14-.21-.74,0-1.51-.03-2.28-.1-.77-.07-1.53-.1-2.28-.1-.74-.13-1.41-.21-2.02-.21h-1.73c-.35,0-.67.02-1.02.07-.33.03-.67.08-1,.15-.61.13-.92.36-.92.71,0,.54.41.94,1.22,1.22.13.07.36.13.66.2.31.07.62.1.97.1.67.2,1.18.61,1.51,1.22.21.26.41,1.31.61,3.14.15.87.25,1.84.31,2.92.07,1.08.16,2.25.3,3.53.07,1.28.15,2.61.21,3.99.07,1.38.13,2.86.2,4.4.07,1.54.11,3.06.15,4.5s.05,2.88.05,4.29-.02,2.96-.05,4.6c-.03,1.66-.05,3.42-.05,5.31-.13,1.89-.21,3.75-.25,5.57-.03,1.81-.08,3.6-.15,5.34-.08,1.76-.15,3.37-.21,4.81-.07,1.45-.13,2.81-.2,4.09-.07,1.28-.13,2.25-.2,2.92-.08.67-.15,1.08-.21,1.22-.26.61-.71.9-1.31.9-.35.15-.67.21-1.02.21h-1c-.69,0-1.12.18-1.33.54-.13.43-.2.76-.2.97,0,1.02.38,1.53,1.12,1.53.48,0,1.51-.1,3.14-.31.74-.07,1.58-.12,2.48-.15.92-.03,1.84-.05,2.79-.05h1.82c.67,0,1.46.07,2.33.2.89,0,1.74.03,2.58.1.85.08,1.74.18,2.69.31.95.07,1.84.13,2.69.2.84.07,1.63.12,2.38.12.74.13,1.38.2,1.92.2h1.41c.61,0,1.12-.1,1.53-.31.39-.2.61-.48.61-.81,0-.48-.15-.71-.41-.71ZM214.32,929.77c0,.48-.28.71-.82.71s-.81-.23-.81-.71v-59.22c0-.46.26-.71.81-.71s.82.25.82.71v59.22Z"/>
    <path class="cls-14" d="M303.65,911.83c.07-.67.1-1.31.1-1.92v-7.1c0-1.36.21-2.33.61-2.94.28-.61,1.12-1.12,2.55-1.53.33-.07.71-.3,1.1-.71.28-.26.41-.61.41-1.02,0-.33-.13-.64-.41-.9-.33-.21-.77-.31-1.31-.31h-21.59c-1.63,0-2.43.35-2.43,1.02-.21.67.26,1.22,1.41,1.63.61.2,1.35.26,2.23.2.87-.07,1.73.16,2.53.71.54.48.92.99,1.12,1.53.2.61.31,1.18.31,1.73l-.31,19.97c0,1.43-.23,2.51-.71,3.25-.54.81-1.76,1.22-3.65,1.22-5.01,0-9.4-.99-13.18-2.94-3.66-1.89-6.8-4.47-9.43-7.71-2.58-3.11-4.5-6.75-5.78-10.96-1.28-4.04-1.92-8.27-1.92-12.67,0-3.24.51-6.28,1.51-9.12,1.02-2.91,2.43-5.41,4.26-7.51,1.76-2.02,3.96-3.68,6.59-4.96,2.51-1.22,5.31-1.82,8.43-1.82,2.02,0,4.32.61,6.89,1.82,2.43,1.22,4.77,2.63,7,4.26,1.15.81,2.2,1.63,3.14,2.43.95.81,1.86,1.59,2.74,2.33,1.63,1.56,2.69,2.63,3.24,3.24.54.61,1.08.99,1.63,1.12.61.15,1.08.07,1.43-.2.26-.2.46-.58.61-1.12.07-.48-.11-1.02-.51-1.63-.15-.2-.33-.46-.56-.81-.25-.35-.49-.77-.76-1.31-.28-.54-.56-1.08-.87-1.63-.3-.54-.62-1.15-.97-1.82-.33-.67-.67-1.33-1-1.97-.35-.64-.67-1.35-1.02-2.09s-.66-1.43-.97-2.07c-.3-.66-.62-1.31-.95-1.99-.35-.67-.62-1.28-.87-1.82-.23-.54-.49-1.08-.76-1.63-.26-.53-.48-.97-.61-1.31-.13-.33-.26-.61-.41-.81-.26-.54-.64-1.02-1.12-1.43-.39-.2-.81-.3-1.22-.3-.33.13-.61.38-.81.71-.2.35-.2.79,0,1.31.07.54.23,1.12.51,1.73.2.48.23.89.1,1.22-.35.54-1.12.67-2.33.41-.26-.07-.56-.13-.85-.2-.31-.07-.62-.15-.97-.21-.35-.07-.81-.12-1.41-.15-.61-.03-1.4-.05-2.33-.05-4.67,0-9.63.67-14.9,2.02-5.01,1.3-9.65,3.45-13.9,6.49-4.19,2.97-7.64,6.84-10.34,11.57-2.65,4.8-3.96,10.52-3.96,17.14,0,4.45.71,8.64,2.14,12.57,1.41,3.99,3.45,7.43,6.08,10.34,2.56,2.97,5.75,5.37,9.53,7.2,3.86,1.76,8.05,2.65,12.57,2.65,1.02,0,2.05-.05,3.09-.15,1.05-.12,2.12-.3,3.2-.56,1.08-.21,2.1-.43,3.09-.66.99-.25,1.94-.49,2.89-.77.94-.26,1.81-.54,2.58-.81.79-.26,1.54-.58,2.28-.92.67-.26,1.25-.49,1.73-.71.48-.2.84-.36,1.12-.51,1.28-.67,2.6-1.28,3.96-1.82.67-.26,1.33-.51,1.97-.71.64-.2,1.27-.41,1.87-.61.54-.13,1.08-.26,1.63-.41.54-.13,1.05-.26,1.51-.39.89-.21,1.63-.31,2.23-.31h2.04c.13.07.3.12.49.15.21.05.38.1.51.16.74.2,1.38.1,1.92-.31.48-.26.28-.77-.61-1.51-.46-.35-.97-.61-1.51-.82-.54-.2-.99-.48-1.31-.81-.21-.28-.31-.58-.31-.92v-9.73ZM263.1,921.87c-2.97-2.5-5.41-5.34-7.3-8.53-.95-1.54-1.77-3.15-2.45-4.81-.67-1.64-1.25-3.32-1.73-5.01-.81-3.32-1.22-6.36-1.22-9.12,0-1.43.25-3.29.72-5.59.54-2.5,1.45-4.8,2.73-6.9-.74,1.97-1.22,3.96-1.41,6-.07,1.07-.12,2.04-.15,2.88-.05.85-.05,1.61-.05,2.28,0,3.58.43,7,1.31,10.25.81,3.3,2.09,6.52,3.85,9.63.89,1.48,1.89,2.91,3.04,4.26,1.15,1.35,2.4,2.68,3.76,3.96,2.63,2.37,5.95,4.42,9.93,6.18-4.32-1.08-8-2.91-11.04-5.47Z"/>
    <path class="cls-4" d="M381.13,885.77c-1.43-3.99-3.48-7.54-6.19-10.65-2.69-3.11-6.01-5.57-9.92-7.39-3.86-1.82-8.25-2.74-13.2-2.74-3.91,0-8.18.67-12.77,2.02-4.54,1.36-8.63,3.45-12.27,6.29-3.71,2.84-6.79,6.52-9.22,11.06-2.45,4.58-3.66,10.04-3.66,16.32,0,4.47.85,8.73,2.55,12.78,1.61,4.12,3.94,7.74,6.98,10.85,1.5,1.56,3.14,2.96,4.93,4.21,1.79,1.25,3.76,2.35,5.93,3.3,4.12,1.82,8.77,2.73,13.98,2.73,3.19,0,6.29-.51,9.33-1.51,2.97-1.02,5.78-2.43,8.41-4.27,2.58-1.74,4.93-3.81,7.1-6.18,2.1-2.3,3.93-4.83,5.47-7.61.76-1.35,1.41-2.69,1.99-4.06.58-1.35,1.1-2.76,1.56-4.26.82-2.84,1.22-5.6,1.22-8.31,0-4.39-.74-8.58-2.22-12.57ZM344.32,923.08c-4.34-2.3-8.02-5.24-11.06-8.82-1.5-1.76-2.81-3.62-3.96-5.57-1.15-1.97-2.09-4.03-2.83-6.19-1.56-4.45-2.33-8.68-2.33-12.67,0-3.17.36-5.88,1.1-8.12.69-2.09,1.87-4.03,3.55-5.78-.81,1.22-1.61,3.06-2.43,5.49-.81,2.43-1.22,4.93-1.22,7.49,0,4.86.95,9.4,2.84,13.59,1.82,4.19,4.32,7.99,7.51,11.35,3.17,3.39,6.79,6.16,10.85,8.31,3.93,2.17,8.15,3.62,12.67,4.37-5.47,0-10.37-1.15-14.69-3.45ZM370.07,919.94c-2.56,2.02-5.98,3.04-10.24,3.04-2.23,0-4.67-.48-7.31-1.43-1.22-.39-2.43-.92-3.65-1.56-1.22-.64-2.4-1.38-3.55-2.19-2.37-1.48-4.63-3.35-6.79-5.57-2.1-2.1-3.96-4.37-5.59-6.8-.74-1.22-1.43-2.45-2.07-3.7-.64-1.25-1.2-2.55-1.68-3.91-.87-2.43-1.31-5-1.31-7.71s.23-5,.71-7.1c.28-1.15.59-2.19.97-3.14.36-.95.82-1.86,1.36-2.74.54-.81,1.15-1.53,1.82-2.17.67-.64,1.46-1.2,2.33-1.68,1.76-.95,3.81-1.41,6.19-1.41,3.04,0,6.01.67,8.92,2.02,2.83,1.35,5.44,3.07,7.81,5.18,2.5,2.23,4.7,4.67,6.59,7.3.94,1.35,1.84,2.74,2.68,4.16.85,1.41,1.64,2.88,2.38,4.35.67,1.5,1.28,2.94,1.82,4.37.54,1.41.99,2.83,1.33,4.26.74,2.97,1.12,5.5,1.12,7.61,0,3.85-1.3,6.79-3.86,8.82Z"/>
    <path class="cls-15" d="M456.86,866.19c-.54-.13-1.05-.2-1.51-.2h-.92c-.26,0-.58.03-.9.1-.28.07-.57.1-.92.1h-2.53c-.35-.07-.71-.1-1.12-.1h-1.02c-.33-.07-.71-.1-1.12-.1h-1c-.35-.07-.66-.1-.92-.1h-.61c-1.02,0-1.86.08-2.53.28-.67.05-1.02.36-1.02.92,0,.51.26.82.81.94.69.13,1.33.18,1.94.18,1,0,1.89.11,2.63.31.82.2,1.25.74,1.31,1.63.07.46.15,1.04.21,1.73.07.67.16,1.48.3,2.43.21,1.96.41,4.03.61,6.18.07,1.15.13,2.32.21,3.5.07,1.18.16,2.42.3,3.7.07,1.28.13,2.5.2,3.65.07,1.15.11,2.3.11,3.45.13,1.15.2,2.2.2,3.15v2.73c.07,1.69.07,2.88,0,3.55-1.35-.94-2.79-2.04-4.31-3.29-1.53-1.27-3.17-2.66-4.93-4.22-3.43-3.04-6.95-6.34-10.53-9.92-1.82-1.82-3.6-3.65-5.32-5.47-1.73-1.84-3.4-3.63-5.03-5.39-1.54-1.76-2.99-3.39-4.31-4.91-1.31-1.51-2.48-2.88-3.5-4.09-.54-.69-1.22-1.02-2.02-1.02h-17.45c-1.15,0-1.73.26-1.73.81,0,.35.18.67.51,1.02.28.26.64.39,1.12.39h1.63c.61-.07,1.08.07,1.41.41.41.35.67.81.82,1.41.07.28.13.58.2.92.07.33.1.74.1,1.22.13,1.48.2,3.17.2,5.06v6.39c.07,4.73-.03,9.74-.3,15-.13,2.84-.3,5.57-.46,8.17-.16,2.61-.35,5.09-.56,7.46-.13,2.37-.35,4.73-.66,7.1-.3,2.37-.66,4.73-1.07,7.1-.07.26-.16.53-.3.76-.15.23-.28.49-.41.76-.26.48-.64.72-1.12.72-.33,0-.9.16-1.73.49-.61.35-.9.79-.9,1.33,0,.33.13.61.39.81.28.13.51.2.72.2h.81c.41,0,.87-.03,1.41-.1.54-.07,1.08-.1,1.63-.1h4.26c.54.07,1.05.1,1.53.1.54,0,1.08.03,1.63.1.53.07,1,.1,1.41.1h1.41c.48.08.85.12,1.12.12h.61c.35,0,.79-.08,1.33-.21.39-.07.61-.43.61-1.05,0-.9-.66-1.46-1.94-1.68-.2-.07-.57-.1-1.12-.1-.26.07-.71.1-1.31.1h-1.22c-.41-.15-.64-.28-.71-.41-.28-.33-.41-.81-.41-1.41.07-.28.08-.61.05-1.02-.03-.39-.08-.87-.15-1.41-.13-1.15-.25-2.42-.36-3.8-.1-1.38-.21-2.96-.35-4.72-.13-1.74-.25-3.52-.31-5.31-.07-1.79-.1-3.63-.1-5.52-.13-1.89-.2-3.75-.2-5.57s.03-3.75.1-5.57c.07-1.74.13-3.39.2-4.9.07-1.53.18-2.92.31-4.21,1.63.94,4.16,2.97,7.61,6.08,1.76,1.54,3.73,3.3,5.93,5.26,2.19,1.96,4.68,4.12,7.44,6.47,4.47,3.85,8.79,7.87,12.98,12.04,2.1,2.04,4.04,3.93,5.83,5.69,1.79,1.74,3.4,3.4,4.81,4.95.87.95,1.64,1.76,2.28,2.43.64.67,1.2,1.25,1.68,1.73.46.48.85.89,1.17,1.22.3.35.56.58.76.71.67.54,1.28.85,1.82.92.41.07.58-.35.51-1.22-.13-1.35-.21-2.99-.25-4.91-.05-1.92-.03-4.17.05-6.74.07-2.56.11-5.39.15-8.5.03-3.11.11-6.52.25-10.24.07-1.76.1-3.47.1-5.16s.07-3.48.21-5.16c0-1.69.02-3.3.05-4.81.03-1.51.08-2.96.15-4.31.07-1.35.1-2.56.1-3.65v-3.14c.07-.87.1-1.58.1-2.12v-1.02c0-1.2.15-2.22.41-3.02.28-.89.67-1.5,1.22-1.82.28-.13.53-.28.77-.41.23-.13.41-.26.54-.41.35-.2.51-.46.51-.81s-.2-.58-.61-.71ZM450.08,910.81c-.35.35-.67.38-1.02.1l-45.02-40.46c-.39-.33-.39-.71,0-1.12.35-.33.67-.36,1.02-.1l45.02,40.57c.41.26.41.61,0,1Z"/>
    <path class="cls-5" d="M556.34,866.29c-.54-.13-1.02-.2-1.43-.2h-8.61c-.74,0-1.46.1-2.14.3-.67.08-1,.41-1,1.02,0,.54.1.85.3.92.07.07.16.12.31.15.13.03.26.12.39.25.13.15.31.26.51.36s.38.21.51.36c.26.26.3.71.1,1.31l-10.75,35.69c-.13.35-.23.62-.3.85-.08.25-.18.49-.31.77-.2.39-.54.61-1.02.61-.39,0-.74-.21-1-.61-.28-.28-.58-.76-.92-1.43l-20.18-35.08c-.13-.2-.26-.43-.41-.66-.13-.23-.26-.49-.39-.76-.21-.48-.07-.85.39-1.12.28-.13.56-.28.87-.41.3-.13.62-.26.95-.41.69-.26,1.02-.64,1.02-1.1s-.2-.92-.61-1.33c-.35-.39-.77-.61-1.31-.61-1.08,0-2.3.18-3.65.51-.67.13-1.76.21-3.25.21h-12.37c-.46,0-.94-.05-1.41-.12-.54-.07-1.02-.1-1.41-.1-.35,0-.69-.03-1.02-.1-.48-.07-.95-.03-1.41.1-.21.07-.41.13-.61.21-.21.07-.44.16-.72.3-.39.13-.61.44-.61.92,0,.39.21.84.61,1.31.28.54.67,1.05,1.22,1.51.54.61,1.13,1.36,1.77,2.23.64.89,1.35,1.89,2.09,3.04.74,1.15,1.51,2.37,2.33,3.65.81,1.3,1.69,2.71,2.63,4.27.89,1.48,1.79,3.04,2.74,4.65.94,1.63,1.92,3.32,2.94,5.08,1.02,1.76,2.04,3.5,3.09,5.23,1.05,1.73,2.12,3.47,3.19,5.23.95,1.61,1.89,3.15,2.79,4.6.92,1.46,1.74,2.83,2.48,4.11,1.5,2.58,2.91,4.91,4.26,7,.62,1.02,1.18,1.99,1.73,2.94.54.95,1.08,1.86,1.63,2.74.54.87,1.04,1.73,1.48,2.53.43.81.85,1.63,1.27,2.43.26.54.53,1.08.76,1.63.23.54.43,1.05.56,1.51.33.95.84,1.43,1.53,1.43.94,0,1.48-.41,1.61-1.22.07-.41.16-.87.31-1.38.13-.51.26-1.02.39-1.56.28-1.15.89-2.91,1.84-5.27.46-1.15.94-2.32,1.41-3.5.48-1.18.99-2.38,1.51-3.6.54-1.22,1.07-2.4,1.58-3.55.51-1.15,1-2.27,1.48-3.35.46-1.08.87-2,1.22-2.78.33-.79.61-1.41.81-1.89.13-.26.28-.62.46-1.05.16-.44.38-1,.66-1.68.26-.67.54-1.38.81-2.09.28-.71.57-1.5.92-2.38.33-.81.67-1.68,1.02-2.58.33-.92.67-1.84,1-2.79.35-.94.71-1.89,1.12-2.84.41-.94.77-1.89,1.12-2.83.67-1.63,1.27-3.11,1.77-4.42.51-1.31,1-2.51,1.46-3.6.41-1.08.79-2.02,1.12-2.84.35-.81.61-1.48.82-2.02.67-1.69,1.18-2.88,1.51-3.55.35-.74.82-1.31,1.43-1.73.33-.2.62-.39.85-.56.23-.16.46-.28.66-.36.21-.07.41-.13.61-.2.21-.07.38-.13.51-.2.48-.13.74-.35.81-.61.15-.28.21-.54.21-.82,0-.33-.21-.58-.61-.71ZM530.79,912.85c-.48.2-.82.13-1.02-.21l-25.65-41.87c-.28-.35-.21-.67.2-1.02.41-.2.77-.13,1.12.2l25.55,41.89c.26.35.2.67-.2,1.02Z"/>
    <path class="cls-2" d="M591.02,932.51c-.13-.07-.3-.13-.51-.21-.2-.07-.44-.13-.71-.2-.26-.07-.54-.1-.81-.1h-.61c-.35.13-.85.1-1.53-.1-1.15-.54-1.86-1.79-2.12-3.76-.08-.26-.12-.67-.12-1.22s-.03-1.25-.1-2.12c-.07-.89-.1-1.86-.1-2.94v-3.65c-.07-1.28-.1-2.65-.1-4.06v-19.98c0-1.76.03-3.48.1-5.18.07-1.68.1-3.27.1-4.77s.07-3.01.21-4.35c0-1.35.03-2.56.1-3.65.07-1.08.16-2.1.3-3.04.07-1.69.25-2.78.51-3.25.48-.81,1.05-1.25,1.73-1.31.61-.07,1.22-.23,1.82-.51.95-.54,1.43-.94,1.43-1.22,0-.74-.69-1.12-2.04-1.12h-1.41c-.35.07-.67.12-1.02.12h-1.12c-.35.07-.71.1-1.12.1h-1.22c-.41.07-.81.1-1.22.1h-2.33c-.48,0-1.05-.03-1.73-.1-.67-.07-1.38-.1-2.12-.1-.69,0-1.4-.08-2.14-.21-.74,0-1.51-.03-2.28-.1-.77-.07-1.53-.1-2.28-.1-.74-.13-1.41-.21-2.02-.21h-1.73c-.35,0-.67.02-1.02.07-.33.03-.67.08-1,.15-.61.13-.92.36-.92.71,0,.54.41.94,1.22,1.22.13.07.36.13.66.2.31.07.62.1.97.1.67.2,1.18.61,1.51,1.22.21.26.41,1.31.61,3.14.15.87.25,1.84.31,2.92.07,1.08.16,2.25.31,3.53.07,1.28.13,2.61.2,3.99.07,1.38.13,2.86.2,4.4.07,1.54.11,3.06.15,4.5.03,1.45.07,2.88.07,4.29s-.03,2.96-.07,4.6c-.03,1.66-.05,3.42-.05,5.31-.13,1.89-.21,3.75-.25,5.57-.03,1.81-.08,3.6-.15,5.34-.07,1.76-.15,3.37-.21,4.81s-.13,2.81-.2,4.09c-.07,1.28-.13,2.25-.2,2.92-.07.67-.15,1.08-.21,1.22-.26.61-.71.9-1.31.9-.35.15-.67.21-1.02.21h-1c-.67,0-1.12.18-1.33.54-.13.43-.2.76-.2.97,0,1.02.38,1.53,1.12,1.53.48,0,1.53-.1,3.14-.31.76-.07,1.58-.12,2.48-.15.92-.03,1.86-.05,2.79-.05h1.82c.67,0,1.46.07,2.33.2.89,0,1.74.03,2.6.1.84.08,1.73.18,2.68.31.95.07,1.84.13,2.7.2.84.07,1.63.12,2.38.12.74.13,1.38.2,1.92.2h1.41c.61,0,1.12-.1,1.53-.31.41-.2.61-.48.61-.81,0-.48-.13-.71-.41-.71ZM572.37,929.77c0,.48-.28.71-.82.71s-.81-.23-.81-.71v-59.22c0-.46.26-.71.81-.71s.82.25.82.71v59.22Z"/>
    <path class="cls-11" d="M654.81,920.44c-.15-.2-.35-.3-.61-.3-.21-.07-.58.07-1.12.41-.48.33-.95.69-1.43,1.05-.48.38-.94.74-1.41,1.07-.48.35-.92.64-1.31.92-.41.26-.89.58-1.43.9-.33.21-.77.44-1.31.71-.54.28-1.15.58-1.82.92-.67.35-1.41.66-2.23.97-.81.3-1.69.62-2.63.95-.95.35-1.91.62-2.89.87-.99.23-2.05.49-3.19.76-2.23.41-4.57.61-7,.61-.95,0-1.66-.1-2.14-.31-.48-.07-.81-.46-1.02-1.22-.13-.53-.26-1.13-.39-1.82-.13-.67-.25-1.48-.31-2.43-.13-1.96-.23-4.01-.3-6.18-.07-1.15-.1-2.3-.1-3.45v-10.94c0-1.76-.02-3.55-.05-5.39-.05-1.82-.07-3.6-.07-5.37.07-1.74.12-3.43.12-5.06v-4.67c.07-1.48.1-2.84.1-4.06s.03-2.3.1-3.24c.07-.95.1-1.73.1-2.33v-1.22c0-.41.03-.84.1-1.27.07-.44.18-.9.31-1.38.2-.94.81-1.51,1.82-1.73.67-.13,1.38-.26,2.12-.39.76-.13,1.5-.28,2.23-.41,1.63-.2,2.88-.61,3.76-1.22.94-.61,1.28-1.18,1-1.73-.33-.54-.87-.81-1.63-.81-.39,0-.74.1-1,.3-.13.07-.33.15-.56.21-.25.07-.49.13-.76.2-.28.07-.69.13-1.22.2-.54.07-1.18.18-1.94.31-.74.13-1.56.25-2.48.35-.9.12-1.87.23-2.89.36-2.02.2-4.16.41-6.39.61-1.15.07-2.2.12-3.19.15-.99.03-1.94.05-2.89.05h-2.23c-.67,0-1.31-.07-1.92-.2-.61,0-1.17-.03-1.68-.1-.49-.07-.95-.13-1.36-.2-.35-.08-.64-.15-.9-.21-.28-.07-.48-.1-.61-.1-.21-.13-.51-.2-.92-.2-.26,0-.54.13-.81.39-.21.35-.31.58-.31.71,0,.69.51,1.17,1.53,1.43.87.35,1.61.77,2.22,1.31.54.54.95,1.43,1.22,2.65.15.54.26,1.17.36,1.87.1.71.21,1.53.36,2.48.13.95.23,1.96.3,3.04.07,1.08.16,2.27.31,3.55.07,1.28.13,2.6.2,3.96.07,1.35.13,2.76.2,4.26.07,1.48.13,2.97.16,4.45.03,1.5.05,3.02.05,4.57v9.33c-.07,1.54-.1,3.04-.1,4.45v4.06c-.08,1.28-.12,2.5-.12,3.65v3.16c-.07.94-.1,1.79-.1,2.53,0,.67-.03,1.25-.1,1.73-.54.94-.99,1.56-1.31,1.82-.13.13-.33.3-.56.51-.25.2-.49.39-.76.61-.61.39-.82.97-.61,1.73.07.67.64.9,1.71.71.28-.07.61-.13,1.02-.2.41-.08.89-.15,1.43-.21.53-.07,1.08-.13,1.66-.2.58-.07,1.2-.13,1.89-.21.67-.07,1.35-.12,2.02-.15.67-.03,1.38-.08,2.14-.15.74-.07,1.45-.1,2.12-.1h2.23c1.35,0,2.88.05,4.57.15,1.68.1,3.5.21,5.47.36,1.96.13,3.89.28,5.83.44,1.92.18,3.86.33,5.82.46.35.07.72.1,1.12.1h1.22c.76.07,1.22.48,1.43,1.22.2.76.48,1.3.81,1.63.2.35.64,0,1.31-1.02l9.53-14.18c.21-.28.31-.58.31-.92,0-.2-.07-.51-.2-.92ZM609.47,929.67c0,.48-.23.71-.71.71-.54,0-.81-.23-.81-.71v-59.22c0-.48.26-.71.81-.71.48,0,.71.23.71.71v59.22Z"/>
    <path class="cls-1" d="M716.75,920.44c-.13-.2-.35-.3-.61-.3-.2-.07-.58.07-1.12.41-.48.33-.95.69-1.41,1.05-.48.38-.95.74-1.43,1.07-.48.35-.9.64-1.31.92-.41.26-.87.58-1.41.9-.35.21-.79.44-1.33.71-.54.28-1.15.58-1.82.92-.67.35-1.41.66-2.22.97-.82.3-1.69.62-2.65.95-.95.35-1.91.62-2.89.87-.97.23-2.04.49-3.19.76-2.23.41-4.57.61-7,.61-.95,0-1.66-.1-2.12-.31-.48-.07-.82-.46-1.02-1.22-.13-.53-.28-1.13-.41-1.82-.13-.67-.23-1.48-.3-2.43-.15-1.96-.25-4.01-.31-6.18-.07-1.15-.1-2.3-.1-3.45v-10.94c0-1.76-.02-3.55-.05-5.39-.03-1.82-.05-3.6-.05-5.37.07-1.74.1-3.43.1-5.06v-4.67c.07-1.48.1-2.84.1-4.06s.03-2.3.1-3.24c.07-.95.1-1.73.1-2.33v-1.22c0-.41.03-.84.12-1.27.07-.44.16-.9.3-1.38.2-.94.81-1.51,1.82-1.73.67-.13,1.38-.26,2.14-.39.74-.13,1.48-.28,2.23-.41,1.61-.2,2.86-.61,3.75-1.22.94-.61,1.28-1.18,1.02-1.73-.35-.54-.89-.81-1.63-.81-.41,0-.74.1-1.02.3-.13.07-.31.15-.56.21-.23.07-.49.13-.76.2-.28.07-.67.13-1.22.2-.54.07-1.18.18-1.92.31-.76.13-1.58.25-2.5.35-.9.12-1.87.23-2.88.36-2.04.2-4.16.41-6.39.61-1.15.07-2.22.12-3.2.15-.97.03-1.94.05-2.88.05h-2.23c-.67,0-1.31-.07-1.92-.2-.61,0-1.17-.03-1.68-.1-.51-.07-.97-.13-1.38-.2-.33-.08-.64-.15-.9-.21-.28-.07-.48-.1-.61-.1-.2-.13-.51-.2-.92-.2-.26,0-.54.13-.81.39-.2.35-.31.58-.31.71,0,.69.51,1.17,1.53,1.43.87.35,1.63.77,2.23,1.31.54.54.94,1.43,1.22,2.65.13.54.25,1.17.35,1.87.11.71.23,1.53.36,2.48.13.95.23,1.96.31,3.04.07,1.08.16,2.27.3,3.55.07,1.28.13,2.6.2,3.96.07,1.35.15,2.76.21,4.26.07,1.48.12,2.97.15,4.45.03,1.5.05,3.02.05,4.57v9.33c-.07,1.54-.1,3.04-.1,4.45v4.06c-.07,1.28-.1,2.5-.1,3.65v3.16c-.07.94-.1,1.79-.1,2.53,0,.67-.05,1.25-.11,1.73-.54.94-.97,1.56-1.31,1.82-.13.13-.31.3-.56.51-.23.2-.49.39-.76.61-.61.39-.81.97-.61,1.73.07.67.64.9,1.73.71.26-.07.61-.13,1.02-.2.39-.08.87-.15,1.41-.21.54-.07,1.1-.13,1.68-.2.58-.07,1.2-.13,1.87-.21.67-.07,1.35-.12,2.02-.15.67-.03,1.4-.08,2.14-.15.74-.07,1.45-.1,2.12-.1h2.23c1.35,0,2.88.05,4.57.15,1.69.1,3.52.21,5.47.36,1.96.13,3.91.28,5.83.44,1.92.18,3.86.33,5.83.46.33.07.71.1,1.12.1h1.22c.74.07,1.22.48,1.41,1.22.2.76.48,1.3.81,1.63.21.35.66,0,1.33-1.02l9.53-14.18c.2-.28.3-.58.3-.92,0-.2-.07-.51-.2-.92ZM671.44,929.67c0,.48-.25.71-.72.71-.54,0-.81-.23-.81-.71v-59.22c0-.48.26-.71.81-.71.48,0,.72.23.72.71v59.22Z"/>
    <path class="cls-17" d="M790.98,930.89c-.13-.26-.33-.54-.56-.81-.23-.28-.49-.58-.76-.92-1.08-1.41-2.37-3.42-3.86-5.98-.74-1.28-1.51-2.61-2.33-4.01-.81-1.38-1.64-2.81-2.53-4.31-.81-1.48-1.63-2.96-2.43-4.4-.81-1.46-1.59-2.92-2.33-4.42-.74-1.41-1.45-2.73-2.14-3.96-.67-1.22-1.28-2.28-1.82-3.24-.33-.67-.72-1.41-1.17-2.23-.43-.81-.92-1.68-1.46-2.63-.54-.95-1.1-1.94-1.68-2.99-.58-1.05-1.17-2.15-1.77-3.3-.54-1.15-1.12-2.28-1.73-3.39-.61-1.12-1.25-2.25-1.92-3.4-1.22-2.3-2.33-4.44-3.35-6.39-.54-.95-1.02-1.84-1.46-2.69-.44-.84-.84-1.63-1.17-2.37-.35-.69-.62-1.25-.87-1.68-.23-.44-.41-.81-.54-1.07-.48-1.08-.99-1.63-1.53-1.63-.54-.13-1.02.31-1.41,1.31-.15.21-.33.56-.56,1.07-.25.51-.53,1.17-.87,1.99-.33.81-.74,1.71-1.22,2.73-.48,1.02-.99,2.1-1.51,3.25-.54,1.15-1.1,2.37-1.68,3.65-.58,1.28-1.2,2.63-1.87,4.06-.69,1.35-1.33,2.73-1.94,4.16-.61,1.41-1.25,2.83-1.92,4.26-.67,1.41-1.31,2.79-1.92,4.16-.61,1.35-1.22,2.69-1.82,4.06-.54,1.35-1.07,2.58-1.58,3.7-.51,1.12-1,2.14-1.46,3.09l-3.96,8.51c-.67,1.43-1.33,2.78-1.97,4.06-.66,1.28-1.28,2.5-1.89,3.65-.54,1.15-1.05,2.19-1.56,3.11-.51.9-.97,1.74-1.36,2.48-.82,1.54-1.33,2.37-1.53,2.43-.81.54-1.22,1.15-1.22,1.82,0,.74.36,1.12,1.12,1.12.46,0,1.31-.1,2.53-.31.61-.07,1.13-.12,1.58-.15.43-.03.79-.05,1.05-.05.28,0,.58.02.92.05.35.03.77.08,1.31.15.54.07.99.12,1.31.16.35.03.66.05.92.05.48,0,.87-.21,1.22-.61.26-.35.41-.64.41-.92,0-.26-.44-.54-1.31-.81-.95-.35-1.3-1.08-1.02-2.23.07-.26.18-.67.35-1.22.18-.54.39-1.22.67-2.04.26-.81.56-1.66.9-2.58.35-.9.71-1.87,1.12-2.89.33-1,.71-2.04,1.12-3.09.41-1.05.81-2.1,1.22-3.19.41-1.08.81-2.09,1.22-2.99.41-.92.77-1.74,1.12-2.5.41-.26,1.31-.49,2.73-.71.67-.07,1.38-.13,2.09-.2.71-.07,1.5-.1,2.38-.1.87-.13,1.76-.21,2.63-.21h2.84c1.96-.13,3.96-.13,5.98,0,.95,1.82,1.86,3.66,2.74,5.49.87,1.82,1.76,3.65,2.63,5.47.82,1.76,1.61,3.47,2.38,5.11.79,1.66,1.51,3.27,2.19,4.83.26.67.41,1.15.41,1.41.13.41.13.77,0,1.12-.21.33-.51.51-.92.51-.48,0-.81.03-1.02.1-.13.07-.28.13-.44.2-.18.07-.33.1-.46.1-.28.21-.41.48-.41.82,0,.48.28.81.82,1,.26.08.53.13.81.16.26.03.58.05.9.05h.82c.41,0,.9-.03,1.51-.1.54-.08,1.12-.12,1.73-.12.67,0,1.4-.07,2.14-.2.74,0,1.43-.02,2.07-.05.64-.03,1.31-.08,1.99-.15.61-.07,1.12-.1,1.51-.1h3.35c.54.07,1.12.1,1.73.1s1.25.03,1.92.1c.61.07,1.18.1,1.73.1h1.73c.54.07.94.1,1.22.1h.61c.74,0,1.12-.43,1.12-1.31.07-.26-.1-.67-.51-1.22ZM749.82,899.77c-.54-.07-1.08-.11-1.63-.11-.48,0-.99-.03-1.53-.1-.54-.07-1.05-.1-1.51-.1-.41,0-.85-.07-1.31-.2-.41,0-.77-.03-1.07-.1-.31-.08-.59-.15-.87-.21.13-.61.38-1.35.72-2.23.26-1,.67-2.12,1.22-3.34.2-.54.39-1.08.61-1.63.2-.54.43-1.08.71-1.63.39-1.07.74-1.82,1-2.22.41.67.87,1.43,1.38,2.27.51.85,1.02,1.77,1.56,2.79.54,1.02,1.12,2.09,1.73,3.2.61,1.1,1.25,2.3,1.94,3.6h-2.94ZM757.41,899.45c-.26-.07-.74-.1-1.41-.1-1.56-2.37-2.97-4.86-4.26-7.51-.54-1.28-1.13-2.55-1.77-3.8-.64-1.25-1.3-2.51-1.97-3.81-.21-.46-.11-.81.3-1,.41-.28.74-.18,1.02.3l9.02,15.92h-.92ZM775.15,929.77c-.13.28-.23.44-.3.51-.54.35-.92.25-1.12-.31l-7-10.94c-2.3-3.52-4.32-7.33-6.08-11.45.2.07.58.1,1.12.1.26-.07.64-.1,1.12-.1l12.16,21.69c.13.15.16.31.1.51Z"/>
    <path class="cls-12" d="M856.18,911.83c.07-.67.1-1.31.1-1.92v-7.1c0-1.36.2-2.33.61-2.94.26-.61,1.12-1.12,2.53-1.53.35-.07.72-.3,1.12-.71.28-.26.41-.61.41-1.02,0-.33-.13-.64-.41-.9-.33-.21-.77-.31-1.31-.31h-21.59c-1.63,0-2.45.35-2.45,1.02-.2.67.28,1.22,1.43,1.63.61.2,1.35.26,2.23.2.87-.07,1.73.16,2.53.71.54.48.9.99,1.12,1.53.2.61.3,1.18.3,1.73l-.3,19.97c0,1.43-.25,2.51-.71,3.25-.54.81-1.76,1.22-3.66,1.22-5,0-9.38-.99-13.18-2.94-3.65-1.89-6.79-4.47-9.43-7.71-2.56-3.11-4.49-6.75-5.77-10.96-1.3-4.04-1.94-8.27-1.94-12.67,0-3.24.51-6.28,1.53-9.12,1.02-2.91,2.43-5.41,4.26-7.51,1.76-2.02,3.96-3.68,6.59-4.96,2.5-1.22,5.31-1.82,8.41-1.82,2.04,0,4.34.61,6.9,1.82,2.43,1.22,4.77,2.63,7,4.26,1.15.81,2.19,1.63,3.14,2.43.95.81,1.86,1.59,2.74,2.33,1.61,1.56,2.69,2.63,3.24,3.24.54.61,1.08.99,1.63,1.12.61.15,1.08.07,1.41-.2.28-.2.48-.58.61-1.12.07-.48-.1-1.02-.51-1.63-.13-.2-.31-.46-.54-.81-.25-.35-.49-.77-.77-1.31-.26-.54-.56-1.08-.85-1.63-.31-.54-.62-1.15-.97-1.82-.33-.67-.67-1.33-1.02-1.97-.33-.64-.67-1.35-1-2.09-.35-.74-.66-1.43-.97-2.07-.3-.66-.62-1.31-.95-1.99-.35-.67-.64-1.28-.87-1.82-.23-.54-.49-1.08-.76-1.63-.28-.53-.48-.97-.61-1.31-.15-.33-.28-.61-.41-.81-.26-.54-.64-1.02-1.12-1.43-.41-.2-.81-.3-1.22-.3-.35.13-.61.38-.81.71-.21.35-.21.79,0,1.31.07.54.23,1.12.51,1.73.2.48.23.89.1,1.22-.35.54-1.12.67-2.33.41-.28-.07-.56-.13-.87-.2-.3-.07-.62-.15-.95-.21-.35-.07-.82-.12-1.43-.15-.61-.03-1.38-.05-2.33-.05-4.65,0-9.63.67-14.9,2.02-5,1.3-9.63,3.45-13.89,6.49-4.19,2.97-7.64,6.84-10.35,11.57-2.63,4.8-3.94,10.52-3.94,17.14,0,4.45.71,8.64,2.12,12.57,1.43,3.99,3.45,7.43,6.1,10.34,2.56,2.97,5.73,5.37,9.53,7.2,3.85,1.76,8.04,2.65,12.57,2.65,1.02,0,2.04-.05,3.09-.15,1.05-.12,2.12-.3,3.2-.56,1.07-.21,2.1-.43,3.09-.66.97-.25,1.94-.49,2.89-.77.94-.26,1.81-.54,2.58-.81.77-.26,1.53-.58,2.28-.92.67-.26,1.25-.49,1.73-.71.46-.2.84-.36,1.12-.51,1.28-.67,2.6-1.28,3.94-1.82.67-.26,1.33-.51,1.99-.71.64-.2,1.27-.41,1.87-.61.54-.13,1.07-.26,1.61-.41.54-.13,1.05-.26,1.53-.39.87-.21,1.63-.31,2.23-.31h2.02c.13.07.31.12.51.15.2.05.38.1.51.16.74.2,1.38.1,1.92-.31.48-.26.28-.77-.61-1.51-.48-.35-.99-.61-1.51-.82-.54-.2-.99-.48-1.33-.81-.2-.28-.3-.58-.3-.92v-9.73ZM815.61,921.87c-2.97-2.5-5.41-5.34-7.3-8.53-.94-1.54-1.76-3.15-2.43-4.81-.67-1.64-1.25-3.32-1.73-5.01-.81-3.32-1.22-6.36-1.22-9.12,0-1.43.25-3.29.71-5.59.54-2.5,1.46-4.8,2.74-6.9-.74,1.97-1.22,3.96-1.41,6-.08,1.07-.13,2.04-.16,2.88-.03.85-.05,1.61-.05,2.28,0,3.58.44,7,1.31,10.25.82,3.3,2.1,6.52,3.86,9.63.87,1.48,1.89,2.91,3.04,4.26,1.15,1.35,2.4,2.68,3.75,3.96,2.65,2.37,5.95,4.42,9.94,6.18-4.32-1.08-8-2.91-11.06-5.47Z"/>
    <path class="cls-19" d="M889.13,883.63c.07-.87.11-1.68.11-2.43s.03-1.45.1-2.12c.07-.67.1-1.25.1-1.73,0-.54.03-1.05.1-1.53.07-.81.16-1.51.31-2.12.13-.41.25-.82.35-1.22.1-.41.21-.79.36-1.12.26-.67.87-.99,1.82-.92,3.99.35,7.87,1.08,11.65,2.23,3.86,1.08,7.64,3.29,11.37,6.59.46.48.9.74,1.31.81.48.15.81.18,1.02.12.26-.07.39-.25.39-.51,0-.21-.2-.58-.61-1.12-1.76-1.89-2.97-3.52-3.65-4.86-.35-.61-.69-1.22-1.07-1.82-.36-.61-.72-1.27-1.07-1.94-.13-.33-.3-.69-.49-1.05-.21-.38-.41-.81-.61-1.28-.15-.46-.31-.92-.51-1.36-.21-.44-.38-.92-.51-1.46l-.92-2.74c-.13-.41-.23-.77-.3-1.12-.07-.33-.16-.64-.31-.9-.33-1.02-.81-1.43-1.41-1.22-.54.13-.74.67-.61,1.61.07.48.11.92.15,1.31.03.41.05.79.05,1.12,0,.69-.16,1.3-.51,1.82-.07.15-.94.38-2.63.72-1.63.2-3.55.39-5.78.61-1.15.13-2.3.23-3.45.3-1.15.07-2.33.13-3.55.2-1.22.08-2.35.13-3.39.16-1.05.03-2.05.05-2.99.05h-3.16c-.61-.07-1.22-.1-1.82-.1s-1.22-.07-1.82-.21c-.61,0-1.2-.02-1.77-.05-.57-.03-1.13-.08-1.68-.15-1.07-.13-1.86-.23-2.33-.3-.53-.15-1.05-.23-1.56-.26-.51-.03-.94-.02-1.27.05-.67.07-1.02.35-1.02.81s.13.85.41,1.12c.2.28.67.54,1.41.82.61.2,1.08.81,1.41,1.82.28,1.02.48,2.02.61,3.04.08.67.15,1.4.21,2.19.07.77.16,1.63.3,2.58.15.95.25,1.92.31,2.94.07,1.02.16,2.1.3,3.24.07,1.15.15,2.3.21,3.45s.1,2.37.1,3.65c.13,1.22.2,2.43.2,3.66v3.65c0,1.22-.02,2.53-.05,3.94-.03,1.43-.05,2.91-.05,4.47-.13,1.56-.21,3.11-.25,4.67-.05,1.54-.13,3.07-.26,4.55-.07,1.5-.13,2.88-.2,4.16-.07,1.3-.16,2.51-.31,3.66-.13,2.37-.23,3.88-.3,4.55-.07.35-.25.79-.51,1.31-.2.41-.51.72-.92.92-1.15.54-1.71,1.15-1.71,1.82-.08.61.49.84,1.71.71.35-.07.76-.1,1.22-.1.54,0,1.15-.07,1.84-.2.67,0,1.36-.02,2.07-.05.71-.03,1.43-.08,2.19-.16.74-.07,1.48-.1,2.22-.1.82,0,1.59-.03,2.33-.1.76-.07,1.46-.1,2.14-.1h3.75c.76,0,1.56.03,2.43.1.89.07,1.73.1,2.55.1.87,0,1.76.03,2.63.1.89.08,1.69.12,2.43.12s1.5.03,2.23.1c.67.07,1.25.1,1.73.1s.84.03,1.12.1c.54.07,1.02.12,1.46.15.44.03.9.05,1.38.05.81.15,1.22.66,1.22,1.53,0,.48-.15.84-.41,1.12-.35.33-.44.77-.31,1.31.15.54.44.81.92.81.26,0,.57-.1.9-.3.28-.26.44-.51.51-.71.07-.21.58-1.05,1.53-2.53.41-.76.85-1.48,1.36-2.19.51-.71,1.04-1.48,1.58-2.28,2.02-2.91,3.48-4.8,4.35-5.69.41-.39.51-.77.31-1.1-.21-.28-.61-.28-1.22,0-.76.33-1.56.69-2.43,1.05-.89.38-1.87.74-2.94,1.07-2.23.74-4.44,1.36-6.61,1.82-1.13.28-2.25.53-3.34.77-1.08.23-2.2.44-3.35.66-1.15.13-2.2.25-3.14.35-.95.1-1.86.15-2.74.15-.81,0-1.38-.16-1.73-.49-.33-.28-.58-.92-.71-1.94-.13-1.07-.25-2.4-.35-3.94-.11-1.56-.16-3.39-.16-5.49-.07-2.09-.1-4.39-.1-6.89v-8.41l11.35.2c.82,0,1.22.28,1.22.81.15.28.21.58.21.92s.03.67.1,1.02v.71c0,.33.07.74.2,1.22,0,.48.03.95.1,1.41.07.48.12.99.12,1.53.07.54.13,1.05.2,1.51.07.48.1.99.1,1.53.07.48.13.9.2,1.27.07.38.15.69.21.97.13.54.33.9.61,1.12.2.13.54.2,1,.2.28-.07.51-.35.72-.81.2-.28.23-.82.1-1.63-.2-1.08-.41-2.33-.61-3.75-.13-.76-.25-1.5-.31-2.23-.07-.74-.13-1.53-.2-2.33-.07-.74-.12-1.51-.15-2.28-.03-.77-.05-1.54-.05-2.28-.08-.74-.1-1.43-.05-2.07.03-.64.08-1.23.15-1.77.13-1.15.33-2.43.61-3.86.13-.67.28-1.35.46-2.02.16-.67.35-1.4.56-2.14.33-1.41.74-2.69,1.22-3.85.26-.54.49-1.07.71-1.58.2-.51.44-.94.71-1.27.41-.61.35-1.12-.2-1.53-.48-.39-.92-.33-1.33.21-.2.33-.49.84-.9,1.51-.13.35-.31.71-.51,1.12s-.38.81-.51,1.22c-.13.41-.3.82-.51,1.22-.2.41-.36.79-.51,1.12-.13.35-.25.62-.35.85-.1.25-.18.43-.26.56-.33,1.08-1.28,1.56-2.83,1.43l-11.57-.41v-3.45c0-1.07.03-2.05.1-2.94ZM876.87,928.97c0,.54-.31.81-.92.81s-.9-.26-.9-.81v-59.12c0-.54.3-.81.9-.81s.92.26.92.81v59.12Z"/>
  </g>
  <g>
    <path class="cls-6" d="M280.57,999.45l-10.99-33.66h4.69l5.24,16.58c1.45,4.55,2.7,8.64,3.6,12.59h.1c.95-3.9,2.35-8.14,3.85-12.54l5.69-16.63h4.65l-12.04,33.66h-4.8Z"/>
    <path class="cls-6" d="M305.39,965.79v33.66h-4.35v-33.66h4.35Z"/>
    <path class="cls-6" d="M330.41,983.67h-13.09v12.14h14.58v3.65h-18.93v-33.66h18.18v3.65h-13.84v10.64h13.09v3.6Z"/>
    <path class="cls-6" d="M344.74,969.48h-10.24v-3.7h24.92v3.7h-10.29v29.97h-4.4v-29.97Z"/>
    <path class="cls-6" d="M363.17,999.45v-33.66h4.74l10.79,17.03c2.5,3.94,4.44,7.49,6.04,10.94l.1-.05c-.4-4.49-.5-8.59-.5-13.83v-14.09h4.1v33.66h-4.4l-10.69-17.08c-2.35-3.75-4.6-7.59-6.29-11.24l-.15.05c.25,4.24.35,8.29.35,13.89v14.38h-4.1Z"/>
    <path class="cls-6" d="M401.47,988.86l-3.5,10.59h-4.5l11.44-33.66h5.24l11.49,33.66h-4.65l-3.6-10.59h-11.94ZM412.51,985.47l-3.3-9.69c-.75-2.2-1.25-4.2-1.75-6.14h-.1c-.5,2-1.05,4.05-1.7,6.09l-3.3,9.74h10.14Z"/>
    <path class="cls-6" d="M454.76,984.67c-.25-4.69-.55-10.34-.5-14.53h-.15c-1.15,3.95-2.55,8.14-4.24,12.79l-5.94,16.33h-3.3l-5.44-16.03c-1.6-4.74-2.95-9.09-3.9-13.09h-.1c-.1,4.2-.35,9.84-.65,14.88l-.9,14.44h-4.15l2.35-33.66h5.54l5.74,16.28c1.4,4.15,2.55,7.84,3.4,11.34h.15c.85-3.4,2.05-7.09,3.55-11.34l5.99-16.28h5.54l2.1,33.66h-4.24l-.85-14.78Z"/>
    <path class="cls-6" d="M483.97,983.67h-13.09v12.14h14.58v3.65h-18.93v-33.66h18.18v3.65h-13.84v10.64h13.09v3.6Z"/>
    <path class="cls-6" d="M490.51,994.16c1.95,1.2,4.8,2.2,7.79,2.2,4.44,0,7.04-2.35,7.04-5.74,0-3.15-1.8-4.94-6.34-6.69-5.49-1.95-8.89-4.8-8.89-9.54,0-5.24,4.35-9.14,10.89-9.14,3.45,0,5.94.8,7.44,1.65l-1.2,3.55c-1.1-.6-3.35-1.6-6.39-1.6-4.6,0-6.34,2.75-6.34,5.04,0,3.15,2.05,4.69,6.69,6.49,5.69,2.2,8.59,4.94,8.59,9.89,0,5.19-3.85,9.69-11.79,9.69-3.25,0-6.79-.95-8.59-2.15l1.1-3.65Z"/>
    <path class="cls-6" d="M533.16,983.67h-13.09v12.14h14.58v3.65h-18.93v-33.66h18.18v3.65h-13.84v10.64h13.09v3.6Z"/>
    <path class="cls-6" d="M571.96,999.45c-.95-.95-1.85-1.9-3.15-3.3-2.9,2.7-6.14,3.85-9.84,3.85-6.54,0-10.34-4.4-10.34-9.44,0-4.59,2.75-7.74,6.59-9.84v-.15c-1.75-2.2-2.8-4.65-2.8-7.04,0-4.1,2.95-8.29,8.54-8.29,4.19,0,7.44,2.8,7.44,7.14,0,3.55-2.05,6.34-7.39,8.99v.15c2.85,3.3,6.04,6.99,8.19,9.39,1.55-2.35,2.6-5.6,3.25-9.84h4c-.9,5.29-2.35,9.49-4.85,12.44,1.8,1.9,3.55,3.8,5.54,5.94h-5.19ZM566.67,993.66c-2-2.2-5.74-6.29-9.49-10.59-1.8,1.15-4.35,3.3-4.35,6.84,0,3.85,2.85,6.79,6.89,6.79,2.9,0,5.35-1.3,6.94-3.05ZM556.43,973.13c0,2.4,1.1,4.25,2.55,6.04,3.4-1.95,5.59-3.75,5.59-6.59,0-2.05-1.15-4.35-3.9-4.35s-4.25,2.3-4.25,4.89Z"/>
    <path class="cls-6" d="M597.28,999.45l-10.99-33.66h4.69l5.24,16.58c1.45,4.55,2.7,8.64,3.6,12.59h.1c.95-3.9,2.35-8.14,3.85-12.54l5.69-16.63h4.65l-12.04,33.66h-4.8Z"/>
    <path class="cls-6" d="M635.18,983.67h-13.09v12.14h14.58v3.65h-18.93v-33.66h18.18v3.65h-13.84v10.64h13.09v3.6Z"/>
    <path class="cls-6" d="M667.94,997.95c-1.95.7-5.79,1.85-10.34,1.85-5.1,0-9.29-1.3-12.59-4.44-2.9-2.8-4.69-7.29-4.69-12.54.05-10.04,6.94-17.38,18.23-17.38,3.9,0,6.94.85,8.39,1.55l-1.05,3.55c-1.8-.8-4.05-1.45-7.44-1.45-8.19,0-13.54,5.1-13.54,13.54s5.14,13.59,12.99,13.59c2.85,0,4.79-.4,5.79-.9v-10.04h-6.84v-3.5h11.09v16.18Z"/>
    <path class="cls-6" d="M680.03,988.86l-3.5,10.59h-4.5l11.44-33.66h5.24l11.49,33.66h-4.65l-3.6-10.59h-11.94ZM691.06,985.47l-3.3-9.69c-.75-2.2-1.25-4.2-1.75-6.14h-.1c-.5,2-1.05,4.05-1.7,6.09l-3.3,9.74h10.14Z"/>
    <path class="cls-6" d="M705.15,999.45v-33.66h4.74l10.79,17.03c2.5,3.94,4.44,7.49,6.04,10.94l.1-.05c-.4-4.49-.5-8.59-.5-13.83v-14.09h4.1v33.66h-4.4l-10.69-17.08c-2.35-3.75-4.6-7.59-6.29-11.24l-.15.05c.25,4.24.35,8.29.35,13.89v14.38h-4.1Z"/>
  </g>
</svg>