<?xml version="1.0" encoding="UTF-8"?>
<svg id="Layer_1" data-name="Layer 1" xmlns="http://www.w3.org/2000/svg" xmlns:xlink="http://www.w3.org/1999/xlink" viewBox="0 0 916.32 776.18">
  <defs>
    <style>
      .cls-1 {
        fill: url(#linear-gradient);
      }

      .cls-1, .cls-2, .cls-3, .cls-4, .cls-5 {
        stroke-width: 0px;
      }

      .cls-2 {
        fill: gold;
      }

      .cls-3 {
        fill: #bf8416;
      }

      .cls-4 {
        fill: #e5dfbf;
      }

      .cls-5 {
        fill: #0c364f;
      }
    </style>
    <linearGradient id="linear-gradient" x1="335.68" y1="540.54" x2="591.27" y2="97.84" gradientTransform="translate(0 0)" gradientUnits="userSpaceOnUse">
      <stop offset="0" stop-color="#ebbb49"/>
      <stop offset=".38" stop-color="#f4dd79"/>
      <stop offset=".7" stop-color="#f5de79"/>
      <stop offset="1" stop-color="#ebbb49"/>
    </linearGradient>
  </defs>
  <g>
    <path class="cls-5" d="m340.07,514.15l66.01-66.01-198.03-198.03,118.09-118.09,66.01,66.01,13.93-13.93-66.01-66.01L458.16,0l118.09,118.08-99,99.02,14.35,14.36,98.54-99.48,118.13,118.13-132.02,132.02,27.42,27.42v77.18l-145.51,145.51-118.09-118.09Zm118.09,13.93l13.93-13.93-13.93-13.93-13.92,13.93,13.92,13.93Zm0-132.02l46.93-46.95-13.46-13.46-33.01,33.01-132.48-132.48-13.93,13.93,145.95,145.95Zm99.02-99.02l46.93-46.93-13.86-13.86-46.61,47.25,13.53,13.53Zm-99.02-165.02l13.93-13.93-13.93-13.93-13.92,13.93,13.92,13.93Z"/>
    <path class="cls-5" d="m347.43,514.15l66.01-66.01-198.03-198.03,110.73-110.73,66.01,66.01,21.29-21.29-66.01-66.01L458.16,7.35l110.73,110.73-99,99.02,21.72,21.73,98.55-99.48,110.76,110.76-132.02,132.02,29.57,29.57v72.87l-140.31,140.31-110.73-110.73Zm110.73,21.29l21.29-21.29-21.29-21.29-21.27,21.29,21.27,21.29Zm0-132.02l54.28-54.31-20.81-20.81-33.01,33.01-132.48-132.48-21.29,21.29,153.31,153.31Zm99.02-99.02l54.29-54.29-21.24-21.24-53.91,54.66,20.86,20.86Zm-99.02-165.02l21.29-21.29-21.29-21.29-21.27,21.29,21.27,21.28Z"/>
    <path class="cls-4" d="m347.43,514.15l66.01-66.01-198.03-198.03,110.73-110.73,66.01,66.01,21.29-21.29-66.01-66.01L458.16,7.35l110.73,110.73-99,99.02,21.72,21.73,98.55-99.48,110.76,110.76-132.02,132.02,29.57,29.57v72.87l-140.31,140.31-110.73-110.73Zm110.73,21.29l21.29-21.29-21.29-21.29-21.27,21.29,21.27,21.29Zm0-132.02l54.28-54.31-20.81-20.81-33.01,33.01-132.48-132.48-21.29,21.29,153.31,153.31Zm99.02-99.02l54.29-54.29-21.24-21.24-53.91,54.66,20.86,20.86Zm-99.02-165.02l21.29-21.29-21.29-21.29-21.27,21.29,21.27,21.28Z"/>
    <path class="cls-5" d="m592.06,349.15l99.05-99.05-100.93-100.93-98.55,99.49-31.54-31.56,99-99.02-100.93-100.93-100.93,100.93,66.01,66.01-31.09,31.09-66.01-66.01-100.93,100.93,198.03,198.03-66.01,66.01,100.93,100.93,133.37-133.37v-67.13s-32.45-32.45-32.45-32.45l31.09-31.09,1.88-1.88Zm-156.06-239.98l22.16-22.18,31.09,31.09-31.09,31.09-31.07-31.09,8.91-8.91Zm22.16,436.07l-31.07-31.09,31.07-31.09,31.09,31.09-31.09,31.09Zm0-132.02l-163.11-163.11,31.09-31.09,132.48,132.48,33.01-33.01,30.61,30.61-64.08,64.12Zm99.02-99.02l-30.63-30.63,63.65-64.53,31.07,31.07-64.09,64.09Z"/>
    <g>
      <polygon class="cls-5" points="491.16 384.04 458.16 417.04 428.64 387.53 428.64 387.53 291.22 250.11 326.14 215.19 458.63 347.68 489.72 316.59 326.14 153 229.04 250.11 394.08 415.15 394.08 415.15 458.16 479.23 522.25 415.13 491.16 384.04"/>
      <polygon class="cls-5" points="687.28 250.11 590.23 347.17 559.08 316.13 625.09 250.11 590.18 215.19 524.58 281.7 493.49 250.61 590.19 153 687.28 250.11"/>
    </g>
    <polygon class="cls-1" points="588.82 415.69 588.82 480.58 458.16 611.25 361.05 514.15 425.15 450.05 456.24 481.14 423.24 514.15 458.16 549.06 493.09 514.15 460.09 481.14 526.1 415.13 493.09 382.13 526.06 349.1 394.08 217.1 493.09 118.08 458.16 83.17 423.24 118.08 456.24 151.09 425.15 182.18 361.05 118.08 458.16 20.98 555.26 118.08 456.24 217.1 588.26 349.12 555.26 382.13 588.82 415.69"/>
    <path class="cls-5" d="m592.06,349.15l99.05-99.05-100.93-100.93-98.55,99.49-31.54-31.56,99-99.02-100.93-100.93-100.93,100.93,66.01,66.01-31.09,31.09-66.01-66.01-100.93,100.93,198.03,198.03-66.01,66.01,100.93,100.93,133.37-133.37v-67.13s-32.45-32.45-32.45-32.45l31.09-31.09,1.88-1.88Zm-1.86-196.15l97.08,97.1-97.05,97.07-31.13-31.05,66-66.01-34.92-34.92-65.54,66.46-31.09-31.09,96.65-97.55Zm-33.02,161.19l-30.63-30.63,63.65-64.53,31.07,31.07-64.09,64.09Zm-163.84,100.22h0s-164.31-164.31-164.31-164.31l97.1-97.1,163.57,163.57-31.08,31.1-63.79-63.79-68.7-68.7-34.92,34.92,132.02,132.02h0s34.92,34.92,34.92,34.92l33-33,31.09,31.09-64.1,64.1-64.82-64.82Zm128.9-65.31l-64.08,64.12-163.11-163.11,31.09-31.09,132.48,132.48,33.01-33.01,30.61,30.61Zm-32.99,165.04l-31.09,31.09-31.07-31.09,31.07-31.09,31.09,31.09Zm66.01-132.02l33.56,33.56v64.89s-130.67,130.67-130.67,130.67l-97.1-97.1,64.1-64.1,31.09,31.09-33.01,33,34.92,34.92,34.94-34.92-33-33.01,66.01-66.01-33.01-33.01,32.97-33.02-131.98-132,99.02-99.02-8.91-8.91-26.02-26-34.92,34.92,33.01,33.01-31.09,31.09-64.1-64.1,97.1-97.1,97.1,97.1-99.02,99.02,33.47,33.47-.04.05,65.56,65.5h0s33.01,33.01,33.01,33.01l-32.99,32.99Zm-97.1-232.95l-31.07-31.09,8.91-8.91,22.16-22.18,31.09,31.09-31.09,31.09Z"/>
  </g>
  <g>
    <g>
      <path class="cls-2" d="m27.47,699.53c1.85,0,3.44.25,4.77.77,1.48.59,2.74,1.3,3.78,2.11,1.04.81,1.89,1.78,2.56,2.88.67.97,1.12,2.02,1.33,3.11.14.67.29,1.12.45,1.33.29.45.54.7.77.77.22.16.49.13.77-.11.14-.07.38-.43.67-1.1l3.22-9.9c.38-1.17.04-1.96-1.01-2.32-.74-.31-2.07-.59-4-.9-1.03-.14-2.2-.25-3.49-.32-1.3-.07-2.75-.11-4.39-.11-4.66,0-8.77.52-12.33,1.55-1.69.52-3.33,1.15-4.88,1.89-1.57.76-3.04,1.67-4.45,2.79-2.45,1.93-4.45,4.48-6,7.67-1.49,3.35-2.23,6.36-2.23,9.02,0,2.81.41,5.38,1.22,7.67.74,2.09,1.82,4.05,3.22,5.91,1.26,1.55,2.77,3.11,4.56,4.66.81.76,1.67,1.46,2.56,2.12.88.67,1.78,1.37,2.66,2.11,1.04.83,2.05,1.62,3.06,2.39.99.79,1.94,1.55,2.83,2.29.81.67,1.62,1.33,2.39,2,.77.67,1.46,1.37,2.05,2.12,1.26,1.4,2.21,2.84,2.88,4.34.67,1.55,1.01,3.33,1.01,5.33,0,1.49-.31,2.83-.88,4.02-.59,1.12-1.3,1.96-2.12,2.56-.67.59-1.62,1.08-2.88,1.44-.88.31-1.96.45-3.22.45-1.78,0-3.64-.29-5.56-.88-1.62-.52-3.22-1.33-4.77-2.45-1.48-1.04-2.7-2.18-3.67-3.44-1.03-1.4-1.8-2.79-2.32-4.12-.59-1.55-.9-2.63-.9-3.22-.14-.74-.25-1.26-.32-1.55-.22-.95-.67-1.44-1.33-1.44-.38,0-.77.29-1.22.88-.22.31-.43.59-.61.88-.18.31-.36.59-.5.9-.22.45-.43,1.26-.67,2.45-.22,1.03-.32,1.93-.32,2.66,0,1.03.14,2,.43,2.88.31,1.04.41,4.63-.22,6-1.32,2.88,1.33,4.02,2.9,3.57,1.69-.38,3.13-.56,4.32-.56h1.22c.45,0,.97.04,1.55.11.59.07,1.19.11,1.78.11s1.22.07,1.89.23c.59,0,1.22.02,1.89.05s1.3.09,1.89.16c.59.07,1.15.11,1.66.11h1.35c2.21,0,4.18-.22,5.89-.67,1.62-.29,3.1-.85,4.43-1.66.59-.38,1.19-.79,1.78-1.22.59-.45,1.15-.94,1.67-1.46.5-.5,1.01-1.04,1.49-1.6.49-.56,1.03-1.13,1.62-1.73.58-.59,1.1-1.22,1.55-1.94.45-.7.85-1.42,1.22-2.16.74-1.4,1.33-2.81,1.78-4.21.43-1.49.77-2.86.99-4.12.22-1.33.34-2.56.34-3.65,0-1.71-.13-3.53-.34-5.46-.14-1.85-.59-3.69-1.33-5.55-.38-.97-.83-1.93-1.39-2.9-.56-.95-1.21-1.96-1.94-2.99-.74-1.04-1.64-2.11-2.66-3.17-1.04-1.08-2.2-2.21-3.46-3.4-2.14-1.91-4.11-3.55-5.89-4.88-.88-.67-1.71-1.31-2.48-1.94-.79-.63-1.51-1.24-2.18-1.84-1.26-1.19-2.25-2.39-2.99-3.65-.76-1.19-1.12-2.72-1.12-4.56,0-2.09.74-3.78,2.21-5.11,1.4-1.33,3.89-2,7.45-2Zm-7.8,36.21c2.39,1.69,4.45,3.44,6.16,5.2,1.71,1.78,3.17,3.62,4.36,5.55,2.39,3.76,3.4,7.78,3.02,12.08-.34-4.39-2.07-8.48-5.17-12.26-2.94-3.66-6.75-6.97-11.43-9.94-1.12-.79-2.34-1.67-3.69-2.65-.59-.54-1.21-1.06-1.82-1.6-.59-.52-1.17-1.13-1.71-1.8-.54-.61-1.03-1.26-1.46-1.94-.43-.68-.83-1.4-1.15-2.16-.68-1.6-.92-3.22-.74-4.86.25,1.76.85,3.26,1.78,4.47.47.68.99,1.33,1.57,1.93.58.61,1.15,1.21,1.76,1.82,1.13.99,2.56,2.07,4.27,3.24.76.52,1.48,1.01,2.18,1.46.7.47,1.4.95,2.07,1.48Z"/>
      <path class="cls-2" d="m127.58,768.07c-.16-.29-.36-.59-.61-.88-.27-.31-.54-.63-.83-1.01-1.19-1.55-2.61-3.75-4.23-6.55-.81-1.4-1.67-2.86-2.56-4.39-.88-1.51-1.82-3.08-2.77-4.72-.9-1.62-1.78-3.24-2.66-4.83-.9-1.6-1.75-3.2-2.56-4.84-.83-1.55-1.6-2.99-2.34-4.34-.74-1.33-1.4-2.5-2-3.55-.36-.74-.79-1.55-1.28-2.45-.49-.88-1.01-1.84-1.6-2.88-.59-1.04-1.21-2.12-1.84-3.28-.63-1.15-1.28-2.36-1.94-3.62-.59-1.26-1.22-2.5-1.89-3.71-.67-1.22-1.37-2.47-2.11-3.73-1.33-2.52-2.56-4.86-3.67-7-.59-1.04-1.13-2.02-1.6-2.95-.49-.92-.92-1.78-1.28-2.59-.38-.76-.68-1.37-.95-1.84-.25-.49-.47-.88-.61-1.17-.52-1.19-1.06-1.78-1.66-1.78-.59-.14-1.12.34-1.57,1.44-.14.23-.34.61-.61,1.17-.25.56-.58,1.28-.94,2.18-.38.88-.81,1.87-1.33,2.99-.52,1.12-1.08,2.3-1.67,3.56-.59,1.26-1.21,2.59-1.84,4-.63,1.4-1.31,2.88-2.05,4.45-.74,1.48-1.44,2.99-2.11,4.56-.67,1.55-1.37,3.1-2.11,4.66-.74,1.55-1.44,3.06-2.11,4.56-.67,1.48-1.33,2.95-2,4.45-.59,1.48-1.17,2.83-1.73,4.05-.56,1.22-1.1,2.34-1.62,3.38l-4.32,9.33c-.74,1.57-1.48,3.04-2.18,4.45-.7,1.4-1.39,2.74-2.05,4-.59,1.26-1.17,2.39-1.71,3.4-.56.99-1.06,1.91-1.51,2.72-.88,1.69-1.44,2.59-1.66,2.66-.9.59-1.33,1.26-1.33,2,0,.81.4,1.22,1.22,1.22.5,0,1.44-.11,2.77-.34.67-.07,1.24-.13,1.71-.16.49-.04.88-.05,1.17-.05.31,0,.63.02,1.01.05.36.04.85.09,1.44.16.59.07,1.08.13,1.44.18.38.04.7.05,1.01.05.52,0,.95-.23,1.33-.67.29-.38.45-.7.45-1.01,0-.29-.49-.59-1.46-.88-1.03-.38-1.4-1.19-1.1-2.45.07-.29.2-.74.38-1.33.18-.59.43-1.33.72-2.23.31-.88.63-1.82,1.01-2.83.36-.99.77-2.05,1.22-3.17.36-1.1.77-2.23,1.22-3.38.43-1.15.88-2.3,1.33-3.49.43-1.19.88-2.29,1.33-3.28.43-1.01.85-1.91,1.22-2.74.43-.29,1.44-.54,2.99-.77.74-.07,1.49-.14,2.29-.22.77-.07,1.64-.11,2.61-.11.95-.14,1.93-.23,2.88-.23h3.11c2.14-.14,4.34-.14,6.55,0,1.04,2,2.03,4.02,3.01,6.01.95,2,1.93,4,2.88,6,.88,1.93,1.76,3.8,2.61,5.6.85,1.82,1.66,3.58,2.39,5.29.29.74.43,1.26.43,1.55.16.45.16.85,0,1.22-.22.36-.54.56-.99.56-.52,0-.88.04-1.12.11-.14.07-.31.14-.5.22-.18.07-.34.11-.49.11-.31.23-.45.52-.45.9,0,.52.29.88.88,1.1.31.09.59.14.9.18.29.04.63.05.99.05h.9c.43,0,.99-.04,1.66-.11.59-.09,1.22-.13,1.89-.13.74,0,1.51-.07,2.34-.22.81,0,1.57-.02,2.27-.05s1.42-.09,2.16-.16c.67-.07,1.22-.11,1.67-.11h3.67c.59.07,1.22.11,1.89.11s1.37.04,2.11.11c.67.07,1.3.11,1.89.11h1.89c.59.07,1.03.11,1.33.11h.67c.81,0,1.22-.47,1.22-1.44.07-.29-.13-.74-.56-1.33Zm-45.12-34.1c-.59-.07-1.17-.13-1.76-.13-.52,0-1.08-.04-1.67-.11-.59-.07-1.15-.11-1.66-.11-.45,0-.94-.07-1.46-.22-.43,0-.83-.04-1.15-.11-.34-.09-.67-.16-.95-.23.14-.67.41-1.48.77-2.45.31-1.1.74-2.32,1.33-3.65.23-.59.45-1.19.67-1.78.23-.59.49-1.19.79-1.78.43-1.17.81-2,1.1-2.43.45.74.95,1.57,1.51,2.48.54.94,1.12,1.94,1.71,3.06.59,1.12,1.22,2.29,1.89,3.51.67,1.21,1.37,2.52,2.11,3.94h-3.22Zm8.34-.34c-.29-.07-.81-.11-1.55-.11-1.71-2.59-3.26-5.33-4.66-8.23-.59-1.4-1.24-2.79-1.94-4.16-.7-1.37-1.44-2.75-2.18-4.18-.22-.5-.11-.88.34-1.1.43-.31.81-.2,1.12.32l9.88,17.45h-1.01Zm19.45,33.22c-.14.31-.25.49-.32.56-.59.38-1.01.27-1.22-.34l-7.67-11.99c-2.52-3.85-4.74-8.03-6.66-12.55.22.07.63.11,1.22.11.29-.07.7-.11,1.21-.11l13.34,23.77c.14.16.18.34.11.56Z"/>
      <path class="cls-2" d="m165.57,769.86c-.14-.07-.32-.14-.56-.23-.22-.07-.49-.14-.77-.22-.29-.07-.59-.11-.88-.11h-.67c-.38.14-.94.11-1.67-.11-1.26-.59-2.03-1.96-2.34-4.12-.07-.29-.11-.74-.11-1.33s-.04-1.37-.11-2.32c-.07-.97-.11-2.03-.11-3.22v-4c-.07-1.4-.11-2.9-.11-4.45v-21.89c0-1.93.04-3.82.11-5.67.07-1.84.11-3.58.11-5.22s.07-3.29.22-4.77c0-1.48.05-2.81.13-4,.07-1.19.18-2.3.32-3.33.07-1.85.27-3.04.56-3.56.52-.88,1.15-1.37,1.89-1.44.67-.07,1.33-.25,2-.56,1.04-.59,1.55-1.03,1.55-1.33,0-.81-.74-1.22-2.21-1.22h-1.55c-.38.07-.76.13-1.12.13h-1.22c-.38.07-.77.11-1.22.11h-1.33c-.45.07-.88.11-1.33.11h-2.56c-.52,0-1.15-.04-1.89-.11-.74-.07-1.51-.11-2.32-.11-.76,0-1.53-.09-2.34-.23-.81,0-1.66-.04-2.5-.11-.85-.07-1.67-.11-2.5-.11-.81-.14-1.55-.23-2.21-.23h-1.89c-.38,0-.74.02-1.12.07-.36.04-.74.09-1.1.16-.67.14-1.01.4-1.01.77,0,.59.45,1.03,1.33,1.33.14.07.4.14.72.22.34.07.68.11,1.06.11.74.22,1.3.67,1.66,1.33.23.29.45,1.44.67,3.44.16.95.27,2.02.34,3.2.07,1.19.18,2.47.32,3.87.07,1.4.16,2.86.23,4.38.07,1.51.14,3.13.22,4.83.07,1.69.13,3.35.16,4.93s.05,3.15.05,4.7-.02,3.24-.05,5.04c-.04,1.82-.05,3.75-.05,5.82-.14,2.07-.23,4.11-.27,6.1-.04,1.98-.09,3.94-.16,5.85-.09,1.93-.16,3.69-.23,5.28-.07,1.58-.14,3.08-.22,4.48-.07,1.4-.14,2.47-.22,3.2-.09.74-.16,1.19-.23,1.33-.29.67-.77.99-1.44.99-.38.16-.74.23-1.12.23h-1.1c-.76,0-1.22.2-1.46.59-.14.47-.22.83-.22,1.06,0,1.12.41,1.67,1.22,1.67.52,0,1.66-.11,3.44-.34.81-.07,1.73-.13,2.72-.16,1.01-.04,2.02-.05,3.06-.05h2c.74,0,1.6.07,2.56.22.97,0,1.91.04,2.83.11.94.09,1.91.2,2.95.34,1.04.07,2.02.14,2.95.22.92.07,1.78.13,2.61.13.81.14,1.51.22,2.11.22h1.55c.67,0,1.22-.11,1.67-.34.43-.22.67-.52.67-.88,0-.52-.16-.77-.45-.77Zm-20.44-3.01c0,.52-.31.77-.9.77s-.88-.25-.88-.77v-64.89c0-.5.29-.77.88-.77s.9.27.9.77v64.89Z"/>
      <path class="cls-2" d="m243.01,747.19c.07-.74.11-1.44.11-2.11v-7.78c0-1.49.23-2.56.67-3.22.31-.67,1.22-1.22,2.79-1.67.36-.07.77-.32,1.21-.77.31-.29.45-.67.45-1.12,0-.36-.14-.7-.45-.99-.36-.23-.85-.34-1.44-.34h-23.66c-1.78,0-2.66.38-2.66,1.12-.23.74.29,1.33,1.55,1.78.67.22,1.48.29,2.45.22.95-.07,1.89.18,2.77.77.59.52,1.01,1.08,1.22,1.67.22.67.34,1.3.34,1.89l-.34,21.88c0,1.57-.25,2.75-.77,3.57-.59.88-1.93,1.33-4,1.33-5.49,0-10.3-1.08-14.44-3.22-4.02-2.07-7.45-4.9-10.33-8.44-2.83-3.4-4.93-7.4-6.34-12.01-1.4-4.43-2.11-9.06-2.11-13.88,0-3.55.56-6.88,1.66-9.99,1.12-3.19,2.66-5.92,4.66-8.23,1.93-2.21,4.34-4.03,7.22-5.44,2.75-1.33,5.82-2,9.24-2,2.21,0,4.74.67,7.54,2,2.66,1.33,5.22,2.88,7.67,4.66,1.26.88,2.41,1.78,3.44,2.66,1.04.88,2.03,1.75,3.01,2.56,1.78,1.71,2.95,2.88,3.55,3.55.59.67,1.19,1.08,1.78,1.22.67.16,1.19.07,1.57-.22.29-.22.5-.63.67-1.22.07-.52-.13-1.12-.56-1.78-.16-.22-.36-.5-.61-.88-.27-.38-.54-.85-.83-1.44-.31-.59-.61-1.19-.95-1.78-.32-.59-.68-1.26-1.06-2-.36-.74-.74-1.46-1.1-2.16-.38-.7-.74-1.48-1.12-2.29-.38-.81-.72-1.57-1.06-2.27-.32-.72-.68-1.44-1.04-2.18-.38-.74-.68-1.4-.95-2-.25-.59-.54-1.19-.83-1.78-.29-.58-.52-1.06-.67-1.44-.14-.36-.29-.67-.45-.88-.29-.59-.7-1.12-1.22-1.57-.43-.22-.88-.32-1.33-.32-.36.14-.67.41-.88.77-.22.38-.22.86,0,1.44.07.59.25,1.22.56,1.89.22.52.25.97.11,1.33-.38.59-1.22.74-2.56.45-.29-.07-.61-.14-.94-.22-.34-.07-.68-.16-1.06-.23-.38-.07-.88-.13-1.55-.16-.67-.04-1.53-.05-2.56-.05-5.11,0-10.55.74-16.33,2.21-5.49,1.42-10.57,3.78-15.23,7.11-4.59,3.26-8.37,7.49-11.33,12.68-2.9,5.26-4.34,11.52-4.34,18.78,0,4.88.77,9.47,2.34,13.77,1.55,4.38,3.78,8.14,6.66,11.33,2.81,3.26,6.3,5.89,10.44,7.89,4.23,1.93,8.82,2.9,13.77,2.9,1.12,0,2.25-.05,3.38-.16,1.15-.13,2.32-.32,3.51-.61,1.19-.23,2.3-.47,3.38-.72,1.08-.27,2.12-.54,3.17-.85,1.03-.29,1.98-.59,2.83-.88.86-.29,1.69-.63,2.5-1.01.74-.29,1.37-.54,1.89-.77.52-.22.92-.4,1.22-.56,1.4-.74,2.84-1.4,4.34-2,.74-.29,1.46-.56,2.16-.77.7-.22,1.39-.45,2.05-.67.59-.14,1.19-.29,1.78-.45.59-.14,1.15-.29,1.66-.43.97-.23,1.78-.34,2.45-.34h2.23c.14.07.32.13.54.16.23.05.41.11.56.18.81.22,1.51.11,2.11-.34.52-.29.31-.85-.67-1.66-.5-.38-1.06-.67-1.66-.9-.59-.22-1.08-.52-1.44-.88-.23-.31-.34-.63-.34-1.01v-10.66Zm-44.44,11c-3.26-2.74-5.92-5.85-7.99-9.34-1.04-1.69-1.94-3.46-2.68-5.28-.74-1.8-1.37-3.64-1.89-5.49-.88-3.64-1.33-6.97-1.33-9.99,0-1.57.27-3.6.79-6.12.59-2.74,1.58-5.26,2.99-7.56-.81,2.16-1.33,4.34-1.55,6.57-.07,1.17-.13,2.23-.16,3.15-.05.94-.05,1.76-.05,2.5,0,3.93.47,7.67,1.44,11.24.88,3.62,2.29,7.15,4.21,10.55.97,1.62,2.07,3.19,3.33,4.66,1.26,1.48,2.63,2.93,4.12,4.34,2.88,2.59,6.52,4.84,10.88,6.77-4.74-1.19-8.77-3.19-12.1-6Z"/>
      <path class="cls-2" d="m327.91,718.63c-1.57-4.38-3.82-8.26-6.79-11.67-2.95-3.4-6.59-6.1-10.87-8.1-4.23-2-9.04-3.01-14.46-3.01-4.29,0-8.97.74-13.99,2.21-4.97,1.49-9.45,3.78-13.45,6.9-4.07,3.11-7.44,7.15-10.1,12.12-2.68,5.02-4.02,11-4.02,17.88,0,4.9.94,9.56,2.79,14.01,1.76,4.52,4.32,8.48,7.65,11.88,1.64,1.71,3.44,3.24,5.4,4.61,1.96,1.37,4.12,2.57,6.5,3.62,4.52,2,9.61,2.99,15.32,2.99,3.49,0,6.9-.56,10.23-1.66,3.26-1.12,6.34-2.66,9.22-4.68,2.83-1.91,5.4-4.18,7.78-6.77,2.3-2.52,4.3-5.29,6-8.34.83-1.48,1.55-2.95,2.18-4.45.63-1.48,1.21-3.02,1.71-4.66.9-3.11,1.33-6.14,1.33-9.11,0-4.81-.81-9.4-2.43-13.77Zm-40.33,40.89c-4.75-2.52-8.79-5.74-12.12-9.67-1.64-1.93-3.08-3.96-4.34-6.1-1.26-2.16-2.29-4.41-3.1-6.79-1.71-4.88-2.56-9.51-2.56-13.88,0-3.47.4-6.45,1.21-8.89.76-2.29,2.05-4.41,3.89-6.34-.88,1.33-1.76,3.35-2.66,6.01-.88,2.66-1.33,5.4-1.33,8.21,0,5.33,1.04,10.3,3.11,14.89,2,4.59,4.74,8.75,8.23,12.44,3.48,3.71,7.44,6.75,11.88,9.11,4.3,2.38,8.93,3.96,13.88,4.79-6,0-11.36-1.26-16.1-3.78Zm28.21-3.44c-2.81,2.21-6.55,3.33-11.22,3.33-2.45,0-5.11-.52-8.01-1.57-1.33-.43-2.66-1.01-4-1.71-1.33-.7-2.63-1.51-3.89-2.39-2.59-1.62-5.08-3.67-7.44-6.1-2.3-2.3-4.34-4.79-6.12-7.45-.81-1.33-1.57-2.68-2.27-4.05-.7-1.37-1.31-2.79-1.84-4.29-.95-2.66-1.44-5.47-1.44-8.44s.25-5.47.77-7.78c.31-1.26.65-2.39,1.06-3.44.4-1.04.9-2.03,1.49-3.01.59-.88,1.26-1.67,2-2.38.74-.7,1.6-1.31,2.56-1.84,1.93-1.04,4.18-1.55,6.79-1.55,3.33,0,6.59.74,9.78,2.21,3.1,1.48,5.96,3.37,8.55,5.67,2.74,2.45,5.15,5.11,7.22,7.99,1.03,1.48,2.02,3.01,2.93,4.56.94,1.55,1.8,3.15,2.61,4.77.74,1.64,1.4,3.22,2,4.79.59,1.55,1.08,3.1,1.46,4.66.81,3.26,1.22,6.03,1.22,8.34,0,4.21-1.42,7.44-4.23,9.67Z"/>
      <path class="cls-2" d="m410.89,697.19c-.59-.14-1.15-.22-1.66-.22h-1.01c-.29,0-.63.04-.99.11-.31.07-.63.11-1.01.11h-2.77c-.38-.07-.77-.11-1.22-.11h-1.12c-.36-.07-.77-.11-1.22-.11h-1.1c-.38-.07-.72-.11-1.01-.11h-.67c-1.12,0-2.03.09-2.77.31-.74.05-1.12.4-1.12,1.01,0,.56.29.9.88,1.03.76.14,1.46.2,2.12.2,1.1,0,2.07.13,2.88.34.9.22,1.37.81,1.44,1.78.07.5.16,1.13.23,1.89.07.74.18,1.62.32,2.66.23,2.14.45,4.41.67,6.77.07,1.26.14,2.54.23,3.84.07,1.3.18,2.65.32,4.05.07,1.4.14,2.74.22,4,.07,1.26.13,2.52.13,3.78.14,1.26.22,2.41.22,3.46v2.99c.07,1.85.07,3.15,0,3.89-1.48-1.03-3.06-2.23-4.72-3.6-1.67-1.39-3.48-2.92-5.4-4.63-3.76-3.33-7.62-6.95-11.54-10.88-2-2-3.94-4-5.83-6-1.89-2.02-3.73-3.98-5.51-5.91-1.69-1.93-3.28-3.71-4.72-5.38-1.44-1.66-2.72-3.15-3.84-4.48-.59-.76-1.33-1.12-2.21-1.12h-19.12c-1.26,0-1.89.29-1.89.88,0,.38.2.74.56,1.12.31.29.7.43,1.22.43h1.78c.67-.07,1.19.07,1.55.45.45.38.74.88.9,1.55.07.31.14.63.22,1.01.07.36.11.81.11,1.33.14,1.62.22,3.47.22,5.55v7c.07,5.19-.04,10.68-.32,16.44-.14,3.11-.32,6.1-.5,8.95-.18,2.86-.38,5.58-.61,8.17-.14,2.59-.38,5.19-.72,7.78-.32,2.59-.72,5.19-1.17,7.78-.07.29-.18.58-.32.83-.16.25-.31.54-.45.83-.29.52-.7.79-1.22.79-.36,0-.99.18-1.89.54-.67.38-.99.86-.99,1.46,0,.36.14.67.43.88.31.14.56.22.79.22h.88c.45,0,.95-.04,1.55-.11.59-.07,1.19-.11,1.78-.11h4.66c.59.07,1.15.11,1.67.11.59,0,1.19.04,1.78.11.58.07,1.1.11,1.55.11h1.55c.52.09.94.13,1.22.13h.67c.38,0,.86-.09,1.46-.23.43-.07.67-.47.67-1.15,0-.99-.72-1.6-2.12-1.84-.22-.07-.63-.11-1.22-.11-.29.07-.77.11-1.44.11h-1.33c-.45-.16-.7-.31-.77-.45-.31-.36-.45-.88-.45-1.55.07-.31.09-.67.05-1.12-.04-.43-.09-.95-.16-1.55-.14-1.26-.27-2.65-.4-4.16-.11-1.51-.23-3.24-.38-5.17-.14-1.91-.27-3.85-.34-5.82-.07-1.96-.11-3.98-.11-6.05-.14-2.07-.22-4.11-.22-6.1s.04-4.11.11-6.1c.07-1.91.14-3.71.22-5.37.07-1.67.2-3.2.34-4.61,1.78,1.03,4.56,3.26,8.34,6.66,1.93,1.69,4.09,3.62,6.5,5.76,2.39,2.14,5.13,4.52,8.16,7.09,4.9,4.21,9.63,8.62,14.22,13.2,2.3,2.23,4.43,4.3,6.39,6.23,1.96,1.91,3.73,3.73,5.28,5.42.95,1.04,1.8,1.93,2.5,2.66.7.74,1.31,1.37,1.84,1.89.5.52.94.97,1.28,1.33.32.38.61.63.83.77.74.59,1.4.94,2,1.01.45.07.63-.38.56-1.33-.14-1.48-.23-3.28-.27-5.38-.05-2.11-.04-4.57.05-7.38.07-2.81.13-5.91.16-9.31.04-3.4.13-7.15.27-11.22.07-1.93.11-3.8.11-5.65s.07-3.82.23-5.65c0-1.85.02-3.62.05-5.28s.09-3.24.16-4.72c.07-1.48.11-2.81.11-4v-3.44c.07-.95.11-1.73.11-2.32v-1.12c0-1.31.16-2.43.45-3.31.31-.97.74-1.64,1.33-2,.31-.14.58-.31.85-.45.25-.14.45-.29.59-.45.38-.22.56-.5.56-.88s-.22-.63-.67-.77Zm-7.44,48.88c-.38.38-.74.41-1.12.11l-49.33-44.33c-.43-.36-.43-.77,0-1.22.38-.36.74-.4,1.12-.11l49.33,44.45c.45.29.45.67,0,1.1Z"/>
      <path class="cls-2" d="m519.9,697.3c-.59-.14-1.12-.22-1.57-.22h-9.43c-.81,0-1.6.11-2.34.32-.74.09-1.1.45-1.1,1.12,0,.59.11.94.32,1.01.07.07.18.13.34.16.14.04.29.13.43.27.14.16.34.29.56.4s.41.23.56.4c.29.29.32.77.11,1.44l-11.78,39.11c-.14.38-.25.68-.32.94-.09.27-.2.54-.34.85-.22.43-.59.67-1.12.67-.43,0-.81-.23-1.1-.67-.31-.31-.63-.83-1.01-1.57l-22.11-38.44c-.14-.22-.29-.47-.45-.72-.14-.25-.29-.54-.43-.83-.23-.52-.07-.94.43-1.22.31-.14.61-.31.95-.45.32-.14.68-.29,1.04-.45.76-.29,1.12-.7,1.12-1.21s-.22-1.01-.67-1.46c-.38-.43-.85-.67-1.44-.67-1.19,0-2.52.2-4,.56-.74.14-1.93.23-3.56.23h-13.56c-.5,0-1.03-.05-1.55-.13-.59-.07-1.12-.11-1.55-.11-.38,0-.76-.04-1.12-.11-.52-.07-1.04-.04-1.55.11-.23.07-.45.14-.67.23-.23.07-.49.18-.79.32-.43.14-.67.49-.67,1.01,0,.43.23.92.67,1.44.31.59.74,1.15,1.33,1.66.59.67,1.24,1.49,1.94,2.45.7.97,1.48,2.07,2.29,3.33.81,1.26,1.66,2.59,2.56,4,.88,1.42,1.85,2.97,2.88,4.68.97,1.62,1.96,3.33,3.01,5.1,1.03,1.78,2.11,3.64,3.22,5.56,1.12,1.93,2.23,3.84,3.39,5.73,1.15,1.89,2.32,3.8,3.49,5.73,1.04,1.76,2.07,3.46,3.06,5.04,1.01,1.6,1.91,3.1,2.72,4.5,1.64,2.83,3.19,5.38,4.66,7.67.68,1.12,1.3,2.18,1.89,3.22.59,1.04,1.19,2.03,1.78,3.01.59.95,1.13,1.89,1.62,2.77.47.88.94,1.78,1.39,2.66.29.59.58,1.19.83,1.78.25.59.47,1.15.61,1.66.36,1.04.92,1.57,1.67,1.57,1.03,0,1.62-.45,1.76-1.33.07-.45.18-.95.34-1.51.14-.56.29-1.12.43-1.71.31-1.26.97-3.19,2.02-5.78.5-1.26,1.03-2.54,1.55-3.84.52-1.3,1.08-2.61,1.66-3.94.59-1.33,1.17-2.63,1.73-3.89s1.1-2.48,1.62-3.67c.5-1.19.95-2.2,1.33-3.04.36-.86.67-1.55.88-2.07.14-.29.31-.68.5-1.15.18-.49.41-1.1.72-1.84.29-.74.59-1.51.88-2.29.31-.77.63-1.64,1.01-2.61.36-.88.74-1.84,1.12-2.83.36-1.01.74-2.02,1.1-3.06.38-1.03.77-2.07,1.22-3.11.45-1.03.85-2.07,1.22-3.1.74-1.78,1.39-3.4,1.94-4.84.56-1.44,1.1-2.75,1.6-3.94.45-1.19.86-2.21,1.22-3.11.38-.88.67-1.62.9-2.21.74-1.85,1.3-3.15,1.66-3.89.38-.81.9-1.44,1.57-1.89.36-.22.68-.43.94-.61.25-.18.5-.31.72-.4.23-.07.45-.14.67-.22.23-.07.41-.14.56-.22.52-.14.81-.38.88-.67.16-.31.23-.59.23-.9,0-.36-.23-.63-.67-.77Zm-28,51.01c-.52.22-.9.14-1.12-.23l-28.11-45.88c-.31-.38-.23-.74.22-1.12.45-.22.85-.14,1.22.22l28,45.9c.29.38.22.74-.22,1.12Z"/>
      <path class="cls-2" d="m557.89,769.86c-.14-.07-.32-.14-.56-.23-.22-.07-.49-.14-.77-.22-.29-.07-.59-.11-.88-.11h-.67c-.38.14-.94.11-1.67-.11-1.26-.59-2.03-1.96-2.32-4.12-.09-.29-.13-.74-.13-1.33s-.04-1.37-.11-2.32c-.07-.97-.11-2.03-.11-3.22v-4c-.07-1.4-.11-2.9-.11-4.45v-21.89c0-1.93.04-3.82.11-5.67.07-1.84.11-3.58.11-5.22s.07-3.29.23-4.77c0-1.48.04-2.81.11-4,.07-1.19.18-2.3.32-3.33.07-1.85.27-3.04.56-3.56.52-.88,1.15-1.37,1.89-1.44.67-.07,1.33-.25,2-.56,1.04-.59,1.57-1.03,1.57-1.33,0-.81-.76-1.22-2.23-1.22h-1.55c-.38.07-.74.13-1.12.13h-1.22c-.38.07-.77.11-1.22.11h-1.33c-.45.07-.88.11-1.33.11h-2.56c-.52,0-1.15-.04-1.89-.11-.74-.07-1.51-.11-2.32-.11-.76,0-1.53-.09-2.34-.23-.81,0-1.66-.04-2.5-.11-.85-.07-1.67-.11-2.5-.11-.81-.14-1.55-.23-2.21-.23h-1.89c-.38,0-.74.02-1.12.07-.36.04-.74.09-1.1.16-.67.14-1.01.4-1.01.77,0,.59.45,1.03,1.33,1.33.14.07.4.14.72.22.34.07.68.11,1.06.11.74.22,1.3.67,1.66,1.33.23.29.45,1.44.67,3.44.16.95.27,2.02.34,3.2.07,1.19.18,2.47.34,3.87.07,1.4.14,2.86.22,4.38.07,1.51.14,3.13.22,4.83.07,1.69.13,3.35.16,4.93.04,1.58.07,3.15.07,4.7s-.04,3.24-.07,5.04c-.04,1.82-.05,3.75-.05,5.82-.14,2.07-.23,4.11-.27,6.1-.04,1.98-.09,3.94-.16,5.85-.07,1.93-.16,3.69-.23,5.28-.07,1.58-.14,3.08-.22,4.48-.07,1.4-.14,2.47-.22,3.2s-.16,1.19-.23,1.33c-.29.67-.77.99-1.44.99-.38.16-.74.23-1.12.23h-1.1c-.74,0-1.22.2-1.46.59-.14.47-.22.83-.22,1.06,0,1.12.41,1.67,1.22,1.67.52,0,1.67-.11,3.44-.34.83-.07,1.73-.13,2.72-.16,1.01-.04,2.03-.05,3.06-.05h2c.74,0,1.6.07,2.56.22.97,0,1.91.04,2.84.11.92.09,1.89.2,2.93.34,1.04.07,2.02.14,2.95.22.92.07,1.78.13,2.61.13.81.14,1.51.22,2.11.22h1.55c.67,0,1.22-.11,1.67-.34.45-.22.67-.52.67-.88,0-.52-.14-.77-.45-.77Zm-20.44-3.01c0,.52-.31.77-.9.77s-.88-.25-.88-.77v-64.89c0-.5.29-.77.88-.77s.9.27.9.77v64.89Z"/>
      <path class="cls-2" d="m627.78,756.62c-.16-.22-.38-.32-.67-.32-.23-.07-.63.07-1.22.45-.52.36-1.04.76-1.57,1.15-.52.41-1.03.81-1.55,1.17-.52.38-1.01.7-1.44,1.01-.45.29-.97.63-1.57.99-.36.23-.85.49-1.44.77-.59.31-1.26.63-2,1.01-.74.38-1.55.72-2.45,1.06-.88.32-1.85.68-2.88,1.04-1.04.38-2.09.68-3.17.95-1.08.25-2.25.54-3.49.83-2.45.45-5.01.67-7.67.67-1.04,0-1.82-.11-2.34-.34-.52-.07-.88-.5-1.12-1.33-.14-.58-.29-1.24-.43-2-.14-.74-.27-1.62-.34-2.66-.14-2.14-.25-4.39-.32-6.77-.07-1.26-.11-2.52-.11-3.78v-11.99c0-1.93-.02-3.89-.05-5.91-.05-2-.07-3.94-.07-5.89.07-1.91.13-3.76.13-5.55v-5.11c.07-1.62.11-3.11.11-4.45s.04-2.52.11-3.55c.07-1.04.11-1.89.11-2.56v-1.33c0-.45.04-.92.11-1.39.07-.49.2-.99.34-1.51.22-1.03.88-1.66,2-1.89.74-.14,1.51-.29,2.32-.43.83-.14,1.64-.31,2.45-.45,1.78-.22,3.15-.67,4.12-1.33,1.03-.67,1.4-1.3,1.1-1.89-.36-.59-.95-.88-1.78-.88-.43,0-.81.11-1.1.32-.14.07-.36.16-.61.23-.27.07-.54.14-.83.22-.31.07-.76.14-1.33.22-.59.07-1.3.2-2.12.34-.81.14-1.71.27-2.72.38-.99.13-2.05.25-3.17.4-2.21.22-4.56.45-7,.67-1.26.07-2.41.13-3.49.16-1.08.04-2.12.05-3.17.05h-2.45c-.74,0-1.44-.07-2.11-.22-.67,0-1.28-.04-1.84-.11-.54-.07-1.04-.14-1.49-.22-.38-.09-.7-.16-.99-.23-.31-.07-.52-.11-.67-.11-.23-.14-.56-.22-1.01-.22-.29,0-.59.14-.88.43-.23.38-.34.63-.34.77,0,.76.56,1.28,1.67,1.57.95.38,1.76.85,2.43,1.44.59.59,1.04,1.57,1.33,2.9.16.59.29,1.28.4,2.05.11.77.23,1.67.4,2.72.14,1.04.25,2.14.32,3.33.07,1.19.18,2.48.34,3.89.07,1.4.14,2.84.22,4.34.07,1.48.14,3.02.22,4.66.07,1.62.14,3.26.18,4.88.04,1.64.05,3.31.05,5.01v10.23c-.07,1.69-.11,3.33-.11,4.88v4.45c-.09,1.4-.13,2.74-.13,4v3.46c-.07,1.03-.11,1.96-.11,2.77,0,.74-.04,1.37-.11,1.89-.59,1.03-1.08,1.71-1.44,2-.14.14-.36.32-.61.56-.27.22-.54.43-.83.67-.67.43-.9,1.06-.67,1.89.07.74.7.99,1.87.77.31-.07.67-.14,1.12-.22.45-.09.97-.16,1.57-.23.58-.07,1.19-.14,1.82-.22.63-.07,1.31-.14,2.07-.23.74-.07,1.48-.13,2.21-.16.74-.04,1.51-.09,2.34-.16.81-.07,1.58-.11,2.32-.11h2.45c1.48,0,3.15.05,5.01.16,1.84.11,3.83.23,6,.4,2.14.14,4.27.31,6.39.49,2.11.2,4.23.36,6.37.5.38.07.79.11,1.22.11h1.33c.83.07,1.33.52,1.57,1.33.22.83.52,1.42.88,1.78.22.38.7,0,1.44-1.12l10.44-15.54c.23-.31.34-.63.34-1.01,0-.22-.07-.56-.22-1.01Zm-49.68,10.12c0,.52-.25.77-.77.77-.59,0-.88-.25-.88-.77v-64.89c0-.52.29-.77.88-.77.52,0,.77.25.77.77v64.89Z"/>
      <path class="cls-2" d="m695.66,756.62c-.14-.22-.38-.32-.67-.32-.22-.07-.63.07-1.22.45-.52.36-1.04.76-1.55,1.15-.52.41-1.04.81-1.57,1.17-.52.38-.99.7-1.44,1.01-.45.29-.95.63-1.55.99-.38.23-.86.49-1.46.77-.59.31-1.26.63-2,1.01-.74.38-1.55.72-2.43,1.06-.9.32-1.85.68-2.9,1.04-1.04.38-2.09.68-3.17.95-1.06.25-2.23.54-3.49.83-2.45.45-5.01.67-7.67.67-1.04,0-1.82-.11-2.32-.34-.52-.07-.9-.5-1.12-1.33-.14-.58-.31-1.24-.45-2-.14-.74-.25-1.62-.32-2.66-.16-2.14-.27-4.39-.34-6.77-.07-1.26-.11-2.52-.11-3.78v-11.99c0-1.93-.02-3.89-.05-5.91-.04-2-.05-3.94-.05-5.89.07-1.91.11-3.76.11-5.55v-5.11c.07-1.62.11-3.11.11-4.45s.04-2.52.11-3.55c.07-1.04.11-1.89.11-2.56v-1.33c0-.45.04-.92.13-1.39.07-.49.18-.99.32-1.51.22-1.03.88-1.66,2-1.89.74-.14,1.51-.29,2.34-.43.81-.14,1.62-.31,2.45-.45,1.76-.22,3.13-.67,4.11-1.33,1.03-.67,1.4-1.3,1.12-1.89-.38-.59-.97-.88-1.78-.88-.45,0-.81.11-1.12.32-.14.07-.34.16-.61.23-.25.07-.54.14-.83.22-.31.07-.74.14-1.33.22-.59.07-1.3.2-2.11.34-.83.14-1.73.27-2.74.38-.99.13-2.05.25-3.15.4-2.23.22-4.56.45-7,.67-1.26.07-2.43.13-3.51.16-1.06.04-2.12.05-3.15.05h-2.45c-.74,0-1.44-.07-2.11-.22-.67,0-1.28-.04-1.84-.11-.56-.07-1.06-.14-1.51-.22-.36-.09-.7-.16-.99-.23-.31-.07-.52-.11-.67-.11-.22-.14-.56-.22-1.01-.22-.29,0-.59.14-.88.43-.22.38-.34.63-.34.77,0,.76.56,1.28,1.67,1.57.95.38,1.78.85,2.45,1.44.59.59,1.03,1.57,1.33,2.9.14.59.27,1.28.38,2.05.13.77.25,1.67.4,2.72.14,1.04.25,2.14.34,3.33.07,1.19.18,2.48.32,3.89.07,1.4.14,2.84.22,4.34.07,1.48.16,3.02.23,4.66.07,1.62.13,3.26.16,4.88.04,1.64.05,3.31.05,5.01v10.23c-.07,1.69-.11,3.33-.11,4.88v4.45c-.07,1.4-.11,2.74-.11,4v3.46c-.07,1.03-.11,1.96-.11,2.77,0,.74-.05,1.37-.13,1.89-.59,1.03-1.06,1.71-1.44,2-.14.14-.34.32-.61.56-.25.22-.54.43-.83.67-.67.43-.88,1.06-.67,1.89.07.74.7.99,1.89.77.29-.07.67-.14,1.12-.22.43-.09.95-.16,1.55-.23.59-.07,1.21-.14,1.84-.22.63-.07,1.31-.14,2.05-.23.74-.07,1.48-.13,2.21-.16.74-.04,1.53-.09,2.34-.16.81-.07,1.58-.11,2.32-.11h2.45c1.48,0,3.15.05,5.01.16,1.85.11,3.85.23,6,.4,2.14.14,4.29.31,6.39.49,2.11.2,4.23.36,6.39.5.36.07.77.11,1.22.11h1.33c.81.07,1.33.52,1.55,1.33.22.83.52,1.42.88,1.78.23.38.72,0,1.46-1.12l10.44-15.54c.22-.31.32-.63.32-1.01,0-.22-.07-.56-.22-1.01Zm-49.66,10.12c0,.52-.27.77-.79.77-.59,0-.88-.25-.88-.77v-64.89c0-.52.29-.77.88-.77.52,0,.79.25.79.77v64.89Z"/>
      <path class="cls-2" d="m776.99,768.07c-.14-.29-.36-.59-.61-.88-.25-.31-.54-.63-.83-1.01-1.19-1.55-2.59-3.75-4.23-6.55-.81-1.4-1.66-2.86-2.56-4.39-.88-1.51-1.8-3.08-2.77-4.72-.88-1.62-1.78-3.24-2.66-4.83-.88-1.6-1.75-3.2-2.56-4.84-.81-1.55-1.58-2.99-2.34-4.34-.74-1.33-1.4-2.5-2-3.55-.36-.74-.79-1.55-1.28-2.45-.47-.88-1.01-1.84-1.6-2.88-.59-1.04-1.21-2.12-1.84-3.28-.63-1.15-1.28-2.36-1.94-3.62-.59-1.26-1.22-2.5-1.89-3.71-.67-1.22-1.37-2.47-2.11-3.73-1.33-2.52-2.56-4.86-3.67-7-.59-1.04-1.12-2.02-1.6-2.95-.49-.92-.92-1.78-1.28-2.59-.38-.76-.68-1.37-.95-1.84-.25-.49-.45-.88-.59-1.17-.52-1.19-1.08-1.78-1.67-1.78-.59-.14-1.12.34-1.55,1.44-.16.23-.36.61-.61,1.17-.27.56-.58,1.28-.95,2.18-.36.88-.81,1.87-1.33,2.99-.52,1.12-1.08,2.3-1.66,3.56-.59,1.26-1.21,2.59-1.84,4-.63,1.4-1.31,2.88-2.05,4.45-.76,1.48-1.46,2.99-2.12,4.56-.67,1.55-1.37,3.1-2.11,4.66-.74,1.55-1.44,3.06-2.11,4.56-.67,1.48-1.33,2.95-2,4.45-.59,1.48-1.17,2.83-1.73,4.05-.56,1.22-1.1,2.34-1.6,3.38l-4.34,9.33c-.74,1.57-1.46,3.04-2.16,4.45-.72,1.4-1.4,2.74-2.07,4-.59,1.26-1.15,2.39-1.71,3.4-.56.99-1.06,1.91-1.49,2.72-.9,1.69-1.46,2.59-1.67,2.66-.88.59-1.33,1.26-1.33,2,0,.81.4,1.22,1.22,1.22.5,0,1.44-.11,2.77-.34.67-.07,1.24-.13,1.73-.16.47-.04.86-.05,1.15-.05.31,0,.63.02,1.01.05.38.04.85.09,1.44.16.59.07,1.08.13,1.44.18.38.04.72.05,1.01.05.52,0,.95-.23,1.33-.67.29-.38.45-.7.45-1.01,0-.29-.49-.59-1.44-.88-1.04-.38-1.42-1.19-1.12-2.45.07-.29.2-.74.38-1.33.2-.59.43-1.33.74-2.23.29-.88.61-1.82.99-2.83.38-.99.77-2.05,1.22-3.17.36-1.1.77-2.23,1.22-3.38s.88-2.3,1.33-3.49c.45-1.19.88-2.29,1.33-3.28.45-1.01.85-1.91,1.22-2.74.45-.29,1.44-.54,2.99-.77.74-.07,1.51-.14,2.29-.22.77-.07,1.64-.11,2.61-.11.95-.14,1.93-.23,2.88-.23h3.11c2.14-.14,4.34-.14,6.55,0,1.04,2,2.03,4.02,3.01,6.01.95,2,1.93,4,2.88,6,.9,1.93,1.76,3.8,2.61,5.6.86,1.82,1.66,3.58,2.39,5.29.29.74.45,1.26.45,1.55.14.45.14.85,0,1.22-.23.36-.56.56-1.01.56-.52,0-.88.04-1.12.11-.14.07-.31.14-.49.22-.2.07-.36.11-.5.11-.31.23-.45.52-.45.9,0,.52.31.88.9,1.1.29.09.58.14.88.18.29.04.63.05.99.05h.9c.45,0,.99-.04,1.66-.11.59-.09,1.22-.13,1.89-.13.74,0,1.53-.07,2.34-.22.81,0,1.57-.02,2.27-.05.7-.04,1.44-.09,2.18-.16.67-.07,1.22-.11,1.66-.11h3.67c.59.07,1.22.11,1.89.11s1.37.04,2.11.11c.67.07,1.3.11,1.89.11h1.89c.59.07,1.03.11,1.33.11h.67c.81,0,1.22-.47,1.22-1.44.07-.29-.11-.74-.56-1.33Zm-45.1-34.1c-.59-.07-1.19-.13-1.78-.13-.52,0-1.08-.04-1.67-.11-.59-.07-1.15-.11-1.66-.11-.45,0-.94-.07-1.44-.22-.45,0-.85-.04-1.17-.11-.34-.09-.65-.16-.95-.23.14-.67.41-1.48.79-2.45.29-1.1.74-2.32,1.33-3.65.22-.59.43-1.19.67-1.78.22-.59.47-1.19.77-1.78.43-1.17.81-2,1.1-2.43.45.74.95,1.57,1.51,2.48.56.94,1.12,1.94,1.71,3.06.59,1.12,1.22,2.29,1.89,3.51.67,1.21,1.37,2.52,2.12,3.94h-3.22Zm8.32-.34c-.29-.07-.81-.11-1.55-.11-1.71-2.59-3.26-5.33-4.66-8.23-.59-1.4-1.24-2.79-1.94-4.16-.7-1.37-1.42-2.75-2.16-4.18-.23-.5-.13-.88.32-1.1.45-.31.81-.2,1.12.32l9.88,17.45h-1.01Zm19.45,33.22c-.14.31-.25.49-.32.56-.59.38-1.01.27-1.22-.34l-7.67-11.99c-2.52-3.85-4.74-8.03-6.66-12.55.22.07.63.11,1.22.11.29-.07.7-.11,1.22-.11l13.32,23.77c.14.16.18.34.11.56Z"/>
      <path class="cls-2" d="m848.44,747.19c.07-.74.11-1.44.11-2.11v-7.78c0-1.49.22-2.56.67-3.22.29-.67,1.22-1.22,2.77-1.67.38-.07.79-.32,1.22-.77.31-.29.45-.67.45-1.12,0-.36-.14-.7-.45-.99-.36-.23-.85-.34-1.44-.34h-23.66c-1.78,0-2.68.38-2.68,1.12-.22.74.31,1.33,1.57,1.78.67.22,1.48.29,2.45.22.95-.07,1.89.18,2.77.77.59.52.99,1.08,1.22,1.67.22.67.32,1.3.32,1.89l-.32,21.88c0,1.57-.27,2.75-.77,3.57-.59.88-1.93,1.33-4.02,1.33-5.47,0-10.28-1.08-14.44-3.22-4-2.07-7.44-4.9-10.33-8.44-2.81-3.4-4.92-7.4-6.32-12.01-1.42-4.43-2.12-9.06-2.12-13.88,0-3.55.56-6.88,1.67-9.99,1.12-3.19,2.66-5.92,4.66-8.23,1.93-2.21,4.34-4.03,7.22-5.44,2.74-1.33,5.82-2,9.22-2,2.23,0,4.75.67,7.56,2,2.66,1.33,5.22,2.88,7.67,4.66,1.26.88,2.39,1.78,3.44,2.66,1.04.88,2.03,1.75,3.01,2.56,1.76,1.71,2.95,2.88,3.55,3.55.59.67,1.19,1.08,1.78,1.22.67.16,1.19.07,1.55-.22.31-.22.52-.63.67-1.22.07-.52-.11-1.12-.56-1.78-.14-.22-.34-.5-.59-.88-.27-.38-.54-.85-.85-1.44-.29-.59-.61-1.19-.94-1.78-.34-.59-.68-1.26-1.06-2-.36-.74-.74-1.46-1.12-2.16-.36-.7-.74-1.48-1.1-2.29-.38-.81-.72-1.57-1.06-2.27-.32-.72-.68-1.44-1.04-2.18-.38-.74-.7-1.4-.95-2-.25-.59-.54-1.19-.83-1.78-.31-.58-.52-1.06-.67-1.44-.16-.36-.31-.67-.45-.88-.29-.59-.7-1.12-1.22-1.57-.45-.22-.88-.32-1.33-.32-.38.14-.67.41-.88.77-.23.38-.23.86,0,1.44.07.59.25,1.22.56,1.89.22.52.25.97.11,1.33-.38.59-1.22.74-2.56.45-.31-.07-.61-.14-.95-.22-.32-.07-.68-.16-1.04-.23-.38-.07-.9-.13-1.57-.16-.67-.04-1.51-.05-2.56-.05-5.1,0-10.55.74-16.33,2.21-5.47,1.42-10.55,3.78-15.21,7.11-4.59,3.26-8.37,7.49-11.34,12.68-2.88,5.26-4.32,11.52-4.32,18.78,0,4.88.77,9.47,2.32,13.77,1.57,4.38,3.78,8.14,6.68,11.33,2.81,3.26,6.28,5.89,10.44,7.89,4.21,1.93,8.8,2.9,13.77,2.9,1.12,0,2.23-.05,3.38-.16,1.15-.13,2.32-.32,3.51-.61,1.17-.23,2.3-.47,3.38-.72,1.06-.27,2.12-.54,3.17-.85,1.03-.29,1.98-.59,2.83-.88.85-.29,1.67-.63,2.5-1.01.74-.29,1.37-.54,1.89-.77.5-.22.92-.4,1.22-.56,1.4-.74,2.84-1.4,4.32-2,.74-.29,1.46-.56,2.18-.77.7-.22,1.39-.45,2.05-.67.59-.14,1.17-.29,1.76-.45.59-.14,1.15-.29,1.67-.43.95-.23,1.78-.34,2.45-.34h2.21c.14.07.34.13.56.16.22.05.41.11.56.18.81.22,1.51.11,2.11-.34.52-.29.31-.85-.67-1.66-.52-.38-1.08-.67-1.66-.9-.59-.22-1.08-.52-1.46-.88-.22-.31-.32-.63-.32-1.01v-10.66Zm-44.45,11c-3.26-2.74-5.92-5.85-7.99-9.34-1.03-1.69-1.93-3.46-2.66-5.28-.74-1.8-1.37-3.64-1.89-5.49-.88-3.64-1.33-6.97-1.33-9.99,0-1.57.27-3.6.77-6.12.59-2.74,1.6-5.26,3.01-7.56-.81,2.16-1.33,4.34-1.55,6.57-.09,1.17-.14,2.23-.18,3.15-.04.94-.05,1.76-.05,2.5,0,3.93.49,7.67,1.44,11.24.9,3.62,2.3,7.15,4.23,10.55.95,1.62,2.07,3.19,3.33,4.66,1.26,1.48,2.63,2.93,4.11,4.34,2.9,2.59,6.52,4.84,10.89,6.77-4.74-1.19-8.77-3.19-12.12-6Z"/>
      <path class="cls-2" d="m884.54,716.29c.07-.95.13-1.84.13-2.66s.04-1.58.11-2.32c.07-.74.11-1.37.11-1.89,0-.59.04-1.15.11-1.67.07-.88.18-1.66.34-2.32.14-.45.27-.9.38-1.33.11-.45.23-.86.4-1.22.29-.74.95-1.08,2-1.01,4.38.38,8.62,1.19,12.77,2.45,4.23,1.19,8.37,3.6,12.46,7.22.5.52.99.81,1.44.88.52.16.88.2,1.12.13.29-.07.43-.27.43-.56,0-.23-.22-.63-.67-1.22-1.93-2.07-3.26-3.85-4-5.33-.38-.67-.76-1.33-1.17-2-.4-.67-.79-1.39-1.17-2.12-.14-.36-.32-.76-.54-1.15-.23-.41-.45-.88-.67-1.4-.16-.5-.34-1.01-.56-1.49-.23-.49-.41-1.01-.56-1.6l-1.01-3.01c-.14-.45-.25-.85-.32-1.22-.07-.36-.18-.7-.34-.99-.36-1.12-.88-1.57-1.55-1.33-.59.14-.81.74-.67,1.76.07.52.13,1.01.16,1.44.04.45.05.86.05,1.22,0,.76-.18,1.42-.56,2-.07.16-1.03.41-2.88.79-1.78.22-3.89.43-6.34.67-1.26.14-2.52.25-3.78.32-1.26.07-2.56.14-3.89.22-1.33.09-2.57.14-3.71.18-1.15.04-2.25.05-3.28.05h-3.46c-.67-.07-1.33-.11-2-.11s-1.33-.07-2-.23c-.67,0-1.31-.02-1.94-.05-.63-.04-1.24-.09-1.84-.16-1.17-.14-2.03-.25-2.56-.32-.58-.16-1.15-.25-1.71-.29-.56-.04-1.03-.02-1.39.05-.74.07-1.12.38-1.12.88s.14.94.45,1.22c.22.31.74.59,1.55.9.67.22,1.19.88,1.55,2,.31,1.12.52,2.21.67,3.33.09.74.16,1.53.23,2.39.07.85.18,1.78.32,2.83.16,1.04.27,2.11.34,3.22.07,1.12.18,2.3.32,3.55.07,1.26.16,2.52.23,3.78.07,1.26.11,2.59.11,4,.14,1.33.22,2.66.22,4.02v4c0,1.33-.02,2.77-.05,4.32-.04,1.57-.05,3.19-.05,4.9-.14,1.71-.23,3.4-.27,5.11-.05,1.69-.14,3.37-.29,4.99-.07,1.64-.14,3.15-.22,4.56-.07,1.42-.18,2.75-.34,4.02-.14,2.59-.25,4.25-.32,4.99-.07.38-.27.86-.56,1.44-.22.45-.56.79-1.01,1.01-1.26.59-1.87,1.26-1.87,2-.09.67.54.92,1.87.77.38-.07.83-.11,1.33-.11.59,0,1.26-.07,2.02-.22.74,0,1.49-.02,2.27-.05.77-.04,1.57-.09,2.39-.18.81-.07,1.62-.11,2.43-.11.9,0,1.75-.04,2.56-.11.83-.07,1.6-.11,2.34-.11h4.11c.83,0,1.71.04,2.66.11.97.07,1.89.11,2.79.11.95,0,1.93.04,2.88.11.97.09,1.85.13,2.66.13s1.64.04,2.45.11c.74.07,1.37.11,1.89.11s.92.04,1.22.11c.59.07,1.12.13,1.6.16.49.04.99.05,1.51.05.88.16,1.33.72,1.33,1.67,0,.52-.16.92-.45,1.22-.38.36-.49.85-.34,1.44.16.59.49.88,1.01.88.29,0,.63-.11.99-.32.31-.29.49-.56.56-.77.07-.23.63-1.15,1.67-2.77.45-.83.94-1.62,1.49-2.39.56-.77,1.13-1.62,1.73-2.5,2.21-3.19,3.82-5.26,4.77-6.23.45-.43.56-.85.34-1.21-.23-.31-.67-.31-1.33,0-.83.36-1.71.76-2.66,1.15-.97.41-2.05.81-3.22,1.17-2.45.81-4.86,1.49-7.24,2-1.24.31-2.47.58-3.66.85-1.19.25-2.41.49-3.67.72-1.26.14-2.41.27-3.44.38-1.04.11-2.03.16-3.01.16-.88,0-1.51-.18-1.89-.54-.36-.31-.63-1.01-.77-2.12-.14-1.17-.27-2.63-.38-4.32-.13-1.71-.18-3.71-.18-6.01-.07-2.29-.11-4.81-.11-7.54v-9.22l12.44.22c.9,0,1.33.31,1.33.88.16.31.23.63.23,1.01s.04.74.11,1.12v.77c0,.36.07.81.22,1.33,0,.52.04,1.04.11,1.55.07.52.13,1.08.13,1.67.07.59.14,1.15.22,1.66.07.52.11,1.08.11,1.67.07.52.14.99.22,1.39.07.41.16.76.23,1.06.14.59.36.99.67,1.22.22.14.59.22,1.1.22.31-.07.56-.38.79-.88.22-.31.25-.9.11-1.78-.22-1.19-.45-2.56-.67-4.11-.14-.83-.27-1.64-.34-2.45-.07-.81-.14-1.67-.22-2.56-.07-.81-.13-1.66-.16-2.5-.04-.85-.05-1.69-.05-2.5-.09-.81-.11-1.57-.05-2.27.04-.7.09-1.35.16-1.94.14-1.26.36-2.66.67-4.23.14-.74.31-1.48.5-2.21.18-.74.38-1.53.61-2.34.36-1.55.81-2.95,1.33-4.21.29-.59.54-1.17.77-1.73.22-.56.49-1.03.77-1.39.45-.67.38-1.22-.22-1.67-.52-.43-1.01-.36-1.46.23-.22.36-.54.92-.99,1.66-.14.38-.34.77-.56,1.22-.22.45-.41.88-.56,1.33-.14.45-.32.9-.56,1.33-.22.45-.4.86-.56,1.22-.14.38-.27.68-.38.94-.11.27-.2.47-.29.61-.36,1.19-1.4,1.71-3.1,1.57l-12.68-.45v-3.78c0-1.17.04-2.25.11-3.22Zm-13.43,49.68c0,.59-.34.88-1.01.88s-.99-.29-.99-.88v-64.78c0-.59.32-.88.99-.88s1.01.29,1.01.88v64.78Z"/>
    </g>
    <g>
      <path class="cls-3" d="m33.22,758.57c-.34-4.39-2.07-8.48-5.17-12.26-2.94-3.66-6.75-6.97-11.43-9.94-1.12-.79-2.34-1.67-3.69-2.65-.59-.54-1.21-1.06-1.82-1.6-.59-.52-1.17-1.13-1.71-1.8-.54-.61-1.03-1.26-1.46-1.94-.43-.68-.83-1.4-1.15-2.16-.68-1.6-.92-3.22-.74-4.86.25,1.76.85,3.26,1.78,4.47.47.68.99,1.33,1.57,1.93.58.61,1.15,1.21,1.76,1.82,1.13.99,2.56,2.07,4.27,3.24.76.52,1.48,1.01,2.18,1.46.7.47,1.4.95,2.07,1.48,2.39,1.69,4.45,3.44,6.16,5.2,1.71,1.78,3.17,3.62,4.36,5.55,2.39,3.76,3.4,7.78,3.02,12.08Z"/>
      <path class="cls-3" d="m110.24,766.85c-.14.31-.25.49-.32.56-.59.38-1.01.27-1.22-.34l-7.67-11.99c-2.52-3.85-4.74-8.03-6.66-12.55.22.07.63.11,1.22.11.29-.07.7-.11,1.21-.11l13.34,23.77c.14.16.18.34.11.56Z"/>
      <path class="cls-3" d="m91.8,733.63h-1.01c-.29-.07-.81-.11-1.55-.11-1.71-2.59-3.26-5.33-4.66-8.23-.59-1.4-1.24-2.79-1.94-4.16-.7-1.37-1.44-2.75-2.18-4.18-.22-.5-.11-.88.34-1.1.43-.31.81-.2,1.12.32l9.88,17.45Z"/>
      <path class="cls-3" d="m145.14,701.96v64.89c0,.52-.31.77-.9.77s-.88-.25-.88-.77v-64.89c0-.5.29-.77.88-.77s.9.27.9.77Z"/>
      <path class="cls-3" d="m210.67,764.18c-4.74-1.19-8.77-3.19-12.1-6-3.26-2.74-5.92-5.85-7.99-9.34-1.04-1.69-1.94-3.46-2.68-5.28-.74-1.8-1.37-3.64-1.89-5.49-.88-3.64-1.33-6.97-1.33-9.99,0-1.57.27-3.6.79-6.12.59-2.74,1.58-5.26,2.99-7.56-.81,2.16-1.33,4.34-1.55,6.57-.07,1.17-.13,2.23-.16,3.15-.05.94-.05,1.76-.05,2.5,0,3.93.47,7.67,1.44,11.24.88,3.62,2.29,7.15,4.21,10.55.97,1.62,2.07,3.19,3.33,4.66,1.26,1.48,2.63,2.93,4.12,4.34,2.88,2.59,6.52,4.84,10.88,6.77Z"/>
      <path class="cls-3" d="m303.67,763.3c-6,0-11.36-1.26-16.1-3.78-4.75-2.52-8.79-5.74-12.12-9.67-1.64-1.93-3.08-3.96-4.34-6.1-1.26-2.16-2.29-4.41-3.1-6.79-1.71-4.88-2.56-9.51-2.56-13.88,0-3.47.4-6.45,1.21-8.89.76-2.29,2.05-4.41,3.89-6.34-.88,1.33-1.76,3.35-2.66,6.01-.88,2.66-1.33,5.4-1.33,8.21,0,5.33,1.04,10.3,3.11,14.89,2,4.59,4.74,8.75,8.23,12.44,3.48,3.71,7.44,6.75,11.88,9.11,4.3,2.38,8.93,3.96,13.88,4.79Z"/>
      <path class="cls-3" d="m403.46,746.07c-.38.38-.74.41-1.12.11l-49.33-44.33c-.43-.36-.43-.77,0-1.22.38-.36.74-.4,1.12-.11l49.33,44.45c.45.29.45.67,0,1.1Z"/>
      <path class="cls-3" d="m491.9,748.3c-.52.22-.9.14-1.12-.23l-28.11-45.88c-.31-.38-.23-.74.22-1.12.45-.22.85-.14,1.22.22l28,45.9c.29.38.22.74-.22,1.12Z"/>
      <path class="cls-3" d="m537.45,701.96v64.89c0,.52-.31.77-.9.77s-.88-.25-.88-.77v-64.89c0-.5.29-.77.88-.77s.9.27.9.77Z"/>
      <path class="cls-3" d="m578.11,701.85v64.89c0,.52-.25.77-.77.77-.59,0-.88-.25-.88-.77v-64.89c0-.52.29-.77.88-.77.52,0,.77.25.77.77Z"/>
      <path class="cls-3" d="m646,701.85v64.89c0,.52-.27.77-.79.77-.59,0-.88-.25-.88-.77v-64.89c0-.52.29-.77.88-.77.52,0,.79.25.79.77Z"/>
      <path class="cls-3" d="m759.65,766.85c-.14.31-.25.49-.32.56-.59.38-1.01.27-1.22-.34l-7.67-11.99c-2.52-3.85-4.74-8.03-6.66-12.55.22.07.63.11,1.22.11.29-.07.7-.11,1.22-.11l13.32,23.77c.14.16.18.34.11.56Z"/>
      <path class="cls-3" d="m741.21,733.63h-1.01c-.29-.07-.81-.11-1.55-.11-1.71-2.59-3.26-5.33-4.66-8.23-.59-1.4-1.24-2.79-1.94-4.16-.7-1.37-1.42-2.75-2.16-4.18-.23-.5-.13-.88.32-1.1.45-.31.81-.2,1.12.32l9.88,17.45Z"/>
      <path class="cls-3" d="m816.1,764.18c-4.74-1.19-8.77-3.19-12.12-6-3.26-2.74-5.92-5.85-7.99-9.34-1.03-1.69-1.93-3.46-2.66-5.28-.74-1.8-1.37-3.64-1.89-5.49-.88-3.64-1.33-6.97-1.33-9.99,0-1.57.27-3.6.77-6.12.59-2.74,1.6-5.26,3.01-7.56-.81,2.16-1.33,4.34-1.55,6.57-.09,1.17-.14,2.23-.18,3.15-.04.94-.05,1.76-.05,2.5,0,3.93.49,7.67,1.44,11.24.9,3.62,2.3,7.15,4.23,10.55.95,1.62,2.07,3.19,3.33,4.66,1.26,1.48,2.63,2.93,4.11,4.34,2.9,2.59,6.52,4.84,10.89,6.77Z"/>
      <path class="cls-3" d="m871.1,701.18v64.78c0,.59-.34.88-1.01.88s-.99-.29-.99-.88v-64.78c0-.59.32-.88.99-.88s1.01.29,1.01.88Z"/>
    </g>
  </g>
</svg>